<svg width="107" height="38" viewBox="0 0 107 38" fill="none" xmlns="http://www.w3.org/2000/svg">
<path d="M16.8519 19.6395C16.4396 19.0308 15.9173 18.6381 15.2772 18.4574C15.9487 18.2218 16.5142 17.7663 16.9776 17.0987C17.437 16.4311 17.7394 15.6653 17.8808 14.8053L19.1217 7.23009C19.483 5.00347 19.2474 3.36983 18.4188 2.32917C17.5862 1.28851 15.9565 0.770142 13.5296 0.770142L6.35498 0.770142L0.354492 37.4367L7.52915 37.4367C9.95605 37.4367 11.8371 36.9458 13.1762 35.968C14.5153 34.9902 15.3596 33.4154 15.717 31.2438L17.2132 22.1096C17.3781 21.0728 17.2603 20.2481 16.8519 19.6395ZM11.3344 22.247L9.86966 31.2006C9.72043 32.1235 9.20206 32.5829 8.32634 32.5829H6.90083L8.82114 20.8647L10.2977 20.8647C11.1381 20.8647 11.4837 21.3242 11.3344 22.247ZM13.8281 7.00625L12.4811 15.2491C12.328 16.168 11.8332 16.6314 10.9889 16.6314H9.5123L11.3148 5.62786L12.7403 5.62786C13.6121 5.62786 13.9773 6.08732 13.8281 7.00625Z" fill="#8C8C8C"/>
<path d="M34.0249 18.2572C34.5393 17.4679 34.9163 16.3644 35.148 14.9389L36.389 7.36367C36.7817 4.9564 36.4282 3.25601 35.3247 2.26247C34.2213 1.26893 32.352 0.770203 29.713 0.770203L22.8565 0.770203L16.8521 37.4368L22.6012 37.4368L25.2794 21.0847L26.2298 21.0847C26.1944 23.8768 26.1159 26.6021 25.9981 29.2607C25.8803 31.9193 25.731 34.6447 25.5543 37.4368L31.8297 37.4368C31.8807 34.5543 31.9082 31.6876 31.92 28.8366C31.9318 25.9856 31.8965 23.0757 31.8218 20.1029C32.7722 19.6631 33.5065 19.0465 34.0249 18.2572ZM30.5848 7.36367L29.336 14.9821C29.1515 16.1131 28.425 16.6746 27.1605 16.6746H25.9981L27.8084 5.624L28.9159 5.624C30.2196 5.62792 30.7733 6.2052 30.5848 7.36367Z" fill="#8C8C8C"/>
<path d="M39.4634 0.770203L33.459 37.4368L39.2081 37.4368L45.2125 0.770203L39.4634 0.770203Z" fill="#8C8C8C"/>
<path d="M59.6994 2.44309C58.7019 1.32782 57.029 0.774109 54.6728 0.774109L47.6592 0.774109L41.6587 37.4407L48.6723 37.4407C53.3848 37.4407 56.0787 35.3633 56.762 31.2046L60.7165 7.05734C61.0346 5.09383 60.6969 3.55444 59.6994 2.44309ZM55.0263 7.00629L51.0639 31.1967C50.9147 32.1196 50.3806 32.579 49.4656 32.579H48.2011L52.6151 5.62398L53.8796 5.62398C54.7946 5.6279 55.1755 6.08736 55.0263 7.00629Z" fill="#8C8C8C"/>
<path d="M67.3298 19.7927L66.5758 24.4265L68.4137 24.4265L67.2434 31.5973C67.0942 32.5201 66.4777 32.9796 65.3899 32.9796C64.5142 32.9796 64.1529 32.5201 64.3021 31.5973L68.3744 6.60181C68.5236 5.68288 69.0538 5.2195 69.9648 5.2195C71.0487 5.2195 71.516 5.67896 71.3668 6.60181L70.3065 13.1049L75.4509 13.1049L76.5033 6.65286C76.8371 4.60295 76.5662 3.04393 75.6904 1.97578C74.8147 0.903703 73.1693 0.369629 70.7581 0.369629C68.343 0.369629 66.4737 0.903703 65.1425 1.97185C63.8151 3.04 62.9826 4.59903 62.6488 6.64893L58.5844 31.5973C58.3959 32.7557 58.3998 33.7375 58.604 34.5386C58.8043 35.3397 59.1734 35.9877 59.7036 36.4746C60.2337 36.9655 60.8856 37.315 61.6592 37.5231C62.4289 37.7313 63.2889 37.8334 64.2314 37.8334C65.2092 37.8334 66.1831 37.7156 67.1492 37.476C68.1152 37.2404 68.9281 36.8084 69.5918 36.184L70.6756 37.6527H71.7674L74.6773 19.7848L67.3298 19.7848V19.7927Z" fill="#8C8C8C"/>
<path d="M105.225 1.83833C104.35 0.860506 102.681 0.369629 100.219 0.369629C95.5415 0.369629 92.875 2.37633 92.2192 6.38582L91.3239 11.864C91.1982 12.6376 91.1668 13.3563 91.2335 14.0239C91.3003 14.6915 91.4456 15.3551 91.6734 16.007C91.9011 16.6589 92.2153 17.3147 92.6198 17.9666C93.0243 18.6185 93.4955 19.3175 94.0453 20.0597C94.7678 21.01 95.353 21.7915 95.7967 22.4002C96.2405 23.0089 96.5861 23.543 96.8256 24.0024C97.0652 24.4619 97.2065 24.886 97.2497 25.2709C97.2929 25.6557 97.2733 26.0877 97.1987 26.5628L96.3465 31.774C96.2169 32.5751 95.675 32.9757 94.7246 32.9757C93.8097 32.9757 93.417 32.5751 93.5505 31.774L94.8268 23.9789L89.3407 23.9789L88.0644 31.774C87.7424 33.7336 88.0605 35.2337 89.0148 36.2744C89.969 37.315 91.6616 37.8334 94.0885 37.8334C96.5507 37.8334 98.4082 37.315 99.6688 36.2744C100.929 35.2337 101.719 33.7336 102.041 31.774L102.901 26.5157C103.03 25.7146 103.089 24.9881 103.073 24.3323C103.058 23.6804 102.944 23.0325 102.732 22.3923C102.52 21.7562 102.213 21.0847 101.821 20.3856C101.424 19.6906 100.91 18.9091 100.277 18.0451C99.6138 17.1537 99.0679 16.4194 98.636 15.8382C98.204 15.257 97.8663 14.7464 97.6228 14.3027C97.3793 13.855 97.2183 13.4505 97.1398 13.0775C97.0573 12.7044 97.0573 12.2842 97.1358 11.809L98.0273 6.37404C98.1529 5.60042 98.6752 5.21557 99.5902 5.21557C100.505 5.21557 100.898 5.60042 100.772 6.37404L99.6688 13.101L104.943 13.101L106.042 6.37404C106.372 4.33592 106.101 2.82009 105.225 1.83833Z" fill="#8C8C8C"/>
<path d="M81.0549 32.583C80.6543 32.583 80.3598 32.7479 80.2302 32.8343L80.1556 32.8893L79.3938 33.4548L79.1189 33.1877L79.8532 32.6458C79.9396 32.579 80.2538 32.3159 80.3205 31.9193C80.3205 31.9114 80.3245 31.9075 80.3284 31.8957L81.9699 21.8622C81.9699 21.8543 81.9699 21.8504 81.9699 21.8386C82.0367 21.4381 81.805 21.175 81.7421 21.1121L81.7264 21.0964L81.1884 20.5702L81.5497 20.3032L82.127 20.8687L82.1819 20.9236C82.2841 21.01 82.5236 21.175 82.9242 21.175C82.9438 21.175 82.9595 21.175 82.9752 21.175L88.5162 21.175L89.3134 16.3172L83.7056 16.3172C83.309 16.3212 83.0223 16.4783 82.8927 16.5686L82.8181 16.6236L82.0563 17.189L81.7853 16.922L82.5157 16.3801C82.6021 16.3133 82.9163 16.0502 82.9831 15.6497C82.9831 15.6418 82.987 15.6379 82.9909 15.63L84.5185 6.3112C84.5185 6.30335 84.5185 6.29942 84.5185 6.29157C84.5853 5.89101 84.3536 5.6279 84.2908 5.56507L83.7371 5.02314L84.0983 4.7561L84.6756 5.3216L84.7306 5.37657C84.8327 5.46297 85.0683 5.6279 85.4728 5.6279C85.4924 5.6279 85.5081 5.6279 85.5278 5.6279L90.8057 5.6279L91.5989 0.774109L82.0445 0.774109L79.3506 2.77296L73.998 35.4379L76.0362 37.4367L85.8537 37.4367L86.647 32.579L81.0667 32.579H81.0549V32.583Z" fill="#8C8C8C"/>
</svg>
