<?xml version="1.0" encoding="utf-8"?>
<!-- Generator: Adobe Illustrator 24.2.1, SVG Export Plug-In . SVG Version: 6.00 Build 0)  -->
<svg version="1.1" id="Layer_1" xmlns="http://www.w3.org/2000/svg" xmlns:xlink="http://www.w3.org/1999/xlink" x="0px" y="0px"
	 viewBox="0 0 489.97 200" style="enable-background:new 0 0 489.97 200;" xml:space="preserve">
<path d="M424.55,34.51C367.03,10.53,308.87,7.07,298.43,6.63V1.45c0-0.8-0.65-1.45-1.45-1.45H61.42c-2.72,0-5.39,0.64-7.81,1.88
	L39.33,9.16c-0.75,0.38-1.58,0.58-2.43,0.58H20.68c-0.88,0-1.59-0.71-1.59-1.59v-5.4c0-1.52-1.23-2.75-2.75-2.75H2.75
	C1.23,0,0,1.23,0,2.75V100v97.25c0,1.52,1.23,2.75,2.75,2.75h13.6c1.52,0,2.75-1.23,2.75-2.75v-5.4c0-0.88,0.71-1.59,1.59-1.59
	h16.22c0.84,0,1.67,0.2,2.43,0.58l14.27,7.28c2.42,1.23,5.1,1.88,7.81,1.88h235.57c0.8,0,1.45-0.65,1.45-1.45v-5.18
	c10.44-0.44,68.6-3.9,126.12-27.88c63.2-26.34,65.4-55.35,65.42-65.49C489.95,89.86,487.75,60.85,424.55,34.51z"/>
</svg>
