<svg width="128" height="33" viewBox="0 0 128 33" fill="none" xmlns="http://www.w3.org/2000/svg">
<path d="M37.1088 12.8329C39.9921 12.0534 41.4337 9.85265 41.4337 7.33907C41.4337 4.04066 39.2871 0.747559 33.1312 0.747559L23.2502 0.747559L23.2502 25.9151H33.731C39.7816 25.9151 42.1019 22.4789 42.1019 18.9312C42.1019 15.5639 40.2025 13.3685 37.1088 12.8329ZM27.7856 4.22096L32.3946 4.22096C35.7356 4.22096 36.7931 5.96031 36.7931 7.83754C36.7931 9.5769 35.9145 11.3799 32.3946 11.3799L27.7856 11.3799V4.22096ZM32.8892 22.4417H27.7908V14.7472L33.1365 14.7472C36.1249 14.7472 37.4613 16.3434 37.4613 18.507C37.4613 20.6335 36.2302 22.4417 32.8892 22.4417Z" fill="black"/>
<path d="M55.9606 20.0664C55.1503 21.9808 53.6771 23.0095 51.6673 23.0095C48.8892 23.0095 47.0267 21.0952 46.9899 18.1149H59.3332V16.1635C59.3332 10.7386 56.4131 7.76367 51.3148 7.76367C46.0744 7.76367 42.907 11.3803 42.907 17.2294C42.907 23.0413 46.1428 26.3397 51.5252 26.3397C55.1135 26.3397 57.8915 24.6375 59.1911 21.5565L55.9606 20.0664ZM51.2464 10.6007C53.7455 10.6007 55.1872 12.128 55.1872 15.034V15.3203L46.9899 15.3203C47.0635 12.3719 48.5735 10.6007 51.2464 10.6007Z" fill="black"/>
<path d="M71.7185 8.18792L68.2355 19.7801C67.9513 20.7028 67.7777 21.3391 67.7093 21.8694H67.6409C67.5357 21.2649 67.3936 20.5914 67.1148 19.7801L63.2792 8.18792H58.6386L65.4995 25.7352L65.147 26.7958C64.4788 28.7473 63.3897 29.5958 61.3483 29.5958L58.4019 29.6329L58.4019 33.0002H61.806C65.5679 33.0002 67.925 31.404 69.5087 26.9019L76.1224 8.18262L71.7185 8.18262V8.18792Z" fill="black"/>
<path d="M83.8565 7.76367C78.7897 7.76367 75.2383 11.0939 75.2383 17.0172C75.2383 22.9724 78.7897 26.3397 83.8565 26.3397C88.9233 26.3397 92.4747 22.9724 92.4747 17.0172C92.4695 11.0992 88.918 7.76367 83.8565 7.76367ZM83.8565 23.1156C81.1469 23.1156 79.5316 21.0581 79.5316 17.0172C79.5316 12.9764 81.1521 10.9931 83.8565 10.9931C86.5609 10.9931 88.1498 12.9764 88.1498 17.0172C88.1446 21.0581 86.5609 23.1156 83.8565 23.1156Z" fill="black"/>
<path d="M103.834 7.76367C101.125 7.76367 99.1937 9.04167 97.9941 11.6295V8.19321H93.9849V25.9155H98.2045V16.5188C98.2045 13.1514 99.683 11.1681 102.145 11.1681C104.36 11.1681 105.45 12.5522 105.45 15.3521V25.9155H109.669V14.9279C109.674 10.1765 107.67 7.76367 103.834 7.76367Z" fill="black"/>
<path d="M18.657 17.086C18.8833 16.317 19.0622 15.5375 19.1832 14.7474L15.6633 14.7474C15.5949 15.1663 15.5212 15.5375 15.437 15.8451C15.295 16.3648 15.1529 16.8261 15.0161 17.2291L11.1121 12.4777C11.7225 12.149 12.3012 11.7671 12.8537 11.3429C13.4061 10.9187 13.8849 10.4361 14.2953 9.90583C14.7057 9.37554 15.0319 8.78691 15.2792 8.15056C15.5265 7.51422 15.6475 6.81423 15.6475 6.06122C15.6475 5.04306 15.4739 4.15748 15.1214 3.40446C14.7688 2.64615 14.3058 2.0151 13.7323 1.50602C13.1588 0.996946 12.4906 0.62044 11.7277 0.371203C10.9648 0.121967 10.1861 0 9.38639 0C8.54456 0 7.74482 0.143178 6.99244 0.424232C6.24005 0.710589 5.58764 1.11361 5.02467 1.6492C4.46169 2.1848 4.01973 2.81584 3.70404 3.54764C3.38836 4.27944 3.23052 5.1067 3.23052 6.0294C3.23052 6.5756 3.29891 7.09529 3.44097 7.58846C3.58303 8.08693 3.76718 8.55889 4.00395 9.00433C4.23545 9.45508 4.50904 9.88461 4.81421 10.2982C5.11937 10.7119 5.43506 11.1308 5.76653 11.555C5.04045 11.9315 4.33016 12.3611 3.64091 12.833C2.9464 13.305 2.33082 13.8459 1.79415 14.4451C1.25222 15.0496 0.820784 15.7178 0.494576 16.4496C0.168367 17.1814 0 17.9981 0 18.8942C0 20.0768 0.194672 21.1321 0.578757 22.0654C0.968102 22.9987 1.51003 23.7835 2.21507 24.4252C2.9201 25.0615 3.75666 25.5547 4.73003 25.8941C5.70339 26.2388 6.7662 26.4085 7.91319 26.4085C9.39165 26.4085 10.6965 26.1433 11.833 25.613C12.9694 25.0827 14.0059 24.2343 14.9477 23.0782L17.2364 25.9153H22.1611L17.3417 20.0291C17.9046 19.1329 18.3413 18.1518 18.657 17.086ZM7.59751 3.77567C8.11313 3.26659 8.7445 3.01205 9.49688 3.01205C10.2703 3.01205 10.8912 3.2878 11.3594 3.84461C11.8277 4.40141 12.0645 5.09079 12.0645 5.91804C12.0645 6.41651 11.9803 6.86196 11.8172 7.26498C11.6541 7.668 11.4278 8.0286 11.149 8.34677C10.8649 8.66495 10.5492 8.96191 10.1967 9.23236C9.84414 9.5028 9.4811 9.76795 9.10753 10.0278C8.87077 9.72022 8.61822 9.40205 8.34989 9.07327C8.08155 8.74449 7.83427 8.4051 7.61329 8.06041C7.39231 7.71573 7.20289 7.36573 7.05031 6.99453C6.89773 6.62863 6.82408 6.23091 6.82408 5.80668C6.82408 4.96352 7.08189 4.28475 7.59751 3.77567ZM12.1539 21.2699C11.9066 21.5987 11.6015 21.9063 11.2384 22.1927C10.8754 22.479 10.4334 22.7176 9.9178 22.9192C9.40218 23.1207 8.78133 23.2214 8.05525 23.2214C6.88195 23.2214 5.91385 22.8555 5.1562 22.1237C4.3933 21.3919 4.01447 20.3419 4.01447 18.9685C4.01447 18.2102 4.15127 17.5844 4.4196 17.0913C4.68793 16.5928 5.01941 16.1686 5.40349 15.8133C5.79284 15.458 6.20849 15.161 6.65045 14.9277C7.09767 14.689 7.50806 14.4557 7.88162 14.2171L12.8063 20.3844C12.6116 20.6442 12.3959 20.9412 12.1539 21.2699Z" fill="black"/>
<path d="M123.78 0.211914V10.7064C122.796 8.72307 121.039 7.76325 118.714 7.76325C114.315 7.76325 111.295 11.523 111.295 17.0858C111.295 22.6167 114.141 26.3393 118.398 26.3393C121.034 26.3393 123.038 24.9924 124.028 22.7227V25.9151H128V0.211914L123.78 0.211914ZM123.886 17.6532C123.886 20.9834 122.302 23.078 119.839 23.078C117.272 23.078 115.688 20.8084 115.688 17.0168C115.688 13.2252 117.235 11.0245 119.803 11.0245C122.333 11.0245 123.88 13.0449 123.88 16.5183V17.6532H123.886Z" fill="black"/>
</svg>
