<svg width="123" height="38" viewBox="0 0 123 38" fill="none" xmlns="http://www.w3.org/2000/svg">
<path d="M45.1827 23.702C42.7038 22.3828 37.9743 20.4527 37.9743 17.561C37.9743 16.0382 39.3052 14.0582 41.4632 14.0582C43.9421 14.0582 46.1001 16.6965 47.065 20.2514H47.6164C47.4334 19.1856 47.2029 18.1199 47.2029 17.0021C47.2029 16.4952 47.248 15.986 47.3859 15.4792C46.3758 14.6669 44.1251 12.8409 41.7841 12.8409C38.799 12.8409 36.3201 15.6829 36.3201 19.2354C36.3201 23.0412 39.1198 24.718 41.2778 25.8335C44.0776 27.2544 46.787 28.422 46.787 31.4155C46.787 34.6127 43.8019 35.8324 42.0574 35.8324C40.1299 35.8324 37.3753 34.3096 36.8691 28.1189L36.5007 28.017C35.7663 29.3362 35.3979 30.6056 35.3979 31.7732C35.3979 34.8188 37.8317 37 41.5963 37C45.4536 37 48.9426 34.6649 48.9426 29.5398C48.9474 26.3924 47.6164 25.0235 45.1827 23.702Z" fill="#8C8C8C"/>
<path d="M62.2474 13.6604C57.8387 12.2418 52.8002 16.1163 50.9654 23.0839C49.1282 30.0514 51.4621 35.3493 55.386 36.614L55.5619 36.6708C59.9706 38.0894 64.9378 34.2978 66.851 27.0366C68.6383 20.2632 66.3472 14.9795 62.2474 13.6604ZM63.7709 29.1112C62.4875 33.9852 59.3479 36.4624 57.0116 35.7093C53.3539 34.5299 52.6077 26.8376 54.1216 21.0874C55.1863 17.0423 58.0597 13.5798 60.705 14.4324C64.453 15.6379 65.2492 23.5078 63.7709 29.1112Z" fill="#8C8C8C"/>
<path d="M101.522 35.6809C98.2635 35.6809 95.6919 29.6417 95.6919 23.5504V23.3467L107.63 23.3467V22.8897C107.63 14.0085 102.9 12.8409 100.973 12.8409C96.9777 12.8409 92.9849 17.6107 92.9849 24.9714C92.9849 32.1781 96.5214 37 100.928 37C103.865 37 106.116 34.6151 107.998 31.8229L106.896 31.3658C105.928 32.9905 103.908 35.6809 101.522 35.6809ZM100.006 14.0606C101.981 14.0606 104.505 15.5834 104.688 22.0797L95.7347 22.0797C96.0127 17.4591 97.6194 14.0606 100.006 14.0606Z" fill="#8C8C8C"/>
<path d="M120.058 12.8409C117.717 15.8866 115.466 20.8103 113.355 26.0892L115.055 17.2578C115.193 16.4455 115.285 15.735 115.285 15.1264C115.285 14.1104 115.055 13.5017 114.413 13.5017C112.852 13.5017 110.786 17.0542 109.087 20.0998H109.591C109.957 19.3893 112.207 16.1921 112.804 16.1921C112.897 16.1921 112.942 16.2939 112.942 16.5473C112.942 16.8528 112.897 17.3597 112.759 18.0204L109.222 36.3937H110.278C112.619 29.0851 117.669 17.0044 119.461 15.2282C120.288 15.2282 120.609 16.2939 120.609 17.3597C120.609 18.6788 119.829 21.1158 119.461 22.0797H120.103C120.699 20.3035 121.802 17.5633 122.995 15.7871C123.043 14.0606 122.17 12.8409 120.058 12.8409Z" fill="#8C8C8C"/>
<path d="M30.5118 34.1746C30.2361 34.1746 30.3288 33.566 30.5569 32.3487L33.3115 17.7315C33.4945 16.8694 33.5872 16.1589 33.5872 15.5479C33.5872 14.5319 33.2663 13.9754 32.4844 13.9754C31.1083 13.9754 28.5819 18.3402 27.3413 20.5735H27.8452C28.2112 19.863 30.4619 16.6658 31.0584 16.6658C31.1511 16.6658 31.1963 16.7676 31.1963 17.021C31.1963 17.3265 31.1511 17.8333 31.0133 18.4941L28.2587 33.1113C28.0757 33.9733 27.983 34.6838 27.983 35.2948C27.983 36.3108 28.3039 36.8674 29.0858 36.8674C30.4619 36.8674 33.0334 32.756 34.4119 30.2196L33.9532 29.9662C33.359 30.9774 31.0632 34.1746 30.5118 34.1746Z" fill="#8C8C8C"/>
<path d="M81.1515 16.1945C81.1349 16.1258 81.1135 16.0595 81.0945 15.9908C80.9091 15.4745 80.6691 15.0174 80.3839 14.6219C80.063 14.198 79.6756 13.8191 79.255 13.5183C78.3637 12.9262 77.3085 12.7438 76.2841 13.0517C74.7226 13.6177 73.1849 15.2945 72.0013 17.6628L72.0013 13.9588L71.6805 13.5017C70.0739 13.9067 68.5124 13.9067 66.9058 13.5017V14.1104L69.4773 15.2282L69.4773 34.6672L66.9058 35.7827V36.3914C69.4773 35.984 72.0013 35.984 74.5729 36.3914V35.7827L72.0013 34.6672L72.0013 19.8961C72.5527 18.4775 73.2277 17.3099 73.9621 16.4976C73.9621 16.4976 73.9621 16.4976 73.9645 16.4952C73.9716 16.4881 74.0643 16.3792 74.2235 16.2253C74.2449 16.2039 74.2663 16.185 74.2877 16.166C74.2972 16.1566 74.3067 16.1495 74.3162 16.14C74.9484 15.5527 75.6139 15.2258 76.2699 15.2258C76.4386 15.2306 76.5907 15.2614 76.7309 15.304H76.7333C77.8147 15.5408 78.3685 16.3697 78.3637 17.3241C78.3637 17.3431 78.3685 17.3597 78.3708 17.3786C78.3827 17.6462 78.3114 17.9399 78.1973 18.2383C78.1973 18.2383 78.1973 18.2407 78.195 18.2407C78.1664 18.3165 78.1355 18.3899 78.1023 18.4657C78.0975 18.4751 78.0951 18.487 78.088 18.4965C78.0809 18.513 78.0714 18.5296 78.0642 18.5462C78.0381 18.603 78.0096 18.6599 77.9787 18.7167C77.9597 18.7546 77.9383 18.7901 77.9193 18.828C77.9026 18.8564 77.8884 18.8872 77.8717 18.9156C77.5247 19.5361 77.1064 20.0832 76.7832 20.4621L77.3512 21.3337C77.3512 21.3337 78.3233 19.7848 78.9008 18.9677C80.0606 17.3289 81.1515 16.1945 81.1515 16.1945Z" fill="#8C8C8C"/>
<path d="M8.86024 2.35175L6.33621 2.35175C3.9025 2.75909 1.97502 2.75909 0 2.35175L0 2.9604L3.03026 4.07587L3.03026 35.1385L0 36.2564L0 36.865C1.97502 36.4577 3.9025 36.4577 6.33621 36.865L10.2387 36.865C19.5125 36.865 26.0317 29.5564 26.0317 18.6433C26.0317 8.848 18.9611 2.35175 8.86024 2.35175ZM10.2387 35.6477L5.87751 35.6477L5.87751 3.56905L8.86262 3.56905C17.3093 3.56905 23.232 10.9297 23.232 21.5374C23.232 29.8099 17.8607 35.6477 10.2387 35.6477Z" fill="#8C8C8C"/>
<path d="M90.941 1.72649L93.5126 0.611022V0C91.9059 0.407348 90.2993 0.407348 88.6927 0L88.417 0.457083L88.417 12.893C82.1283 15.3798 77.8574 22.5865 77.8574 29.7956C77.8574 34.1107 79.7849 37.0024 82.77 37.0024C84.6523 37.0024 86.8555 35.3777 88.417 32.9431L88.417 35.9366L88.6927 36.3937C90.2993 35.9864 91.9059 35.9864 93.5126 36.3937V35.7851L90.941 34.6696L90.941 1.72649ZM88.417 31.5198C87.3142 33.3978 85.8003 35.1243 84.5145 35.1243C82.1283 35.1243 80.612 32.3842 80.612 28.4244C80.612 23.1454 83.7801 16.8529 88.417 13.8569L88.417 31.5198Z" fill="#8C8C8C"/>
<path d="M37.2685 1.87808L36.8027 1.98702L33.2377 4.53769C33.2377 5.85683 32.3464 10.4632 31.978 11.4271L32.6197 11.4271C33.8009 7.7941 34.4141 5.83315 37.2685 1.87808Z" fill="#8C8C8C"/>
</svg>
