<svg width="148" height="33" viewBox="0 0 148 33" fill="none" xmlns="http://www.w3.org/2000/svg">
<g clip-path="url(#clip0)">
<path d="M16.0968 17.3871C16.0968 18.5161 16 19.6129 15.8065 20.6452C15.6129 21.7097 15.2258 22.6452 14.6452 23.4839C14.0323 24.3226 13.1935 25 12.0968 25.4839C10.9677 26 9.48387 26.2581 7.64516 26.2581C6.29032 26.2581 5.12903 26.0323 4.16129 25.6129C3.19355 25.1935 2.41935 24.6129 1.80645 23.9032C1.16129 23.1613 0.709677 22.2903 0.419355 21.2903C0.129032 20.2903 0 19.1935 0 18.0323V16.6452H4.48387V17.9677C4.48387 19.4194 4.74194 20.5484 5.22581 21.3548C5.70968 22.1935 6.64516 22.5806 8 22.5806C8.70968 22.5806 9.32258 22.4839 9.77419 22.2581C10.2258 22.0323 10.6129 21.7097 10.871 21.3226C11.129 20.9355 11.3226 20.3871 11.4194 19.7742C11.5161 19.1613 11.5484 18.4516 11.5484 17.6452V0H16.0323V17.3871H16.0968Z" fill="black"/>
<path d="M34.6133 25.6451H30.5811V23.0645H30.5165C30.0004 23.9999 29.2585 24.7419 28.2585 25.3225C27.2907 25.8709 26.2585 26.129 25.2262 26.129C22.7746 26.129 21.0327 25.5161 19.9359 24.3225C18.8391 23.129 18.323 21.2903 18.323 18.8386V7.06445H22.4198V18.4515C22.4198 20.0645 22.7424 21.2257 23.3553 21.9032C23.9682 22.5806 24.8391 22.9032 25.9682 22.9032C26.8391 22.9032 27.5488 22.7741 28.1295 22.5161C28.6778 22.258 29.1617 21.9032 29.5165 21.4515C29.8714 20.9999 30.1295 20.4838 30.2907 19.8386C30.452 19.2257 30.5165 18.5483 30.5165 17.8386V7.06445H34.6133V25.6451Z" fill="black"/>
<path d="M53.935 25.6452H50.064V23.129H49.9995C49.4511 24.1935 48.6447 24.9677 47.5801 25.4516C46.5156 25.9355 45.4188 26.129 44.2253 26.129C42.7737 26.129 41.4834 25.871 40.3866 25.3548C39.2898 24.8387 38.3866 24.129 37.6769 23.2581C36.9672 22.3871 36.4189 21.3226 36.064 20.129C35.7092 18.9355 35.5156 17.6129 35.5156 16.2258C35.5156 14.5484 35.7414 13.0968 36.193 11.871C36.6447 10.6452 37.2576 9.64516 37.9995 8.83871C38.7414 8.03226 39.6124 7.48387 40.5801 7.09677C41.5479 6.74194 42.5479 6.54839 43.5479 6.54839C44.1285 6.54839 44.7092 6.6129 45.2898 6.70968C45.8705 6.80645 46.4511 7 46.9995 7.22581C47.5479 7.45161 48.064 7.77419 48.5156 8.12903C48.9672 8.48387 49.3543 8.93548 49.6769 9.45161H49.7414V0H53.8382V25.6452H53.935ZM39.6447 16.5484C39.6447 17.3548 39.7414 18.129 39.935 18.871C40.1285 19.6452 40.4511 20.3226 40.8705 20.9032C41.2898 21.4839 41.8059 21.9677 42.4834 22.3548C43.1285 22.7097 43.9027 22.9032 44.7737 22.9032C45.6769 22.9032 46.4511 22.7097 47.1285 22.3226C47.7737 21.9355 48.3221 21.4516 48.7414 20.8065C49.1608 20.1935 49.4834 19.4839 49.6769 18.7097C49.8705 17.9355 49.9672 17.129 49.9672 16.3226C49.9672 14.2581 49.5156 12.6452 48.5801 11.5161C47.6447 10.3548 46.4188 9.77419 44.8382 9.77419C43.8705 9.77419 43.064 9.96774 42.4188 10.3548C41.7737 10.7419 41.2253 11.2581 40.8059 11.9032C40.3866 12.5484 40.0963 13.2581 39.9027 14.0645C39.7414 14.9032 39.6447 15.7097 39.6447 16.5484Z" fill="black"/>
<path d="M72.9678 24.6768C72.9678 27.4833 72.1936 29.58 70.6129 30.9349C69.0323 32.322 66.7742 32.9994 63.8387 32.9994C62.9033 32.9994 61.9678 32.9026 61.0323 32.7091C60.0968 32.5155 59.2258 32.1929 58.4516 31.7413C57.6775 31.2897 57.0323 30.6768 56.4839 29.9349C55.9678 29.1929 55.6452 28.2897 55.5484 27.1929H59.6452C59.7742 27.7736 59.9678 28.2252 60.2581 28.58C60.5484 28.9349 60.9033 29.2252 61.2904 29.4188C61.6774 29.6123 62.1291 29.7413 62.6129 29.8059C63.0968 29.8704 63.5807 29.9026 64.1291 29.9026C65.7742 29.9026 67 29.4833 67.742 28.6768C68.4839 27.8704 68.9033 26.6768 68.9033 25.1607V22.3865H68.8387C68.2581 23.4188 67.4839 24.2252 66.4839 24.8059C65.4839 25.3865 64.4194 25.6768 63.2581 25.6768C61.7742 25.6768 60.5162 25.4188 59.4839 24.9026C58.4516 24.3865 57.5807 23.6768 56.9033 22.7736C56.2258 21.8704 55.7097 20.8381 55.4194 19.6768C55.0968 18.5155 54.9678 17.2575 54.9678 15.9026C54.9678 14.6446 55.1613 13.4833 55.5484 12.3542C55.9355 11.2252 56.4839 10.2575 57.1936 9.3865C57.9033 8.51553 58.8065 7.87037 59.8387 7.35424C60.871 6.83811 62.0645 6.6123 63.3871 6.6123C64.5484 6.6123 65.6452 6.87037 66.6129 7.35424C67.5807 7.83811 68.3549 8.6123 68.871 9.67682H68.9355V7.06392H73.0323V24.6768H72.9678ZM63.871 22.4188C64.7742 22.4188 65.5484 22.2252 66.1936 21.8704C66.8387 21.4833 67.3549 20.9994 67.742 20.3865C68.1291 19.7736 68.4194 19.0962 68.6129 18.2897C68.8065 17.5155 68.871 16.7413 68.871 15.9349C68.871 15.1284 68.7742 14.3865 68.5807 13.6446C68.3871 12.9026 68.0968 12.2575 67.7097 11.6768C67.3226 11.0962 66.8065 10.6446 66.1613 10.322C65.5162 9.9994 64.7742 9.80585 63.871 9.80585C62.9678 9.80585 62.1936 9.9994 61.5807 10.3865C60.9678 10.7736 60.4516 11.2575 60.0645 11.8704C59.6775 12.4833 59.4194 13.1607 59.2258 13.9671C59.0323 14.7736 58.9678 15.5155 58.9678 16.2897C58.9678 17.0639 59.0645 17.8059 59.2581 18.5478C59.4516 19.2897 59.742 19.9349 60.1291 20.5155C60.5162 21.0962 61.0323 21.5478 61.6452 21.9026C62.2904 22.2252 63 22.4188 63.871 22.4188Z" fill="black"/>
<path d="M74.6453 7.06398H78.5163V9.64463H78.6131C78.9356 9.19301 79.2582 8.77366 79.6131 8.38656C79.9679 7.99946 80.3873 7.67688 80.8066 7.41882C81.2582 7.16075 81.7421 6.93495 82.3227 6.80592C82.9034 6.64463 83.5485 6.58011 84.2905 6.58011C85.4195 6.58011 86.4518 6.83817 87.4195 7.32205C88.3873 7.80592 89.0647 8.61237 89.484 9.64463C90.1937 8.67688 90.9679 7.93495 91.9034 7.38656C92.8389 6.83817 93.9356 6.54785 95.3227 6.54785C97.2905 6.54785 98.8066 7.03172 99.9034 7.99946C101 8.96721 101.549 10.5479 101.549 12.8059V25.6124H97.4518V14.8059C97.4518 14.064 97.4195 13.3866 97.3873 12.7737C97.355 12.1608 97.1937 11.6446 96.9679 11.193C96.7744 10.7414 96.4195 10.3866 95.9679 10.1608C95.5163 9.93495 94.9034 9.80592 94.0969 9.80592C92.7098 9.80592 91.7098 10.2253 91.0647 11.0962C90.4518 11.9672 90.1292 13.193 90.1292 14.7414V25.6124H86.0324V13.6769C86.0324 12.3866 85.8066 11.4188 85.3227 10.7414C84.8711 10.0962 84.0002 9.7414 82.7421 9.7414C82.226 9.7414 81.7098 9.83817 81.226 10.064C80.7421 10.2898 80.2905 10.5801 79.9356 10.9995C79.5486 11.4188 79.2582 11.9027 79.0324 12.5156C78.8066 13.1285 78.6776 13.8059 78.6776 14.5479V25.5801H74.5808V7.06398H74.6453Z" fill="black"/>
<path d="M106.484 17.4193C106.484 18.129 106.581 18.8386 106.774 19.5161C106.968 20.1935 107.29 20.7741 107.678 21.258C108.097 21.7741 108.613 22.1612 109.226 22.4515C109.839 22.7419 110.581 22.9031 111.452 22.9031C112.645 22.9031 113.613 22.6451 114.355 22.129C115.097 21.6128 115.645 20.8386 116 19.8064H119.871C119.645 20.8064 119.29 21.7096 118.742 22.4838C118.226 23.2902 117.581 23.9354 116.839 24.4838C116.097 25.0322 115.258 25.4193 114.355 25.7096C113.419 25.9999 112.484 26.129 111.452 26.129C110 26.129 108.71 25.9031 107.581 25.4193C106.452 24.9354 105.516 24.258 104.742 23.4193C103.968 22.5483 103.387 21.5161 103 20.3225C102.613 19.129 102.419 17.8064 102.419 16.3548C102.419 15.0322 102.613 13.7741 103.032 12.6128C103.452 11.4515 104.065 10.387 104.839 9.48379C105.613 8.58057 106.548 7.87089 107.645 7.35476C108.742 6.83863 110 6.58057 111.387 6.58057C112.839 6.58057 114.161 6.87089 115.323 7.48379C116.484 8.0967 117.452 8.90315 118.226 9.90315C119 10.9031 119.548 12.0644 119.903 13.3548C120.258 14.6451 120.323 15.9999 120.161 17.387H106.484V17.4193ZM116.032 14.7096C116 14.0644 115.839 13.4515 115.613 12.8386C115.387 12.2257 115.065 11.7096 114.677 11.2902C114.29 10.8386 113.807 10.4838 113.226 10.2257C112.677 9.93541 112.032 9.80637 111.355 9.80637C110.645 9.80637 110 9.93541 109.387 10.1935C108.774 10.4515 108.29 10.8064 107.871 11.2257C107.452 11.6773 107.129 12.1935 106.871 12.7741C106.613 13.3548 106.484 14.0322 106.452 14.7096H116.032Z" fill="black"/>
<path d="M120.871 7.06444H124.742V9.80637L124.807 9.87089C125.42 8.83863 126.258 8.03218 127.258 7.45153C128.258 6.87089 129.387 6.58057 130.613 6.58057C132.646 6.58057 134.258 7.0967 135.42 8.16121C136.581 9.22573 137.194 10.8064 137.194 12.9031V25.6451H133.097V13.9677C133.065 12.5161 132.742 11.4515 132.162 10.7741C131.581 10.0967 130.678 9.77411 129.484 9.77411C128.807 9.77411 128.162 9.90315 127.613 10.1612C127.065 10.4193 126.581 10.7741 126.226 11.1935C125.839 11.6451 125.549 12.1612 125.323 12.7419C125.097 13.3225 125 13.9677 125 14.6451V25.6128H120.904V7.06444H120.871Z" fill="black"/>
<path d="M136.936 7.06499H140.033V1.5166H144.13V7.06499H147.839V10.1295H144.13V20.0327C144.13 20.4521 144.162 20.8392 144.194 21.1295C144.226 21.4521 144.323 21.7102 144.452 21.936C144.581 22.1618 144.775 22.3231 145.033 22.4198C145.291 22.5166 145.646 22.5811 146.097 22.5811C146.388 22.5811 146.678 22.5811 146.968 22.5489C147.259 22.5489 147.549 22.4843 147.839 22.4198V25.5811C147.388 25.6134 146.936 25.6779 146.517 25.7101C146.065 25.8069 145.613 25.8069 145.162 25.8069C144.097 25.8069 143.226 25.7101 142.549 25.5166C141.904 25.3231 141.388 25.0005 141.001 24.6134C140.613 24.2263 140.388 23.7102 140.259 23.1295C140.13 22.5166 140.033 21.8392 140.033 21.0972V10.1295H136.936V7.06499Z" fill="black"/>
</g>
<defs>
<clipPath id="clip0">
<rect width="147.839" height="33" fill="white"/>
</clipPath>
</defs>
</svg>
