<svg width="75" height="27" viewBox="0 0 75 27" fill="none" xmlns="http://www.w3.org/2000/svg">
<path d="M23.3647 11.6592L20.3391 11.6592L20.3391 15.1607L23.3647 15.1607L23.3647 11.6592Z" fill="black"/>
<path d="M45.998 6.00879L29.5183 6.00879L29.5183 7.57885L45.998 7.57885V6.00879Z" fill="black"/>
<path d="M40.9563 9.55811L35.962 9.55811C35.2732 10.9587 34.7737 11.917 34.4622 12.4313C37.7749 12.2229 40.5867 12.0129 42.899 11.803C42.0468 10.8073 41.3992 10.0575 40.9563 9.55811Z" fill="black"/>
<path d="M17.781 11.6592L14.6821 11.6592L14.6821 15.1607L17.781 15.1607L17.781 11.6592Z" fill="black"/>
<path d="M17.781 6.22607L14.6821 6.22607L14.6821 9.53416L17.781 9.53416L17.781 6.22607Z" fill="black"/>
<path d="M23.3647 6.22607L20.3391 6.22607L20.3391 9.53416L23.3647 9.53416L23.3647 6.22607Z" fill="black"/>
<path d="M54.502 11.8931L52.0537 11.8931L52.0537 15.687L54.502 15.687L54.502 11.8931Z" fill="black"/>
<path d="M59.4336 15.6885L59.4336 11.8931L59.3603 11.8931L57.0602 11.8931H56.9854L56.9854 15.6885H57.0602L59.3603 15.6885H59.4336Z" fill="black"/>
<path d="M59.4336 6.07031L56.9854 6.07031L56.9854 9.86425L59.4336 9.86425L59.4336 6.07031Z" fill="black"/>
<path d="M52.0537 6.16629L52.0537 9.76828V9.86425L54.502 9.86425V9.76828L54.502 6.16629V6.07031L52.0537 6.07031V6.16629Z" fill="black"/>
<path d="M73.0114 2.12791L63.8384 2.12791L62.8915 2.12791L61.8529 2.12791L60.906 2.12791L57.019 2.12791L54.4608 2.12791L50.5249 2.12791V2.10691L48.5394 2.10691L41.0556 2.10691V1.97495L41.0556 0.0254929L39.0701 0.0254929L36.3652 0.0254929L34.3797 0.0254929L34.3797 1.97495V2.10691L27.8428 2.10691V2.10392L25.8573 2.10392L22.2834 2.10392V1.94946L22.2834 0L20.2979 0L17.7397 0L15.7542 0L15.7542 1.94946V2.10392L13.1349 2.10392L10.3063 2.09342V1.94946L10.3063 0L8.32078 0L5.78697 0L3.80147 0L3.80147 1.94946L3.80147 2.08142L2.98283 2.08142L0.997332 2.08142L0.997332 4.03088L0.997332 5.22455H0.995805L0.995805 8.22821L3.01032 9.75929L4.07944 9.75929C3.26691 10.6485 2.32304 11.4478 1.23559 12.1661L0 12.9834L0.450556 14.3765L1.28752 16.9603L2.07561 19.3956L3.80147 18.2979L3.80147 23.5195L3.80147 25.4689L5.81599 27L11.3525 27L11.3525 21.3361H12.1818L14.6408 21.3361H15.6335L15.6335 25.4674L17.648 26.9985L34.9448 26.9985L37.7184 26.9985L51.985 26.9985L53.9995 25.4674L53.9995 23.518V21.3931V21.3601L53.9995 19.823H54.4623L56.7441 19.823L56.7441 27L70.079 27L72.0935 25.4689H72.1134V23.5195V21.4111L72.1134 18.2484L72.1134 9.76229L72.9855 9.76229L75 8.23121V8.10525V6.15579V5.22755V4.07887L75 2.12941L73.0114 2.12941V2.12791ZM63.8384 19.4106L63.8384 9.76079L65.5093 9.76079L65.5093 18.2469V19.1227L65.5093 19.4601L63.8384 19.4601V19.4106ZM20.3392 23.518L17.7809 23.518L17.7809 17.2632L14.682 17.2632L14.682 19.3866L12.223 19.3866L12.223 14.7754L10.7721 16.056C10.1322 15.2028 9.3288 14.2131 8.36201 13.0854L8.36201 23.518L5.82668 23.518L5.82668 14.2685C4.97444 15.1053 4.1054 15.8056 3.21957 16.3695L2.3826 13.7857C5.28449 11.8707 7.35093 9.3664 8.58042 6.27576L3.02102 6.27576L3.02102 4.03088L5.82515 4.03088L5.82515 1.94946L8.35896 1.94946L8.35896 4.03088L11.1875 4.03088L11.1875 6.27426C10.6133 7.85182 9.93361 9.27792 9.14552 10.5496C10.3093 11.8212 11.3342 13.0299 12.22 14.1726L12.22 4.05337L17.7794 4.05337L17.7794 1.94946L20.3376 1.94946L20.3376 4.05337L24.9486 4.05337L25.8955 4.05337L25.8955 10.6156L25.8955 19.3866L23.3617 19.3866L23.3617 17.2632L20.3361 17.2632L20.3361 23.518H20.3392ZM52.0537 23.518L23.3648 23.518L23.3648 21.3931L36.4064 21.3931L36.4064 19.3641L28.5362 19.3641L28.5362 17.2872L36.4064 17.2872V14.3645L28.5378 14.8969L28.5378 12.8934L31.6993 12.628C31.6993 12.628 32.66 10.7175 33.2342 9.55834L28.5362 9.55834L28.5362 8.66459L27.8841 8.66459L27.8841 4.05487L36.4064 4.05487V1.97345L39.1128 1.97345V4.05487L47.6093 4.05487V4.07587L47.6093 8.66459H46.9693V9.55834L44.0323 9.55834C45.442 11.1044 46.7876 12.7135 48.0659 14.3885L45.8528 15.4997C45.6711 15.2583 45.4053 14.9164 45.0525 14.474C44.6997 14.0316 44.4905 13.7692 44.4248 13.6897C42.1781 13.8996 40.4065 14.0601 39.1128 14.1726V17.2887L46.9693 17.2887L46.9693 19.3656L39.1128 19.3656L39.1128 21.3946L52.0552 21.3946V23.518H52.0537ZM54.502 17.7896L52.0537 17.7896V19.3266L49.5948 19.3266L49.5948 15.7276V14.7169V14.1126L49.5948 13.0599V10.9725V10.5301L49.5948 4.43427V3.99189L50.5676 3.99189L54.5035 3.99189L57.0618 3.99189L60.9488 3.99189L61.8957 3.99189V4.43427L61.8957 8.01977V8.46215L61.8957 19.3281L59.3619 19.3281V17.7911L57.0602 17.7911L54.502 17.7911V17.7896ZM73.0527 6.15429L70.1676 6.15429L70.1676 18.2469L70.1676 21.4096V23.518L67.536 23.518L59.3054 23.518V21.4096L67.536 21.4096L67.536 19.1227V18.2469L67.536 6.15429L63.8797 6.15429L63.8797 4.07737L73.0527 4.07737V6.15429Z" fill="black"/>
</svg>
