<?xml version="1.0" encoding="utf-8"?>
<!-- Generator: Adobe Illustrator 24.2.1, SVG Export Plug-In . SVG Version: 6.00 Build 0)  -->
<svg version="1.1" id="Layer_1" xmlns="http://www.w3.org/2000/svg" xmlns:xlink="http://www.w3.org/1999/xlink" x="0px" y="0px"
	 viewBox="0 0 203.88 209.99" style="enable-background:new 0 0 203.88 209.99;" xml:space="preserve">
<style type="text/css">
	.st0{fill:#010101;}
</style>
<path class="st0" d="M191.17,91.18c3.04-5.26,7.55-9.14,12.71-11.44c-4.82-19.52-15.1-36.9-29.13-50.4
	c-0.77,0.56-1.58,1.08-2.42,1.57c-13.22,7.62-30.11,3.1-37.74-10.11c-3.03-5.26-4.15-11.11-3.55-16.72c-9.24-2.66-19-4.09-29.1-4.09
	c-10.1,0-19.87,1.43-29.11,4.09c0.1,0.96,0.15,1.93,0.15,2.91c0,15.25-12.37,27.62-27.62,27.62c-6.07,0-11.68-1.95-16.24-5.28
	C15.1,42.86,4.81,60.23,0,79.75c0.88,0.39,1.74,0.84,2.6,1.33c13.21,7.62,17.74,24.52,10.11,37.73c-3.04,5.26-7.54,9.15-12.71,11.44
	c4.82,19.52,15.1,36.9,29.13,50.4c0.77-0.57,1.58-1.09,2.42-1.58c13.21-7.63,30.11-3.1,37.73,10.1c3.03,5.26,4.15,11.11,3.54,16.73
	c9.24,2.66,19.01,4.1,29.11,4.1s19.87-1.43,29.1-4.1c-0.01-0.08-0.02-0.16-0.02-0.24c-1.44-15.58,10.53-29.53,26.16-30.26
	c6.59-0.31,12.68,1.68,17.57,5.25c14.02-13.51,24.31-30.88,29.12-50.4c-0.88-0.39-1.74-0.83-2.6-1.32
	C188.06,121.29,183.54,104.4,191.17,91.18z M47.35,157.34c-11.49,0-20.83-9.35-20.83-20.83c0-11.49,9.35-20.83,20.83-20.83
	s20.83,9.35,20.83,20.83C68.19,147.99,58.84,157.34,47.35,157.34z M47.35,94.31c-11.49,0-20.83-9.35-20.83-20.83
	s9.35-20.83,20.83-20.83s20.83,9.35,20.83,20.83S58.84,94.31,47.35,94.31z M117.16,113.76l-9.21-1.24c-0.1-0.01-0.21-0.02-0.31-0.02
	c-0.94,0-1.8,0.56-2.16,1.45l-3.54,8.62c0,0,0,0,0,0l-3.54-8.62c-0.36-0.89-1.22-1.45-2.16-1.45c-0.1,0-0.21,0.01-0.31,0.02
	l-9.22,1.24c0,0-0.01-0.01-0.01-0.01l5.68-7.37c0.65-0.84,0.65-2.01,0-2.86l-5.65-7.32c0.01-0.02,0.02-0.03,0.03-0.05l9.17,1.23
	c0.1,0.01,0.21,0.02,0.31,0.02c0.94,0,1.8-0.56,2.16-1.45l3.51-8.53c0.02,0,0.05,0,0.07,0l3.51,8.53c0.36,0.89,1.22,1.45,2.16,1.45
	c0.1,0,0.21-0.01,0.31-0.02l9.17-1.23c0.01,0.02,0.02,0.03,0.03,0.05l-5.65,7.33c-0.65,0.84-0.65,2.01,0,2.86l5.67,7.35
	C117.17,113.74,117.17,113.75,117.16,113.76z M101.94,21.13c11.49,0,20.83,9.35,20.83,20.83s-9.35,20.83-20.83,20.83
	S81.1,53.45,81.1,41.97S90.45,21.13,101.94,21.13z M101.94,188.86c-11.49,0-20.83-9.35-20.83-20.83s9.35-20.83,20.83-20.83
	s20.83,9.35,20.83,20.83S113.43,188.86,101.94,188.86z M156.52,157.34c-11.49,0-20.83-9.35-20.83-20.83
	c0-11.49,9.35-20.83,20.83-20.83c11.49,0,20.83,9.35,20.83,20.83C177.35,147.99,168.01,157.34,156.52,157.34z M156.52,94.31
	c-11.49,0-20.83-9.35-20.83-20.83s9.35-20.83,20.83-20.83c11.49,0,20.83,9.35,20.83,20.83S168.01,94.31,156.52,94.31z"/>
</svg>
