<svg width="28" height="33" viewBox="0 0 28 33" fill="none" xmlns="http://www.w3.org/2000/svg">
<g clip-path="url(#clip0)">
<path d="M19.5366 20.378C19.5 20.378 19.4634 20.378 19.4634 20.4146C19.4268 20.4146 19.4268 20.4512 19.4634 20.4878C19.5 20.561 19.6463 20.5976 19.7561 20.561C19.7927 20.561 19.8293 20.5244 19.8659 20.5244C19.9024 20.4878 19.9756 20.4512 19.9024 20.4146C19.8659 20.378 19.8293 20.3049 19.7561 20.3415C19.6829 20.4146 19.6098 20.4146 19.5366 20.378ZM19.5366 0.987805C19.5366 1.02439 19.5366 1.06098 19.5366 1.09756C19.5366 1.31707 19.5366 1.28049 19.3171 1.28049C19.2439 1.28049 19.1341 1.2439 19.1341 1.35366C19.1341 1.42683 19.1341 1.5 19.1707 1.57317C19.2073 1.68293 19.2805 1.71951 19.3902 1.64634C19.4634 1.57317 19.5366 1.46341 19.5732 1.35366C19.5732 1.28049 19.6098 1.20732 19.6829 1.17073C19.7561 1.13415 19.7561 1.09756 19.6829 1.06098C19.6098 1.02439 19.5732 1.02439 19.5366 0.987805ZM19.0244 2.70732C19.0244 2.67073 18.9878 2.63415 18.9146 2.67073C18.5854 2.70732 18.3659 2.92683 18.1098 3.14634C18.0732 3.18293 18.0732 3.18293 18.1098 3.21951C18.1829 3.2561 18.2561 3.36585 18.3659 3.29268C18.4756 3.21951 18.5854 3.18293 18.6951 3.10976C18.8049 3.03659 18.9512 3 18.9146 2.81707C18.9146 2.78049 18.9512 2.78049 18.9512 2.7439C18.9878 2.7439 19.0244 2.70732 19.0244 2.70732ZM2.70732 3.69512H2.7439C3.2561 3.36585 3.76829 3 4.28049 2.70732C4.42683 2.59756 4.42683 2.52439 4.28049 2.41463C4.20732 2.34146 4.13415 2.41463 4.06098 2.45122C3.54878 2.7439 3.14634 3.21951 2.70732 3.69512ZM6.07317 25.8659C6.21951 25.8659 6.29268 25.8659 6.36585 25.7561C6.54878 25.6098 6.54878 25.6098 6.80488 25.7195C6.9878 25.7927 7.20732 25.8293 7.39024 25.7561C7.57317 25.6829 7.64634 25.5 7.7561 25.3902C7.97561 25.1707 7.97561 24.878 8.0122 24.622C8.04878 24.2561 7.90244 23.9634 7.7561 23.6707C7.53659 23.2683 7.53659 22.9024 7.53659 22.4634C7.57317 22.1341 7.60976 21.7683 7.68293 21.439C7.79268 20.9634 7.86585 20.4512 8.04878 20.0122C8.12195 19.8293 8.15854 19.8293 8.30488 19.9024C8.52439 19.9756 8.67073 20.0854 8.92683 20.0488C9 20.0122 9.07317 20.122 9.03659 20.1951C8.92683 20.3049 9.03659 20.4512 9 20.561C9.14634 20.4146 9.18293 20.2683 9.32927 20.1585C9.43902 20.0854 9.54878 19.9756 9.62195 19.8659C9.73171 19.6829 9.84146 19.6098 9.95122 19.6829C10.1341 19.7927 10.061 19.9756 10.1341 20.1585C10.1707 20.2683 10.1341 20.3415 10.0244 20.4146C9.98781 20.4146 9.98781 20.4512 9.95122 20.4512C9.84146 20.4878 9.76829 20.5244 9.65854 20.561C9.32927 20.7073 9.03659 20.8537 8.70732 20.9634C8.37805 21.0732 7.93902 21.5122 7.90244 21.8415C7.86585 21.9512 7.90244 22.061 8.04878 22.0976C8.19512 22.1341 8.37805 22.2073 8.4878 22.3171C8.7439 22.4634 8.96342 22.5366 9.21951 22.3171C9.36585 22.2073 9.47561 22.1341 9.54878 21.9512C9.62195 21.7317 9.80488 21.5488 10.0244 21.4024C10.061 21.3659 10.1341 21.2927 10.2073 21.3293C10.2805 21.3659 10.2439 21.439 10.2805 21.5122C10.3171 22.2073 10.4268 22.9024 10.5366 23.5976C10.5732 23.9634 10.6098 24.3659 10.5732 24.8049C10.5366 25.1341 10.5 25.4634 10.4634 25.8293C10.4268 26.0488 10.3171 26.122 10.0976 26.0488C9.98781 26.0122 9.87805 25.9756 9.80488 25.9024C9.65854 25.7927 9.5122 25.7561 9.32927 25.6829C9.40244 25.7927 9.47561 25.9024 9.54878 26.0122C9.62195 26.0854 9.58537 26.1585 9.47561 26.1951C9.40244 26.2317 9.32927 26.1951 9.29268 26.1585C9.2561 26.122 9.21951 26.0488 9.18293 26.0854C9.14634 26.122 9.07317 26.1951 9.10976 26.2683C9.18293 26.7073 9.29268 27.1098 9.43902 27.5122C9.47561 27.6585 9.47561 27.8415 9.32927 27.9512C9.2561 27.9878 9.2561 28.0976 9.29268 28.0976C9.47561 28.1341 9.43902 28.2439 9.43902 28.3537C9.43902 28.3902 9.47561 28.4634 9.51219 28.5C9.54878 28.5366 9.58537 28.5366 9.58537 28.6098C9.62195 28.8293 9.80488 28.9756 9.98781 29.0854C10.061 29.122 10.0976 29.1585 10.1341 29.2683C10.1341 29.3049 10.1707 29.3415 10.2073 29.3415C10.2439 29.3415 10.2805 29.3049 10.2805 29.2683C10.3171 29.1951 10.3537 29.1585 10.3902 29.0854C10.5732 28.8293 10.8293 28.6098 10.9756 28.3171C11.1585 28.0244 11.2683 27.7317 11.1585 27.3659C11.122 27.2561 11.1585 27.1829 11.2683 27.1463C11.3415 27.1098 11.4146 27.0732 11.4878 27C11.7439 26.7439 11.8902 26.4146 11.8537 26.0122C11.8537 25.8659 11.8537 25.6829 11.8171 25.5366C11.7805 25.3902 11.7805 25.2805 11.8171 25.1341C11.8171 25.0244 11.8537 24.9512 11.9634 24.9146C12.0732 24.9146 12.0732 24.8049 12.1098 24.7317C12.1463 24.5488 12.1829 24.4024 12.3659 24.2927C12.4024 24.2927 12.4024 24.2561 12.4024 24.2195C12.3293 23.8537 12.2561 23.4878 12.1463 23.1585C12.0732 22.9024 12 22.6098 11.9634 22.3537C11.9268 22.061 11.9634 21.8049 11.9268 21.5488C11.8902 21.2195 11.8902 20.8902 11.8537 20.561C11.8537 20.378 11.8171 20.1585 11.8171 19.9756C11.8171 19.8659 11.8537 19.7561 12 19.7561C12.1098 19.7561 12.1463 19.6463 12.1098 19.6098C11.9634 19.5 12.1098 19.4268 12.1463 19.3537C12.2927 19.1707 12.3659 18.9878 12.4024 18.7317C12.3293 18.8049 12.2561 18.878 12.1829 18.878C12.0732 18.9512 12 18.9512 11.9268 19.061C11.8902 19.1707 11.7805 19.1341 11.7439 19.0244C11.7439 18.9878 11.7439 18.9146 11.7439 18.878C11.7805 18.3293 11.8537 17.8171 11.9634 17.3049C12.0366 17.0122 12.1098 16.7561 12.3659 16.5732C12.4024 16.5366 12.439 16.5 12.439 16.4634C12.4756 16.3171 12.5854 16.2439 12.6951 16.1707C12.8415 16.0976 12.878 15.9878 12.878 15.8415C12.878 15.4756 12.878 15.1463 12.878 14.7805C12.878 14.5976 12.8415 14.4146 12.8415 14.2317C12.8415 13.9756 12.6951 13.7927 12.439 13.6829C12.2927 13.6463 12.2927 13.5732 12.3659 13.5C12.7683 13.1707 13.0244 12.7317 13.2439 12.2561C13.2805 12.1829 13.3171 12.1098 13.3537 12.0732C13.5366 11.8171 13.6463 11.5244 13.7561 11.2683C13.8293 11.0854 13.939 10.939 13.9756 10.7561C13.9756 10.6829 14.0122 10.6098 13.939 10.5732C13.7927 10.4634 13.6829 10.3902 13.5366 10.4268C13.2439 10.4268 12.9878 10.5366 12.7683 10.6829C12.5488 10.7927 12.3293 10.9024 12.1098 11.0122C12.0366 11.0488 11.9634 11.0488 11.8902 11.0122C11.8171 10.9756 11.8537 10.9024 11.8902 10.8293C12.0366 10.3537 12.0366 9.87805 12.0366 9.36585C12.0366 9 12.2195 8.67073 12.439 8.37805C12.5122 8.26829 12.622 8.30488 12.6951 8.26829C12.7317 8.26829 12.7317 8.23171 12.7683 8.23171C12.9878 8.08537 13.0976 7.90244 13.0976 7.64634C13.0976 7.53658 13.1341 7.39024 13.2805 7.35366C13.2073 7.28049 13.0976 7.20732 13.2073 7.13415C13.3537 7.02439 13.3902 6.84146 13.3902 6.69512C13.4268 6.54878 13.4268 6.43902 13.3902 6.29268C13.3537 6.14634 13.2805 6.07317 13.3537 5.92683C13.4268 5.70732 13.3537 5.56098 13.0976 5.56098C12.8415 5.56098 12.5854 5.59756 12.3293 5.59756C12.2195 5.59756 12.1463 5.59756 12.1098 5.4878C12.0366 5.23171 11.8902 5.0122 11.7073 4.82927C11.5244 4.57317 11.3049 4.39024 11.0122 4.2439C10.6098 4.06098 10.1707 3.9878 9.73171 3.84146C9.65854 3.80488 9.58537 3.84146 9.51219 3.87805C9.36585 3.91463 9.21951 3.91463 9.07317 3.91463C9 3.91463 8.96342 3.91463 8.89024 3.95122C8.70732 3.9878 8.52439 4.06098 8.30488 4.09756C8.15854 4.09756 8.04878 4.20732 7.97561 4.31707C7.82927 4.5 7.71951 4.68293 7.5 4.79268C7.2439 4.93902 7.09756 5.26829 7.20732 5.52439C7.35366 6 7.57317 6.40244 8.04878 6.65854C8.12195 6.69512 8.15854 6.76829 8.15854 6.84146C8.15854 7.31707 8.04878 7.68293 7.86585 8.08537C7.86585 8.12195 7.79268 8.19512 7.7561 8.19512C7.2439 8.59756 6.80488 9.07317 6.21951 9.40244C5.89024 9.62195 5.56098 9.87805 5.15854 9.9878C5.12195 9.9878 5.08537 9.9878 5.08537 10.0244C5.08537 10.1707 5.0122 10.3171 5.0122 10.4268C5.0122 10.5732 4.97561 10.6829 4.82927 10.7561C4.68293 10.8659 4.53659 11.0488 4.46341 11.2317C4.35366 11.4146 4.28049 11.561 4.17073 11.7073C4.09756 11.7805 4.02439 11.8537 4.02439 11.9268C4.02439 12.0366 4.13415 12 4.17073 12.0366C4.17073 12.0366 4.17073 12.0732 4.20732 12.0732C4.42683 12.2561 4.64634 12.3659 4.93902 12.3659C5.30488 12.3659 5.70732 12.4024 6.07317 12.2561C6.29268 12.1463 6.58537 12.2561 6.80488 12.1463C6.91463 12.1463 6.95122 12.2195 6.95122 12.3293C6.95122 12.5122 6.91463 12.6951 6.91463 12.878C6.91463 13.2805 6.91463 13.6829 7.20732 14.0488C7.28049 14.122 7.2439 14.1951 7.17073 14.2317C6.65854 14.6341 6.14634 14.9634 5.63415 15.3293C5.19512 15.622 4.7561 15.8415 4.46341 16.2805C4.46341 16.3171 4.39024 16.3171 4.35366 16.3537C4.28049 16.4268 4.20732 16.5 4.13415 16.6098C4.09756 16.7195 4.02439 16.7927 3.98781 16.8659C3.73171 17.1951 3.43902 17.4146 3.14634 17.7073C2.96341 17.8902 2.78049 17.9634 2.52439 18C2.12195 18.0732 1.7561 18.1829 1.35366 18.3293C1.17073 18.3659 1.09756 18.5488 1.02439 18.7317C0.987805 18.8415 0.987805 18.9512 1.09756 18.9878C1.13415 19.0244 1.17073 19.0976 1.17073 19.1341C1.20732 19.2805 1.2439 19.4268 1.28049 19.5732C1.39024 20.0488 1.97561 20.378 2.45122 20.2683C2.63415 20.2317 2.81707 20.122 3 20.0854C3.29268 20.0488 3.40244 19.8659 3.47561 19.6098C3.47561 19.5 3.54878 19.4268 3.65854 19.3537C4.06098 19.0976 4.5 18.878 4.86585 18.5488C5.23171 18.2195 5.59756 17.8902 5.92683 17.561C6.03659 17.4512 6.14634 17.3415 6.29268 17.2683C7.06098 16.939 7.86585 16.5732 8.59756 16.1341C8.67073 16.1341 8.7439 16.0976 8.78049 16.1707C8.81707 16.2073 8.78049 16.2805 8.7439 16.3171C8.59756 16.5366 8.45122 16.7561 8.30488 17.0122C8.0122 17.4878 7.71951 18 7.46341 18.5488C7.31707 18.9146 7.20732 19.3171 7.09756 19.7195C7.02439 19.9756 7.02439 20.2683 6.9878 20.561C6.9878 20.7805 6.95122 20.9634 6.87805 21.1829C6.73171 21.8049 6.58537 22.4268 6.40244 23.0488C6.40244 23.0854 6.36585 23.1585 6.32927 23.1585C6.2561 23.2683 6.2561 23.3415 6.2561 23.4512C6.2561 23.561 6.21951 23.6707 6.10976 23.7439C5.96341 23.8171 5.96341 23.8902 6.07317 23.9634C6.14634 24.0366 6.21951 24.1098 6.2561 24.2561C6.29268 24.439 6.29268 24.6585 6.32927 24.8415C6.36585 25.0244 6.36585 25.1707 6.47561 25.3171C6.58537 25.5 6.54878 25.6098 6.36585 25.6829C6.2561 25.7195 6.14634 25.7561 6.07317 25.8659ZM17.8537 21.4024C17.9268 21.4024 17.9268 21.3293 17.9634 21.2927C18.0366 21.2195 18.1463 21.1098 18.2195 21.0366C18.2927 20.9634 18.3293 20.9268 18.439 21C18.5488 21.0732 18.7683 21 18.8415 20.8537C18.9146 20.6707 18.878 20.561 18.6951 20.4878C18.622 20.4512 18.5854 20.4512 18.5488 20.4146C18.3659 20.378 18.1829 20.3415 18.0732 20.4512C17.9268 20.6341 17.7073 20.7439 17.5244 20.9268C17.4146 21.0366 17.2683 21.1098 17.122 21.1463C16.9024 21.1829 16.6829 21.2561 16.5 21.3659C16.3171 21.439 16.1341 21.4756 15.9512 21.439C15.8415 21.439 15.8049 21.3659 15.878 21.2561C15.9146 21.2195 15.9512 21.1829 15.9878 21.1098C15.9878 21.0366 16.061 21 16.1341 20.9634C16.6098 20.7439 17.0854 20.561 17.5244 20.3415C17.5976 20.3049 17.6707 20.2683 17.7073 20.378C17.7439 20.4146 17.7805 20.4146 17.8171 20.378C17.8537 20.3415 17.8537 20.3415 17.8171 20.3049C17.7439 20.2317 17.8171 20.2317 17.8537 20.1951C17.9268 20.0854 17.9634 20.0854 18.0366 20.0488C18.2927 19.9024 18.5122 19.6829 18.8049 19.5732C18.8415 19.5732 18.9146 19.5366 18.9512 19.4634C18.9878 19.3902 19.061 19.3537 19.1707 19.3171C19.2439 19.3171 19.3171 19.2805 19.3537 19.2439C19.4634 19.2073 19.5 19.0976 19.4268 19.0244C19.3171 18.7683 18.9878 18.7317 18.7683 18.878C18.2561 19.2439 17.7073 19.5366 17.0854 19.7195C16.8293 19.8293 16.5732 19.8659 16.3171 20.0488C16.2439 20.122 16.1341 20.122 16.0244 20.0854C15.9878 20.0854 15.9512 20.0488 15.9512 19.9756C15.9512 19.9024 15.9512 19.7927 15.9146 19.7195C15.9146 19.6098 15.9512 19.5366 16.0244 19.4634C16.3537 19.2439 16.6463 19.0244 16.9024 18.6951C16.9024 18.6951 16.9756 18.6585 17.0122 18.622C17.122 18.5488 17.2317 18.4756 17.3415 18.3659C17.561 18.1829 17.7439 17.9634 18 17.8537C18.2561 17.7439 18.5122 17.6341 18.7683 17.5244C18.9512 17.4512 19.0976 17.3415 19.1707 17.1585C19.2073 17.0488 19.2805 16.9756 19.3537 16.8659C19.4268 16.7561 19.5 16.6829 19.6098 16.6829C19.7561 16.6463 19.8659 16.5 19.8293 16.3902C19.7561 16.1341 19.8293 15.878 19.9756 15.6585C20.122 15.439 20.3049 15.2195 20.4512 14.9634C20.4878 14.8902 20.5244 14.8902 20.5976 14.8902C20.7439 14.8902 20.8537 14.8171 20.9268 14.6707C20.9634 14.5976 21.0366 14.5244 21.0732 14.4512C21.439 14.0122 21.4024 13.1341 21.0732 12.6951C21 12.622 20.9634 12.5122 20.8902 12.439C20.7805 12.2561 20.6341 12.1098 20.4512 12.0732C20.2683 12.0732 20.1585 12 20.0488 11.9268C19.939 11.8537 19.7927 11.8171 19.6829 11.8171C19.3902 11.8171 19.1341 12.1829 19.1341 12.3659C19.0976 12.5488 18.9878 12.6951 18.878 12.8049C18.5488 13.061 18.2195 13.3171 17.7805 13.4268C17.7439 13.4634 17.6707 13.4634 17.5976 13.4268C17.561 13.3537 17.561 13.2805 17.5976 13.2439C17.7439 13.1341 17.7805 12.9512 17.8537 12.8049C17.9634 12.5488 18.1463 12.3293 18.2927 12.0732C18.4024 11.9268 18.439 11.7439 18.5488 11.5976C18.6585 11.5244 18.8049 11.4878 18.8415 11.4146C18.9146 11.2317 19.0976 11.0854 19.2073 10.939C19.3902 10.6829 19.6463 10.6098 19.9024 10.4634C20.0488 10.3902 20.1951 10.3537 20.3415 10.2439C20.4512 10.1707 20.561 10.1341 20.6707 10.0976C21.1098 10.0244 21.5488 9.91463 21.9878 9.76829C22.2073 9.69512 22.3902 9.47561 22.3902 9.2561C22.4268 9 22.5 8.70732 22.5 8.41463C22.5 8.34146 22.5366 8.26829 22.6098 8.23171C22.6829 8.15854 22.7561 8.08537 22.8293 8.04878C22.7561 8.04878 22.7195 8.04878 22.6829 8.04878C22.6098 8.04878 22.5732 8.01219 22.6098 7.93902C22.6463 7.82927 22.7195 7.68293 22.8293 7.60976C22.8659 7.57317 22.939 7.53658 22.939 7.5C22.939 7.28049 23.122 7.17073 23.3049 7.09756C23.4146 7.06098 23.4512 7.02439 23.4512 6.91463C23.4146 6.76829 23.4512 6.65854 23.561 6.54878C23.6707 6.47561 23.7805 6.40244 23.8537 6.32927C23.9268 6.29268 23.9634 6.2561 24 6.14634C23.9268 6.14634 23.8902 6.18293 23.8537 6.21951C23.3049 6.54878 22.7561 6.91463 22.2073 7.31707C22.061 7.42683 22.0244 7.42683 21.9512 7.2439C21.8415 7.02439 21.6585 6.91463 21.439 6.84146C21.2561 6.73171 21.0366 6.69512 20.8537 6.54878C20.7439 6.47561 20.6341 6.43902 20.4878 6.47561C20.3415 6.47561 20.1951 6.51219 20.0488 6.51219C19.939 6.51219 19.8659 6.54878 19.8293 6.65854C19.8293 6.73171 19.7561 6.80488 19.6463 6.76829C19.6098 6.76829 19.5366 6.69512 19.5 6.80488C19.5 6.84146 19.4634 6.91463 19.4634 6.95122C19.5 7.28049 19.3902 7.57317 19.2805 7.82927C19.1707 8.0122 19.061 8.19512 18.9878 8.41463C18.9146 8.67073 18.6951 8.89024 18.6585 9.18293L18.622 9.21951C18.5488 9.36585 18.4756 9.54878 18.4024 9.69512C18.1829 10.1707 17.9268 10.6463 17.6707 11.122C17.6707 11.1585 17.6341 11.2317 17.561 11.1951C17.5244 11.1951 17.561 11.122 17.561 11.0854C17.5976 10.7195 17.7073 10.3902 17.7805 10.061C17.8902 9.73171 17.9634 9.40244 17.9634 9.03658C17.9634 8.92683 17.9634 8.81707 17.9268 8.70732C17.8902 8.56098 17.8902 8.41463 17.9634 8.26829C18.1098 8.04878 18.1098 7.79268 18.0366 7.53658C18.0366 7.39024 17.9634 7.2439 18 7.06098C18 6.9878 17.9634 6.91463 17.9268 6.84146C17.7805 6.51219 17.4878 6.2561 17.3049 5.96341C17.3049 5.96341 17.3049 5.92683 17.2683 5.92683C17.1951 5.85366 17.1951 5.78049 17.1585 5.67073C17.122 5.41463 17.0854 5.12195 17.0488 4.82927C17.0488 4.71951 17.0122 4.60976 17.0854 4.53659C17.1951 4.31707 17.1585 4.09756 17.0488 3.87805C16.9756 3.80488 16.939 3.69512 16.8293 3.69512C16.7195 3.69512 16.5732 3.76829 16.5366 3.87805C16.3902 4.20732 16.2073 4.5 16.1341 4.79268C16.0976 4.90244 16.0244 5.01219 15.9146 5.08537C15.8415 5.12195 15.8049 5.15854 15.7317 5.23171C15.5488 5.34146 15.5854 5.67073 15.2927 5.7439C15.2927 5.7439 15.2927 5.78049 15.2561 5.78049C15.1463 6 15 6.21951 14.8537 6.43902C14.8171 6.51219 14.7805 6.54878 14.8537 6.58537C14.9268 6.62195 14.9268 6.69512 14.8171 6.73171C14.6341 6.84146 14.561 7.09756 14.7073 7.28049C14.7805 7.35366 14.7805 7.42683 14.7073 7.46341C14.5976 7.57317 14.561 7.68293 14.6707 7.79268C14.7073 7.82927 14.7073 7.86585 14.7073 7.93902C14.7073 8.04878 14.7439 8.15854 14.8537 8.23171C14.9268 8.30488 15 8.41463 15 8.56098C15 8.81707 15.1098 9.03658 15.2195 9.2561C15.2927 9.40244 15.3293 9.54878 15.3293 9.73171C15.3293 10.1341 15.3659 10.5 15.439 10.9024C15.4756 11.122 15.5488 11.3049 15.5854 11.5244C15.6585 12 15.6951 12.4756 15.7317 12.9878C15.7683 13.3537 15.7317 13.6829 15.6951 14.0488C15.6951 14.2317 15.5854 14.3049 15.4024 14.2317C15.3293 14.1585 15.2561 14.1951 15.2195 14.2683C15.1829 14.378 15.1098 14.378 15 14.378C14.8902 14.378 14.8537 14.4146 14.8171 14.4878C14.7805 14.5976 14.7805 14.7073 14.8171 14.8171C14.9634 15.0366 14.9268 15.2561 14.7073 15.4024C14.3049 15.7317 14.1951 16.2073 14.2317 16.7561C14.2317 16.939 14.2683 17.122 14.4878 17.2317C14.561 17.2683 14.561 17.3415 14.5976 17.378C14.6341 17.4878 14.7439 17.561 14.8537 17.4878C15.1098 17.378 15.439 17.4146 15.7317 17.3415C15.9878 17.2683 16.2073 17.122 16.4268 16.939C16.6463 16.7561 16.7927 16.5 17.0854 16.4268C17.1951 16.3902 17.3049 16.3171 17.378 16.2439C17.4146 16.2073 17.3049 16.1707 17.3049 16.0976V16.061C17.378 15.8049 17.4146 15.5488 17.6707 15.4024C17.7073 15.3659 17.7805 15.3659 17.7805 15.2561C17.7805 15.1098 17.8902 15 17.9634 14.8902C18.0732 14.8171 18.1829 14.7073 18.2927 14.561C18.4024 14.378 18.5488 14.2683 18.7317 14.1951C18.7683 14.1585 18.8049 14.122 18.878 14.1585C18.9146 14.1951 18.9146 14.2683 18.878 14.3049C18.8049 14.4878 18.7317 14.6707 18.6951 14.8537C18.622 15.1463 18.4756 15.4024 18.4756 15.6951C18.439 16.0244 18.2927 16.2805 18.1829 16.5732C18.1463 16.6463 18.1098 16.6829 18.0366 16.6829C17.9634 16.6829 17.9268 16.7195 17.8902 16.7927C17.8537 16.8659 17.8171 16.9024 17.7439 16.939C17.6707 17.0122 17.561 17.0488 17.4878 17.122C17.0488 17.4878 16.6463 17.8171 16.1707 18.1098C15.9878 18.2195 15.8049 18.3659 15.622 18.4756C15.439 18.5854 15.3293 18.5488 15.2561 18.3659C15.1829 18.2927 15.1463 18.2195 15.1098 18.1098C15 17.8537 14.5976 17.7073 14.378 17.8537C14.3415 17.8902 14.2683 17.8902 14.2683 17.9634C14.1585 18.2195 14.0122 18.5122 14.0488 18.8415C14.0854 18.9512 14.0854 19.0976 14.0488 19.2073C13.9756 19.7927 13.9756 20.4146 13.9756 21.0366C13.9756 21.622 13.9756 22.2073 13.9024 22.7927C13.8659 23.1585 13.7561 23.561 13.7927 23.9634C13.7927 24.1463 13.8659 24.3659 13.8293 24.5488C13.7927 25.0976 14.0488 25.5366 14.2683 26.0122C14.4878 26.4878 14.8902 26.7439 15.2927 27.0366C15.6585 27.3293 16.1341 27.4756 16.5366 27.6951C16.7195 27.7683 16.9024 27.878 17.0854 27.878C17.3049 27.9146 17.561 27.9878 17.8171 28.0244C18.3293 28.1707 18.8415 28.1707 19.3902 28.1707C20.0122 28.2073 20.561 27.9512 21.1463 27.8415C21.3659 27.8049 21.5854 27.7317 21.8049 27.6951C22.061 27.622 22.3171 27.5854 22.5366 27.439C22.6829 27.3293 22.7927 27.2561 22.9756 27.2195C23.0488 27.2195 23.122 27.1829 23.1951 27.1098C23.378 27 23.561 26.8537 23.7439 26.7439C23.8171 26.7073 23.9268 26.6707 23.9268 26.5244C23.9268 26.4878 23.9634 26.4512 24 26.4512C24.0366 26.4512 24.0732 26.4146 24.1098 26.378C24.2561 26.1951 24.5122 26.0488 24.4756 25.7561C24.4756 25.7195 24.5122 25.6829 24.5122 25.6463C24.5488 25.6098 24.5488 25.5366 24.5854 25.4634C24.5854 25.1707 24.6951 25.0976 24.9878 25.061C25.0244 25.061 25.061 25.061 25.1341 25.061C25.2073 25.061 25.2805 25.0244 25.2439 24.9146C25.2073 24.7317 25.2439 24.5488 25.2805 24.4024C25.2805 24.2927 25.3171 24.1829 25.2805 24.0732C25.1707 23.7439 25.0244 23.4878 25.061 23.1585V23.122C24.878 22.939 24.7317 22.6829 24.439 22.6463C24.3659 22.6463 24.2927 22.6098 24.2195 22.5732C24.0732 22.3171 23.8537 22.0976 23.7073 21.8415C23.5976 21.6585 23.5244 21.439 23.3049 21.3659C23.2683 21.3659 23.2683 21.3293 23.2683 21.2927C23.122 21 22.9756 20.7439 22.8659 20.4512C22.6463 19.7927 22.5366 19.1341 22.5366 18.4756C22.5366 18.0366 22.5 17.5976 22.6098 17.1951C22.7561 16.6829 22.7927 16.1341 22.9756 15.5854C22.9756 15.5488 22.9756 15.5122 22.9756 15.5122C22.8293 15.3659 22.8659 15.1829 22.8659 15C22.8659 14.8171 22.7195 14.7805 22.6829 14.6707C22.6829 14.6341 22.6463 14.6707 22.6463 14.7073C22.5732 14.8902 22.4634 14.8537 22.3902 14.7439C22.3537 14.8537 22.3902 14.9268 22.3902 15C22.3902 15.0366 22.3902 15.0732 22.3902 15.1098C22.2439 15.2927 22.1707 15.4756 22.2805 15.6951C22.2805 15.7317 22.2805 15.7683 22.2805 15.8049C22.2439 15.9146 22.1707 16.061 22.2805 16.1707C22.2805 16.1707 22.2805 16.2073 22.2805 16.2439C22.1341 16.7195 21.9878 17.1951 21.9146 17.7073C21.8415 18.1098 21.7683 18.5488 21.7317 19.0244C21.6951 19.3902 21.622 19.8293 21.6585 20.2317C21.6585 20.2683 21.6585 20.3415 21.5854 20.3415C21.5122 20.3415 21.4756 20.3049 21.4756 20.2317C21.4756 20.1951 21.439 20.1585 21.439 20.122C21.439 19.8293 21.3659 19.5366 21.439 19.2439C21.439 19.2073 21.439 19.1341 21.439 19.0976C21.439 19.061 21.3659 19.0244 21.3659 19.061C21.3293 19.1707 21.2195 19.2439 21.2561 19.3171C21.2927 19.4634 21.1829 19.5732 21.1829 19.7195C21.1829 19.7561 21.1463 19.7927 21.1098 19.7561C21.0732 19.7561 21.0366 19.7195 21.0366 19.6829C21.0732 19.5732 21.0732 19.4634 21.0732 19.3537C21.0732 19.1341 21.0732 18.878 21.0732 18.6951C21.0732 18.7317 21.0366 18.8415 21.0366 18.9146C21.0366 19.1707 21 19.4634 20.9634 19.7561C20.8902 20.4512 20.9268 21.1463 20.9634 21.8415C20.9634 22.0976 21 22.3171 21.0732 22.5732C21.1463 22.7561 21.1463 22.939 21.1098 23.122C21.0732 23.2683 21.0732 23.4146 21.1098 23.5244C21.1463 23.7073 21.1098 23.8902 20.9634 24C20.7073 24.2195 20.4512 24.4024 20.122 24.5122C19.4634 24.6585 18.8415 24.7317 18.1829 24.8049C17.378 24.878 16.6098 24.7317 15.9512 24.2561C15.8049 24.1463 15.6585 24.0732 15.5488 23.9268C15.4024 23.7439 15.439 23.6341 15.6585 23.5976C15.9146 23.5244 16.1707 23.4878 16.3902 23.4146C16.5 23.378 16.6463 23.378 16.7561 23.3049C17.0488 23.0854 17.4146 23.0488 17.7439 22.9756C18 22.9024 18.2561 22.939 18.5122 22.9024C18.6951 22.9024 18.9146 22.9756 19.0976 22.8659C19.1341 22.8293 19.2073 22.8659 19.2439 22.7927C19.2439 22.7561 19.1707 22.7195 19.1341 22.6829C18.9512 22.4268 18.6951 22.4268 18.4024 22.3537C18.3659 22.3537 18.3293 22.3537 18.3293 22.3537C18.3293 22.5 18.1463 22.5 18.0732 22.6098C17.9634 22.7561 17.7805 22.7927 17.5976 22.8293C17.3415 22.8659 17.0488 22.9756 16.7561 22.9024C16.5 22.8659 16.2805 22.8659 16.0244 22.8659C15.8415 22.9024 15.6585 22.9024 15.4756 22.9024C15.3293 22.9024 15.2927 22.8293 15.3659 22.7195C15.439 22.6098 15.5122 22.5 15.622 22.4268C15.9146 22.2805 16.2439 22.0976 16.5366 21.9512C16.7561 21.8415 16.939 21.6951 17.1585 21.5854C17.3415 21.439 17.6341 21.439 17.7805 21.1829C17.7805 21.1463 17.8537 21.1463 17.8902 21.1463C17.9268 21.1829 17.8902 21.2195 17.8902 21.2561C17.8537 21.2927 17.8171 21.3659 17.8537 21.4024ZM21.6951 0H21.9512C21.9878 0.0731707 21.9146 0.109756 21.9146 0.182927C21.9878 0.47561 21.7683 0.548781 21.5854 0.658537C21.4756 0.695122 21.3659 0.695122 21.2927 0.731707C21.1463 0.804878 21 0.841463 20.9268 0.987805C20.8902 1.06098 20.8171 1.09756 20.8902 1.13415C20.9268 1.17073 20.9634 1.13415 21 1.09756C21.1463 0.987805 21.2927 0.878049 21.4756 0.841463C21.6951 0.804878 21.9146 0.658537 22.1341 0.585366C22.1707 0.585366 22.2073 0.54878 22.2073 0.47561C22.1341 0.512195 22.0976 0.512195 22.061 0.548781C22.0244 0.548781 21.9878 0.585366 21.9512 0.548781C21.9146 0.512195 21.9512 0.47561 21.9878 0.439024C22.0244 0.365854 22.0976 0.329268 22.1341 0.256098C22.2805 0.0731707 22.4268 0.109756 22.5732 0.292683C22.6463 0.402439 22.6098 0.439024 22.5366 0.512195C22.3902 0.585366 22.2805 0.695122 22.1341 0.768293C22.0976 0.804878 22.061 0.804878 22.0976 0.878049C22.1341 0.914634 22.1341 0.951219 22.2073 0.951219C22.3537 0.878049 22.3902 0.987805 22.3902 1.09756C22.3902 1.2439 22.4268 1.2439 22.5366 1.17073C22.6463 1.09756 22.7561 1.02439 22.9024 1.02439C22.9756 1.02439 23.0854 1.02439 23.122 1.09756C23.122 1.20732 23.0488 1.28049 22.9756 1.31707C22.8659 1.39024 22.7561 1.39024 22.6463 1.39024C22.5366 1.39024 22.3902 1.42683 22.3171 1.5C22.2439 1.5 22.2073 1.53659 22.2439 1.60976C22.3171 1.64634 22.3537 1.68293 22.2805 1.71951C22.2439 1.79268 22.1707 1.90244 22.1341 1.86585C21.9878 1.79268 21.878 1.90244 21.7683 1.90244C21.622 1.90244 21.5488 1.97561 21.4756 2.08537C21.4024 2.15854 21.4024 2.26829 21.3659 2.34146C21.3659 2.37805 21.3293 2.41463 21.3293 2.45122C21.3659 2.4878 21.4024 2.45122 21.439 2.41463C21.6585 2.30488 21.8415 2.15854 22.061 2.0122C22.4268 1.7561 22.8293 1.53659 23.2317 1.28049C23.4878 1.13415 23.7073 0.914634 24 0.914634C24.0366 0.914634 24.0732 0.878049 24.0732 0.878049C24.1463 0.841463 24.2195 0.841463 24.2927 0.841463C24.622 0.841463 24.9146 0.914634 25.1707 1.09756C25.2439 1.17073 25.3537 1.20732 25.4268 1.17073C25.6463 1.09756 25.8659 1.17073 26.122 1.20732C26.3415 1.2439 26.5244 1.28049 26.5976 1.57317C26.6707 1.93902 26.8537 2.26829 26.8902 2.67073C26.9634 3 27 3.29268 27.0732 3.62195C27.1829 4.06098 27.0732 4.53659 27.0732 5.0122C27.0732 5.30488 27.0732 5.59756 27.0732 5.89024C27.0732 6.47561 27.0732 7.09756 27.0366 7.68293C27.0366 7.86585 26.9634 8.01219 27 8.15854C27.0732 8.41463 27.0366 8.67073 27 8.89024C27 8.96341 26.9634 9 27 9.07317C27.0732 9.32927 27.0366 9.62195 27 9.87805C27 10.1707 26.9634 10.4268 27 10.7195C27.0366 11.0488 27 11.378 27 11.7073C27 12.1829 26.9634 12.6585 27.0732 13.1341C27.0732 13.2073 27.0732 13.2805 27.0732 13.3537C27.0366 13.5732 26.9634 13.7561 27 13.9756C27.0366 14.5244 27.0366 15.0732 27.0732 15.6585C27.1098 16.6098 27.0366 17.561 27.1098 18.5122C27.1098 18.5854 27.1098 18.6585 27.1098 18.7317C27.0366 19.3171 27.0732 19.9024 27.0732 20.4878C27.0732 20.8537 27.0366 21.2195 27.0366 21.5854C27.0732 22.1707 26.9268 22.7195 27.0366 23.3049C27.0366 23.3415 27.0366 23.378 27.0366 23.378C26.9268 23.5976 27 23.8537 27 24.0732C26.9634 24.7317 27 25.3537 26.9634 26.0122C26.9634 26.2683 26.9634 26.5244 27.0366 26.7805C27.1098 27 27.0732 27.2195 27.1098 27.4756C27.1098 27.5854 27.1098 27.7317 27.0366 27.8049C26.9268 27.9512 26.8171 28.0976 26.7439 28.2805C26.6707 28.4634 26.6341 28.6463 26.6341 28.8293C26.6707 29.0122 26.6707 29.1951 26.6707 29.4146C26.6707 29.7805 26.4512 30.0732 26.122 30.1829C26.0122 30.2195 25.9024 30.2195 25.7927 30.2195C25.6098 30.1829 25.4268 30.1098 25.2073 30.1463C24.9146 30.1829 24.6585 30.1463 24.4024 30.1098C24.2561 30.1098 24.1463 30.1463 24 30.1829C23.8537 30.2195 23.8537 30.2927 23.8171 30.4024C23.8171 30.439 23.7805 30.439 23.7805 30.4756C23.5976 30.622 23.4878 30.8415 23.3049 30.9878C23.0488 31.2073 22.8659 31.4634 22.9024 31.8293C22.939 32.1951 22.6829 32.378 22.4634 32.5976C22.4268 32.6341 22.3537 32.6341 22.3171 32.6341C22.1707 32.5976 22.061 32.6707 21.9146 32.6707C21.8049 32.6707 21.6951 32.7073 21.5854 32.6707C21.439 32.5976 21.2927 32.561 21.1463 32.561C20.8537 32.561 20.5244 32.5976 20.2317 32.561C20.0122 32.5244 19.8293 32.4146 19.6098 32.4512C19.4268 32.4512 19.2805 32.378 19.0976 32.3415C18.878 32.2683 18.6585 32.0854 18.4024 32.0854C18.2195 32.0854 18.0366 32.0488 17.8537 32.1219C17.4878 32.2683 17.0854 32.378 16.6463 32.3049C16.5 32.2317 16.2805 32.2317 16.061 32.1951C15.8049 32.122 15.5854 32.0122 15.4024 31.8293C15.4024 31.7561 15.3659 31.7195 15.2927 31.7195C15.1463 31.6829 15 31.5732 14.8171 31.5732C14.6707 31.5732 14.6341 31.4268 14.5244 31.4268C14.2317 31.4268 13.939 31.4268 13.6829 31.4268C13.5732 31.4268 13.5 31.4634 13.5732 31.6098C13.6098 31.7195 13.5366 31.7927 13.4634 31.8659C13.3902 31.939 13.3171 31.8659 13.2439 31.8659C13.0976 31.8659 12.9878 31.7927 12.9878 31.6463C12.9878 31.6098 12.9512 31.5732 12.9512 31.5732C12.9512 31.5366 12.9146 31.5 12.878 31.5366C12.8415 31.5732 12.8415 31.5732 12.878 31.6098C12.9146 31.6463 12.9146 31.7195 12.878 31.7561C12.878 31.7927 12.8049 31.7927 12.7683 31.7927C12.622 31.7927 12.5488 31.6463 12.4756 31.5C12.5122 31.6829 12.4024 31.7561 12.2927 31.7927C12.1463 31.7927 12.2195 31.6463 12.1463 31.5366C12.0732 31.7561 12.0366 31.7927 11.8537 31.6463C11.8171 31.6463 11.8171 31.6098 11.7805 31.6463C11.7073 31.6829 11.6707 31.6463 11.6341 31.5732C11.5976 31.5 11.561 31.3902 11.4512 31.4268C11.3049 31.5 11.0854 31.3902 10.939 31.5366H10.9024C10.8293 31.4634 10.7195 31.4634 10.6098 31.4268C10.4634 31.3902 10.3537 31.4268 10.2439 31.5366C10.1707 31.6098 10.1341 31.6463 10.061 31.7195C9.91463 31.8659 9.73171 31.939 9.58537 31.9024C9.21951 31.8293 8.89024 31.8293 8.56098 31.8293C8.26829 31.8293 7.97561 31.8293 7.68293 31.7927C7.53659 31.7561 7.53659 31.8293 7.53659 31.939C7.53659 32.0122 7.57317 32.122 7.57317 32.1951C7.57317 32.2683 7.57317 32.3415 7.46341 32.3415C7.35366 32.3415 7.39024 32.2317 7.39024 32.1585C7.39024 32.0488 7.42683 31.939 7.42683 31.8293C7.42683 31.7927 7.42683 31.7195 7.39024 31.7561C7.35366 31.7927 7.31707 31.7561 7.2439 31.7561C7.09756 31.6829 7.06098 31.7195 7.02439 31.8659C6.9878 32.0488 6.84146 32.1585 6.73171 32.3049C6.69512 32.3415 6.65854 32.3049 6.62195 32.3049C6.5122 32.2683 6.47561 32.3049 6.47561 32.4146C6.47561 32.561 6.43902 32.7073 6.5122 32.8171C6.54878 32.8902 6.5122 33 6.43902 33C6.36585 33 6.21951 33.0366 6.18293 32.8537C6.18293 32.8171 6.18293 32.7805 6.21951 32.7439C6.36585 32.6707 6.32927 32.5244 6.32927 32.378C6.32927 32.2683 6.21951 32.3049 6.14634 32.3049C5.85366 32.2317 5.59756 32.1585 5.30488 32.2317C5.08537 32.2683 4.82927 32.2683 4.60976 32.1951C4.31707 32.122 3.9878 32.0488 3.69512 31.939C3.32927 31.7927 2.89024 31.7195 2.4878 31.6463C2.37805 31.6098 2.23171 31.5732 2.15854 31.5C2.0122 31.4268 1.93902 31.2805 1.97561 31.0976C2.0122 30.878 1.82927 30.7317 1.68293 30.5854C1.57317 30.5122 1.42683 30.5122 1.35366 30.622C1.31707 30.6585 1.28049 30.6585 1.2439 30.6585C1.20732 30.6585 1.20732 30.5854 1.20732 30.5488C1.20732 30.3293 1.20732 30.3293 0.987805 30.3659C0.768293 30.439 0.621951 30.2927 0.439024 30.2561C0.402439 30.2561 0.365854 30.1829 0.365854 30.1463C0.365854 29.9634 0.292683 29.8171 0.292683 29.6707C0.292683 28.8293 0.256098 27.9878 0.256098 27.1098C0.256098 25.9756 0.146341 24.878 0.109756 23.7439C0.0365854 23.0488 0 22.3537 0 21.622C0 20.122 0 18.622 0.0731707 17.0854C0.0731707 16.7927 0.146341 16.5366 0.439024 16.4268C0.47561 16.4268 0.47561 16.4268 0.47561 16.3902C0.951219 15.9512 1.57317 15.6585 2.08537 15.3293C2.12195 15.3293 2.12195 15.2927 2.15854 15.2927C2.19512 15.2927 2.23171 15.2561 2.23171 15.2195C1.86585 15.3659 1.46341 15.5854 1.09756 15.8049C1.06098 15.8415 1.02439 15.878 0.987805 15.9146C0.987805 15.9146 0.95122 15.9146 0.914634 15.9146C0.878049 15.878 0.914634 15.878 0.914634 15.8415C0.95122 15.8049 0.95122 15.8049 0.987805 15.7683C1.02439 15.7317 1.06098 15.7317 1.06098 15.6951C1.06098 15.6585 1.02439 15.6585 0.987805 15.6585C0.95122 15.6585 0.878049 15.622 0.878049 15.6951C0.841463 15.878 0.695122 15.878 0.548781 15.9146C0.512195 15.9146 0.439024 15.9512 0.439024 16.0244C0.439024 16.1341 0.365854 16.1341 0.292683 16.1341C0.146341 16.0976 0.146341 15.9878 0.146341 15.878C0.146341 14.8902 0.182927 13.9024 0.182927 12.9146C0.182927 11.1951 0.219512 9.47561 0.146341 7.71951C0.146341 7.28049 0.146341 6.84146 0.109756 6.40244C0.109756 5.19512 0 3.9878 0 2.7439C0 2.56098 0 2.37805 0.146341 2.23171C0.292683 2.12195 0.402439 1.90244 0.658537 1.97561C0.658537 1.97561 0.695122 1.97561 0.731707 1.93902C0.914634 1.90244 1.09756 1.86585 1.28049 1.86585C1.42683 1.86585 1.53659 1.79268 1.57317 1.68293C1.57317 1.60976 1.64634 1.53659 1.71951 1.46341C1.79268 1.42683 1.86585 1.39024 1.93902 1.31707C1.97561 1.28049 2.0122 1.2439 2.08537 1.2439C2.34146 1.28049 2.59756 1.20732 2.81707 1.20732C3.10976 1.20732 3.36585 1.20732 3.65854 1.09756C3.69512 1.06098 3.76829 1.06098 3.84146 1.06098C4.13415 1.13415 4.42683 1.06098 4.71951 1.13415C5.0122 1.20732 5.30488 1.13415 5.59756 1.17073C5.78049 1.20732 6 1.13415 6.18293 1.17073C6.36585 1.20732 6.5122 1.20732 6.69512 1.20732C6.95122 1.20732 7.20732 1.13415 7.46341 1.2439C7.60976 1.28049 7.79268 1.28049 7.93902 1.2439C8.04878 1.20732 8.15854 1.17073 8.23171 1.31707C8.23171 1.35366 8.26829 1.35366 8.30488 1.31707C8.34146 1.28049 8.34146 1.28049 8.30488 1.2439C8.23171 1.17073 8.30488 1.09756 8.37805 1.06098C8.41463 1.02439 8.41463 1.02439 8.41463 0.987805C8.41463 0.951219 8.37805 0.951219 8.34146 0.951219C8.30488 0.951219 8.23171 0.987805 8.23171 0.914634C8.23171 0.878049 8.26829 0.841463 8.30488 0.804878C8.41463 0.695122 8.56098 0.695122 8.67073 0.658537C8.96341 0.548781 9.2561 0.54878 9.51219 0.585366C9.73171 0.621951 9.91463 0.621951 10.1341 0.585366C10.3537 0.54878 10.5366 0.512195 10.7561 0.47561C10.9756 0.47561 11.1951 0.512195 11.378 0.439024C11.4146 0.439024 11.4512 0.439024 11.4878 0.439024C11.5976 0.439024 11.7073 0.47561 11.8171 0.402439C12.0732 0.329268 12.2927 0.292683 12.5488 0.292683C12.8049 0.292683 13.061 0.292683 13.3171 0.365854C13.3902 0.402439 13.4634 0.365854 13.5366 0.365854C13.9756 0.292683 14.378 0.182927 14.8171 0.329268C14.8537 0.329268 14.8537 0.329268 14.8902 0.329268C15.0366 0.292683 15.2195 0.329268 15.3659 0.256098C15.5122 0.182927 15.6585 0.256098 15.7683 0.219512C16.0976 0.109756 16.3537 0.292683 16.5732 0.47561C16.7561 0.621951 16.6829 0.841463 16.6463 1.02439C16.6463 1.06098 16.6463 1.06098 16.6098 1.09756C16.5366 1.35366 16.6098 1.42683 16.8659 1.39024C16.9024 1.39024 16.939 1.39024 16.9756 1.39024C17.122 1.31707 17.3049 1.31707 17.3415 1.13415C17.378 0.841463 17.561 0.695122 17.7805 0.621951C18.0732 0.512195 18.3659 0.292683 18.6951 0.402439C18.7317 0.402439 18.7317 0.402439 18.7683 0.402439C18.8049 0.402439 18.8415 0.365854 18.878 0.402439C18.9146 0.439024 18.878 0.47561 18.878 0.512195C18.9146 0.585366 18.8415 0.658537 18.8049 0.731707C19.0244 0.731707 19.0976 0.658537 19.0244 0.47561C19.0244 0.402439 19.061 0.365854 19.1341 0.365854C19.3171 0.329268 19.5 0.256098 19.6829 0.219512C20.0122 0.146341 20.378 0.0365854 20.7073 0.109756C20.9634 0.146341 21.2195 0.0731707 21.5122 0.0731707C21.5854 0.0731707 21.6585 0.0365854 21.6951 0Z" fill="black"/>
<path d="M10.4265 10.9398C10.4265 11.3057 10.3533 11.635 10.2435 12.0008C10.1704 12.2935 9.95086 12.4398 9.69477 12.5862C9.54842 12.6594 9.43867 12.7325 9.29233 12.8057C9.21915 12.8423 9.14598 12.8423 9.1094 12.7325C8.99964 12.3667 8.92647 12.0374 9.18257 11.6715C9.43867 11.2691 9.76794 10.9764 9.98745 10.574C10.024 10.4642 10.1338 10.4276 10.207 10.3545C10.3167 10.2813 10.3899 10.3179 10.3899 10.4276C10.3899 10.574 10.4265 10.7569 10.4265 10.9398Z" fill="black"/>
<path d="M9.51203 17.8171C9.32911 17.8171 9.14618 17.8903 8.92667 17.8903C8.89008 17.8903 8.81691 17.9269 8.81691 17.8537C8.78033 17.8171 8.81691 17.7805 8.8535 17.7439C8.99984 17.4513 9.29252 17.2683 9.43886 16.9756C9.54862 16.7561 9.76813 16.683 9.98764 16.5732C10.0974 16.5366 10.134 16.6098 10.0974 16.683C10.0242 16.9391 9.98764 17.1586 9.98764 17.4147C9.95106 17.8537 9.95106 17.8171 9.51203 17.8171Z" fill="black"/>
</g>
<defs>
<clipPath id="clip0">
<rect width="27.1098" height="33" fill="white"/>
</clipPath>
</defs>
</svg>
