<svg width="91" height="30" viewBox="0 0 91 30" fill="none" xmlns="http://www.w3.org/2000/svg">
<g clip-path="url(#clip0)">
<path d="M73.1818 24.3561H82.6136L76.553 6.43939C76.25 5.7197 75.5682 5.22727 74.7348 5.22727C73.9015 5.22727 73.2197 5.7197 72.9167 6.43939L65.6061 27.9167H62.6894H51.0227C47.0833 27.9167 43.9015 24.7348 43.9015 20.8333V9.58333C43.9015 5.68182 47.0833 2.5 50.9848 2.5H62.6894V6.06061H51.0227C49.053 6.06061 47.5 7.65152 47.5 9.58333V20.8333C47.5 22.803 49.0909 24.3939 51.0606 24.3939H59.1667V14.7727H52.6894V11.25H62.7273V25.4545L69.4318 5.83333C70.0758 3.67424 72.2348 2.08333 74.8106 2.08333C77.3485 2.08333 79.5076 3.67424 80.1894 5.83333L87.6515 27.9167H73.2955V24.3561H73.1818ZM70.6439 27.9167H66.4773L73.6364 6.81818C73.7879 6.36364 74.2045 6.06061 74.7348 6.06061C75.2273 6.06061 75.6818 6.40152 75.8333 6.81818L81.5152 23.5606H73.2197V20.4167L70.6439 27.9167ZM42.5379 6.06061H30.4924C28.5227 6.06061 26.9318 7.65152 26.9318 9.54545V20.8333C26.9318 22.8409 28.5227 24.3939 30.4924 24.3939H42.5V27.9167H30.4924C26.553 27.9167 23.3712 24.7348 23.3712 20.8333V9.58333C23.3712 5.68182 26.553 2.5 30.4924 2.5H42.5379V6.06061ZM32.1591 20H42.5V23.5227H30.4924C29.0152 23.5227 27.803 22.3106 27.803 20.8333V15.6061H40V19.1288H31.3258C31.3258 20 32.1591 20 32.1591 20ZM42.5379 10.4167H32.1591C31.3258 10.4167 31.3258 11.25 31.3258 11.25H40V14.7727H27.803V9.58333C27.803 8.06818 29.0152 6.85606 30.4924 6.85606H42.5379V10.4167ZM51.8182 19.1667C51.8182 19.6212 52.197 20 52.6515 20H54.7348V19.1667H52.6515V15.6061H58.2955V23.5227H50.9848C49.5076 23.5227 48.2955 22.3106 48.2955 20.7955V9.58333C48.2955 8.06818 49.5076 6.85606 50.9848 6.85606H62.6515V10.3788H52.6515C51.8182 10.4167 51.8182 11.2121 51.8182 11.2121V19.1667ZM13.3712 27.9167H2.08333V24.3561H13.3712C16.0227 24.3561 18.1439 22.197 18.1439 19.5833C18.1439 16.9697 16.0227 14.8106 13.3712 14.8106L10.4167 14.7727C8.2197 14.7727 6.47727 12.9924 6.47727 10.8333C6.47727 8.67424 8.25758 6.89394 10.4167 6.89394H21.7045V10.4167H10.4167C10.1894 10.4167 10 10.6061 10 10.8333C10 11.0606 10.1894 11.25 10.4167 11.25H13.3333C17.9545 11.25 21.7045 15 21.7045 19.5833C21.7424 24.2045 17.9924 27.9167 13.3712 27.9167ZM13.3333 20C13.5606 20 13.75 19.8106 13.75 19.5833C13.75 19.3561 13.5606 19.1667 13.3333 19.1667H10.4167C5.79545 19.1667 2.04545 15.4545 2.04545 10.8333C2.04545 6.21212 5.79545 2.5 10.4167 2.5H21.7045V6.06061H10.4167C7.76515 6.06061 5.64394 8.18182 5.64394 10.8333C5.64394 13.4848 7.80303 15.6061 10.4167 15.6061L13.3712 15.6439C15.5682 15.6439 17.3106 17.4242 17.3106 19.5833C17.3106 21.7803 15.5303 23.5227 13.3712 23.5227H2.08333V20H13.3333ZM81.8939 4.58333C80.7197 1.89394 77.9924 0 74.7348 0C71.4773 0 68.7121 1.9697 67.5758 4.65909L64.7348 12.9545V0.454545H50.947C48.447 0.454545 46.2121 1.43939 44.5833 3.0303V0.454545H30.4545C27.8409 0.454545 25.4545 1.59091 23.7879 3.33333V0.416667H10.4924C4.77273 0.416667 0.0378788 4.88636 0.0378788 10.8333C0.0378788 13.5606 1.25 16.0606 2.99242 17.9167H0V30H13.4091C17.1591 30 20.9091 27.7273 22.197 25L22.2348 24.8864C23.75 27.9167 26.8561 30 30.4924 30H44.5833V27.3864C46.25 29.0152 48.5227 30 50.9848 30H90.4167L81.8939 4.58333Z" fill="black"/>
<path d="M73.4473 19.6218H75.9473L74.7351 15.9097L73.4473 19.6218Z" fill="black"/>
</g>
<defs>
<clipPath id="clip0">
<rect width="90.4167" height="30" fill="white"/>
</clipPath>
</defs>
</svg>
