<svg width="247" height="33" viewBox="0 0 247 33" fill="none" xmlns="http://www.w3.org/2000/svg">
<g clip-path="url(#clip0)">
<path d="M0 0.601562H20.3725V4.40195H12.3882V25.7791H7.98424V4.40195H0V0.601562Z" fill="black"/>
<path d="M21.2283 0.601562H25.2521V9.94417H25.3154C25.8224 9.12076 26.5511 8.42402 27.5333 7.88563C28.5155 7.31557 29.5927 7.06221 30.7967 7.06221C32.7928 7.06221 34.3769 7.56893 35.5175 8.61404C36.6581 9.65914 37.2601 11.211 37.2601 13.2695V25.7791H33.2363V14.3146C33.2046 12.8895 32.8878 11.8444 32.3175 11.1793C31.7472 10.5459 30.8601 10.1975 29.6878 10.1975C28.9907 10.1975 28.3887 10.3242 27.8501 10.5776C27.2798 10.8309 26.8363 11.1793 26.4561 11.6227C26.0758 12.0344 25.7907 12.5728 25.5689 13.1428C25.3471 13.7446 25.2521 14.3463 25.2521 15.0113V25.7791H21.2283V0.601562Z" fill="black"/>
<path d="M42.963 17.7036C42.963 18.4003 43.0581 19.097 43.2482 19.7621C43.4383 20.4272 43.7551 20.9972 44.1353 21.4723C44.5472 21.979 45.0541 22.359 45.6561 22.6441C46.2581 22.9291 46.9868 23.0875 47.8423 23.0875C49.0146 23.0875 49.9651 22.8341 50.6938 22.3274C51.4225 21.8207 51.9611 21.0606 52.3096 20.0471H56.1117C55.8899 21.0289 55.5414 21.9157 55.0027 22.6757C54.4958 23.4675 53.8621 24.1326 53.1334 24.6709C52.4047 25.1777 51.6126 25.5894 50.6938 25.8427C49.775 26.1278 48.8561 26.2544 47.8423 26.2544C46.4165 26.2544 45.1492 26.0327 44.0402 25.5577C42.9313 25.0827 42.0125 24.4176 41.2521 23.5942C40.4917 22.7391 39.9214 21.7256 39.5095 20.5539C39.0976 19.3821 38.9392 18.0836 38.9392 16.6585C38.9392 15.36 39.1293 14.1249 39.5412 12.9848C39.9531 11.8446 40.5551 10.7995 41.3155 9.91279C42.0759 9.02603 42.9947 8.32929 44.0719 7.82258C45.1492 7.31586 46.3848 7.0625 47.7472 7.0625C49.173 7.0625 50.472 7.34753 51.6126 7.94926C52.7532 8.55098 53.7037 9.34273 54.4641 10.3245C55.2245 11.3063 55.7631 12.4464 56.1117 13.7132C56.4602 14.98 56.5552 16.3101 56.3651 17.6719H42.963V17.7036ZM52.3413 15.0433C52.3096 14.4099 52.1512 13.8082 51.9294 13.2065C51.7077 12.6047 51.3908 12.098 51.0106 11.6863C50.6304 11.2429 50.1552 10.8946 49.5849 10.6412C49.0462 10.3562 48.4126 10.2295 47.7472 10.2295C47.0502 10.2295 46.4165 10.3562 45.8145 10.6095C45.2442 10.8312 44.769 11.1796 44.3571 11.623C43.9452 12.0663 43.6284 12.5731 43.3749 13.1431C43.1214 13.7448 42.9947 14.3782 42.963 15.0433H52.3413Z" fill="black"/>
<path d="M69.1967 17.3868C69.1967 18.3685 69.3551 19.1603 69.7036 19.857C70.0204 20.5537 70.4957 21.0921 71.066 21.5355C71.668 21.9789 72.3333 22.2956 73.0937 22.4856C73.8541 22.6756 74.6779 22.7706 75.5651 22.7706C76.5156 22.7706 77.3393 22.644 78.0364 22.4223C78.7017 22.2006 79.272 21.9155 79.6839 21.5672C80.0958 21.2188 80.4126 20.8071 80.6027 20.3637C80.7928 19.9203 80.8879 19.4453 80.8879 18.9702C80.8879 18.0202 80.6661 17.2917 80.2225 16.8484C79.779 16.3733 79.3037 16.0566 78.7968 15.8666C77.9096 15.5499 76.8641 15.2332 75.6918 14.9482C74.4878 14.6631 73.0304 14.2831 71.2878 13.8081C70.2422 13.4914 69.3234 13.143 68.6264 12.6679C67.8977 12.1929 67.3274 11.6862 66.9155 11.1478C66.5036 10.5777 66.1867 9.97601 66.0283 9.34261C65.8382 8.70921 65.7749 8.04415 65.7749 7.41075C65.7749 6.14395 66.0283 5.03551 66.5669 4.11708C67.1056 3.19866 67.8026 2.40691 68.6581 1.80518C69.5135 1.20345 70.5274 0.760077 71.6363 0.443378C72.6819 0.158349 73.8225 0 74.9314 0C76.2621 0 77.4978 0.158349 78.6384 0.506718C79.8106 0.855086 80.8245 1.3618 81.7117 2.02687C82.5988 2.72361 83.2958 3.54702 83.8028 4.56046C84.3097 5.5739 84.5949 6.71401 84.5949 8.04415H80.1908C80.0641 6.42898 79.5255 5.28887 78.5433 4.59213C77.5611 3.92706 76.2938 3.57869 74.773 3.57869C74.266 3.57869 73.7274 3.64203 73.1888 3.73704C72.6502 3.83205 72.1432 4.02207 71.6997 4.27543C71.2561 4.52879 70.8759 4.84549 70.5908 5.28887C70.3056 5.73225 70.1472 6.23896 70.1472 6.87236C70.1472 7.75912 70.4323 8.45585 70.9709 8.96257C71.5096 9.46929 72.2383 9.84933 73.1254 10.1027C73.2205 10.1344 73.6007 10.2294 74.2344 10.3877C74.868 10.5461 75.5967 10.7678 76.3888 10.9578C77.1809 11.1795 77.973 11.3695 78.7334 11.5912C79.4938 11.7812 80.0324 11.9395 80.381 12.0345C81.2047 12.2879 81.9334 12.6363 82.5354 13.0797C83.1374 13.523 83.6444 14.0298 84.0562 14.5998C84.4681 15.1699 84.8166 15.8349 85.0067 16.5C85.1968 17.1651 85.2919 17.8301 85.2919 18.4635C85.2919 19.8887 85.0067 21.0921 84.4364 22.0739C83.8661 23.0557 83.1057 23.8791 82.1552 24.5125C81.2047 25.1459 80.1592 25.6209 78.9552 25.906C77.7512 26.191 76.5472 26.3493 75.2799 26.3493C73.8541 26.3493 72.4918 26.1593 71.2244 25.8109C69.9571 25.4626 68.8482 24.9242 67.8977 24.1958C66.9471 23.4674 66.2184 22.5489 65.6481 21.4088C65.0778 20.2687 64.7927 18.9386 64.761 17.3868H69.1967Z" fill="black"/>
<path d="M95.4311 26.2543C93.9737 26.2543 92.6747 26.0009 91.5341 25.5259C90.3935 25.0508 89.443 24.3858 88.6509 23.5307C87.8588 22.6756 87.2568 21.6622 86.8449 20.4904C86.433 19.3186 86.2429 18.0201 86.2429 16.595C86.2429 15.2015 86.433 13.9347 86.8449 12.7629C87.2568 11.5912 87.8588 10.5777 88.6509 9.72263C89.443 8.86755 90.3935 8.20248 91.5341 7.72743C92.6747 7.25238 93.9737 6.99902 95.4311 6.99902C96.8886 6.99902 98.1876 7.25238 99.3282 7.72743C100.469 8.20248 101.419 8.86755 102.211 9.72263C103.003 10.5777 103.605 11.5912 104.017 12.7629C104.429 13.9347 104.619 15.2332 104.619 16.595C104.619 18.0201 104.429 19.2869 104.017 20.4904C103.605 21.6938 103.003 22.6756 102.211 23.5307C101.419 24.3858 100.469 25.0508 99.3282 25.5259C98.1876 26.0009 96.8886 26.2543 95.4311 26.2543ZM95.4311 23.0873C96.3183 23.0873 97.1104 22.8973 97.744 22.5173C98.4094 22.1372 98.948 21.6622 99.3599 21.0288C99.7718 20.427 100.089 19.7303 100.279 18.9702C100.469 18.2102 100.564 17.4184 100.564 16.6267C100.564 15.8349 100.469 15.0748 100.279 14.3148C100.089 13.523 99.7718 12.8579 99.3599 12.2562C98.948 11.6545 98.4094 11.1794 97.744 10.7994C97.0787 10.4194 96.3183 10.2293 95.4311 10.2293C94.544 10.2293 93.7519 10.4194 93.1182 10.7994C92.4529 11.1794 91.9143 11.6545 91.5024 12.2562C91.0905 12.8579 90.7737 13.5547 90.5836 14.3148C90.3935 15.0748 90.2984 15.8666 90.2984 16.6267C90.2984 17.4184 90.3935 18.2102 90.5836 18.9702C90.7737 19.7303 91.0905 20.427 91.5024 21.0288C91.9143 21.6305 92.4529 22.1372 93.1182 22.5173C93.7519 22.8973 94.544 23.0873 95.4311 23.0873Z" fill="black"/>
<path d="M106.393 7.53755H110.195V10.2295L110.259 10.2928C110.892 9.27939 111.684 8.48764 112.667 7.91759C113.649 7.34753 114.758 7.0625 115.962 7.0625C117.958 7.0625 119.542 7.56922 120.683 8.61432C121.823 9.65943 122.425 11.2113 122.425 13.2698V25.7794H118.401V14.3149C118.37 12.8898 118.053 11.8446 117.483 11.1796C116.912 10.5462 116.025 10.1978 114.853 10.1978C114.156 10.1978 113.554 10.3245 113.015 10.5779C112.477 10.8312 112.001 11.1796 111.653 11.5913C111.273 12.0347 110.987 12.5414 110.766 13.1114C110.544 13.7132 110.449 14.3149 110.449 14.98V25.7477H106.425V7.53755H106.393Z" fill="black"/>
<path d="M141.847 24.8293C141.847 27.5846 141.087 29.6431 139.534 30.9732C137.982 32.3034 135.764 33.0001 132.881 33.0001C131.962 33.0001 131.043 32.9051 130.124 32.7151C129.206 32.5251 128.35 32.2084 127.59 31.765C126.829 31.3216 126.196 30.7199 125.657 29.9915C125.15 29.2631 124.833 28.3763 124.738 27.2995H128.762C128.889 27.8696 129.079 28.313 129.364 28.6614C129.649 29.0097 129.966 29.2947 130.378 29.4848C130.758 29.6748 131.202 29.8015 131.677 29.8648C132.152 29.9281 132.627 29.9598 133.166 29.9598C134.782 29.9598 135.986 29.5481 136.715 28.7564C137.443 27.9646 137.824 26.8562 137.824 25.336V22.5491H137.76C137.19 23.5625 136.429 24.3542 135.447 24.9243C134.465 25.4944 133.419 25.7794 132.279 25.7794C130.821 25.7794 129.586 25.526 128.572 25.0193C127.558 24.5126 126.703 23.8159 126.037 22.9291C125.372 22.0423 124.865 21.0289 124.58 19.8888C124.263 18.7487 124.136 17.5136 124.136 16.1834C124.136 14.9483 124.326 13.8082 124.707 12.6997C125.087 11.5913 125.625 10.6412 126.322 9.78611C127.019 8.93102 127.907 8.29762 128.92 7.79091C129.934 7.28419 131.107 7.0625 132.406 7.0625C133.546 7.0625 134.623 7.31586 135.574 7.79091C136.524 8.26595 137.285 9.02603 137.792 10.0711H137.855V7.53755H141.879V24.8293H141.847ZM132.913 22.6124C133.8 22.6124 134.56 22.4224 135.194 22.074C135.827 21.694 136.334 21.2189 136.715 20.6172C137.095 20.0155 137.38 19.3504 137.57 18.5587C137.76 17.7986 137.824 17.0385 137.824 16.2468C137.824 15.455 137.728 14.7266 137.538 13.9982C137.348 13.2698 137.063 12.6364 136.683 12.0663C136.303 11.4963 135.796 11.0529 135.162 10.7362C134.528 10.4195 133.8 10.2295 132.913 10.2295C132.025 10.2295 131.265 10.4195 130.663 10.7995C130.061 11.1796 129.554 11.6546 129.174 12.2564C128.794 12.8581 128.54 13.5232 128.35 14.3149C128.16 15.1066 128.097 15.8351 128.097 16.5951C128.097 17.3552 128.192 18.0836 128.382 18.812C128.572 19.5404 128.857 20.1738 129.237 20.7439C129.617 21.3139 130.124 21.7573 130.726 22.1057C131.36 22.4224 132.089 22.6124 132.913 22.6124Z" fill="black"/>
<path d="M161.459 26.2543C160.002 26.2543 158.703 26.0009 157.562 25.5259C156.422 25.0508 155.471 24.3858 154.679 23.5307C153.887 22.6756 153.285 21.6622 152.873 20.4904C152.461 19.3186 152.271 18.0201 152.271 16.595C152.271 15.2015 152.461 13.9347 152.873 12.7629C153.285 11.5912 153.887 10.5777 154.679 9.72263C155.471 8.86755 156.422 8.20248 157.562 7.72743C158.703 7.25238 160.002 6.99902 161.459 6.99902C162.917 6.99902 164.216 7.25238 165.356 7.72743C166.497 8.20248 167.447 8.86755 168.239 9.72263C169.032 10.5777 169.634 11.5912 170.045 12.7629C170.457 13.9347 170.647 15.2332 170.647 16.595C170.647 18.0201 170.457 19.2869 170.045 20.4904C169.634 21.6938 169.032 22.6756 168.239 23.5307C167.447 24.3858 166.497 25.0508 165.356 25.5259C164.216 26.0009 162.917 26.2543 161.459 26.2543ZM161.459 23.0873C162.346 23.0873 163.138 22.8973 163.772 22.5173C164.437 22.1372 164.976 21.6622 165.388 21.0288C165.8 20.427 166.117 19.7303 166.307 18.9702C166.497 18.2102 166.592 17.4184 166.592 16.6267C166.592 15.8349 166.497 15.0748 166.307 14.3148C166.117 13.523 165.8 12.8579 165.388 12.2562C164.976 11.6545 164.437 11.1794 163.772 10.7994C163.107 10.4194 162.346 10.2293 161.459 10.2293C160.572 10.2293 159.78 10.4194 159.146 10.7994C158.481 11.1794 157.942 11.6545 157.53 12.2562C157.119 12.8579 156.802 13.5547 156.612 14.3148C156.422 15.0748 156.326 15.8666 156.326 16.6267C156.326 17.4184 156.422 18.2102 156.612 18.9702C156.802 19.7303 157.119 20.427 157.53 21.0288C157.942 21.6305 158.481 22.1372 159.146 22.5173C159.78 22.8973 160.54 23.0873 161.459 23.0873Z" fill="black"/>
<path d="M171.218 7.53726H174.228V6.01711C174.228 4.87699 174.354 3.9269 174.64 3.23016C174.925 2.50175 175.305 1.96337 175.78 1.58333C176.255 1.20329 176.794 0.949931 177.396 0.791582C177.998 0.664902 178.632 0.601562 179.297 0.601562C180.596 0.601562 181.515 0.696572 182.117 0.854921V3.99024C181.863 3.9269 181.578 3.86356 181.293 3.83189C180.945 3.80022 180.596 3.76855 180.216 3.76855C179.677 3.76855 179.202 3.89523 178.822 4.14859C178.442 4.40195 178.251 4.90866 178.251 5.66874V7.53726H181.673V10.5459H178.251V25.7791H174.228V10.5459H171.218V7.53726Z" fill="black"/>
<path d="M192.762 0.601562H197.166V21.9787H209.966V25.7791H192.762V0.601562Z" fill="black"/>
<path d="M211.804 0.601562H215.828V4.40195H211.804V0.601562ZM211.804 7.53726H215.828V25.7791H211.804V7.53726Z" fill="black"/>
<path d="M217.634 7.53726H220.644V6.01711C220.644 4.87699 220.771 3.9269 221.056 3.23016C221.341 2.50175 221.721 1.96337 222.197 1.58333C222.672 1.20329 223.211 0.949931 223.812 0.791582C224.414 0.664902 225.048 0.601562 225.713 0.601562C227.013 0.601562 227.931 0.696572 228.533 0.854921V3.99024C228.28 3.9269 227.995 3.86356 227.71 3.83189C227.424 3.80022 227.076 3.76855 226.664 3.76855C226.125 3.76855 225.65 3.89523 225.27 4.14859C224.89 4.40195 224.636 4.90866 224.636 5.66874V7.53726H228.058V10.5459H224.636V25.7791H220.612V10.5459H217.603V7.53726H217.634Z" fill="black"/>
<path d="M232.621 17.7036C232.621 18.4003 232.716 19.097 232.906 19.7621C233.096 20.4272 233.413 20.9972 233.793 21.4723C234.205 21.979 234.712 22.359 235.314 22.6441C235.916 22.9291 236.644 23.0875 237.5 23.0875C238.672 23.0875 239.623 22.8341 240.351 22.3274C241.08 21.8207 241.619 21.0606 241.967 20.0471H245.769C245.547 21.0289 245.199 21.9157 244.66 22.6757C244.153 23.4675 243.52 24.1009 242.791 24.6393C242.062 25.1777 241.238 25.5577 240.351 25.8427C239.432 26.1278 238.514 26.2544 237.5 26.2544C236.074 26.2544 234.807 26.0327 233.698 25.5577C232.589 25.0827 231.67 24.4176 230.91 23.5942C230.149 22.7391 229.579 21.7256 229.199 20.5539C228.818 19.3821 228.628 18.0836 228.628 16.6585C228.628 15.36 228.819 14.1249 229.23 12.9848C229.642 11.8446 230.244 10.7995 231.005 9.91279C231.765 9.02603 232.684 8.32929 233.761 7.82258C234.838 7.31586 236.074 7.0625 237.436 7.0625C238.862 7.0625 240.161 7.34753 241.302 7.94926C242.442 8.55098 243.393 9.34273 244.153 10.3245C244.914 11.3063 245.452 12.4464 245.801 13.7132C246.149 14.98 246.213 16.3101 246.054 17.6719H232.621V17.7036ZM241.999 15.0433C241.967 14.4099 241.809 13.8082 241.587 13.2065C241.365 12.6047 241.048 12.098 240.668 11.6863C240.288 11.2429 239.813 10.8946 239.242 10.6412C238.704 10.3562 238.07 10.2295 237.405 10.2295C236.708 10.2295 236.074 10.3562 235.472 10.6095C234.87 10.8629 234.395 11.2113 233.983 11.623C233.571 12.0663 233.254 12.5731 233.001 13.1431C232.747 13.7132 232.621 14.3782 232.589 15.0433H241.999Z" fill="black"/>
</g>
<defs>
<clipPath id="clip0">
<rect width="246.086" height="33" fill="white"/>
</clipPath>
</defs>
</svg>
