<?xml version="1.0" encoding="utf-8"?>
<!-- Generator: Adobe Illustrator 24.2.1, SVG Export Plug-In . SVG Version: 6.00 Build 0)  -->
<svg version="1.1" id="Layer_1" xmlns="http://www.w3.org/2000/svg" xmlns:xlink="http://www.w3.org/1999/xlink" x="0px" y="0px"
	 viewBox="0 0 298 108" style="enable-background:new 0 0 298 108;" xml:space="preserve">
<path d="M200,8.4V8.3h-37.5V0.1h-26.4v8.2H88.2V0H62.3v8.3H40.8V0H15.1v8.2H3.9v24.4l8,6.1h4.2c-3.2,3.5-7,6.7-11.3,9.5L0,51.5
	L1.8,57l3.3,10.2l3.1,9.7l6.8-4.4v28.4l8,6.1h22V84.6h16.9V101l8,6.1h136l8-6.1V78.7h10.8V107h52.8l8-6.1h0.1V38.7h3.5l8-6.1V8.4
	H200z M252.8,38.7h6.6v38.4h-6.6V38.7z M80.5,93.2H70.4V68.4H58.1v8.4h-9.7V58.6l-5.7,5.1c-2.5-3.4-5.7-7.3-9.5-11.8v41.3h-10V56.5
	c-3.4,3.3-6.8,6.1-10.3,8.3L9.4,54.6C20.9,47,29.1,37.1,34,24.9H12V16h11.1V7.7h10V16h11.2v8.9c-2.3,6.3-5,11.9-8.1,16.9
	c4.6,5,8.7,9.8,12.2,14.4V16.1h22V7.7h10.1V16h22v60.8h-10v-8.4h-12V93.2z M206.2,93.2H92.5v-8.4h51.6v-8H113v-8.2h31.2V56.9L113,59
	v-7.9l12.5-1.1c0,0,3.8-7.6,6.1-12.2H113v-3.5h-2.6V16.1h33.7V7.8h10.7V16h33.6v18.3H186v3.5h-11.6c5.6,6.1,10.9,12.5,16,19.1
	l-8.8,4.4c-0.7-1-1.8-2.3-3.2-4.1c-1.4-1.8-2.2-2.8-2.5-3.1c-8.9,0.8-15.9,1.5-21,1.9v12.3H186v8.2h-31.1v8h51.3V93.2z M215.8,70.6
	L215.8,70.6l-9.7-0.1v6.1h-9.7V15.8h48.8v60.9h-10v-6.1H215.8z M289.3,24.4h-11.4v68.8h-43v-8.4h32.6V24.4H253v-8.2h36.3V24.4z
	 M92.5,46.2h-12v13.9h12V46.2z M58.1,60.1h12.3V46.2H58.1V60.1z M58.1,37.8h12.3V24.7H58.1V37.8z M92.5,24.7h-12v13.1h12V24.7z
	 M206.1,62.1h9.7v-15h-9.7V62.1z M235.4,47.1h-9.7v15.1h9.7V47.1z M235.4,24.1h-9.7v15h9.7V24.1z M206.1,39.1h9.7v-15h-9.7V39.1z
	 M182.2,23.8h-65.3V30h65.3V23.8z M162.2,37.9h-19.8c-2.7,5.6-4.7,9.3-5.9,11.4c13.1-0.8,24.3-1.7,33.4-2.5
	C166.5,42.8,163.9,39.9,162.2,37.9z"/>
</svg>
