<svg width="82" height="27" viewBox="0 0 82 27" fill="none" xmlns="http://www.w3.org/2000/svg">
<g clip-path="url(#clip0)">
<path d="M64.3358 17.9399C64.1211 17.9399 63.9065 17.9399 63.6918 17.9703C63.6612 17.9703 63.6305 18.0008 63.5998 18.0312C63.5078 18.1528 63.3852 18.1832 63.2625 18.2136C63.1705 18.2136 63.1092 18.2744 63.0172 18.3352C62.8332 18.4568 62.6799 18.6089 62.4652 18.6697C62.0665 18.7913 61.6679 18.9433 61.3306 19.1562C60.9319 19.3994 60.5026 19.5514 60.1039 19.7339C60.0426 19.7643 59.9813 19.7643 59.9813 19.8555C60.0119 19.9163 60.0733 19.8555 60.1346 19.9163C59.8279 20.0379 59.5213 20.1595 59.2453 20.2812C59.092 20.342 58.908 20.4028 58.7546 20.494C58.6626 20.5548 58.54 20.6156 58.724 20.7372C58.7546 20.7676 58.7853 20.798 58.7546 20.8285C58.6626 20.8893 58.5706 20.9805 58.448 20.9805C58.2947 20.9805 58.172 21.0413 58.0187 21.1021C57.988 21.1325 57.9267 21.1629 57.9573 21.2237C57.988 21.2845 58.0493 21.2541 58.08 21.2541C58.264 21.1933 58.448 21.1021 58.6013 21.0413C59.9813 20.5548 61.3612 20.0987 62.6492 19.369C62.9252 19.217 63.2318 19.1258 63.5078 18.9737C63.9065 18.7305 64.2745 18.4568 64.6425 18.2136C64.7344 18.1528 64.7958 18.092 64.7958 17.9399C64.6424 18.0008 64.4891 17.9399 64.3358 17.9399Z" fill="black"/>
<path d="M71.8806 10.7942C71.8499 10.6421 71.7886 10.4901 71.6046 10.4293C71.3286 10.3381 71.114 10.2469 70.8073 10.3381C70.6233 10.3989 70.47 10.4293 70.4393 10.6421C70.4087 10.8246 70.2553 10.9462 70.194 11.159C70.3167 11.1286 70.2553 11.007 70.378 11.0374C70.4087 11.1286 70.378 11.1894 70.378 11.2806C70.378 11.4327 70.2553 11.5543 70.194 11.6759C70.1633 11.7367 70.1327 11.8279 70.1633 11.9192C70.194 11.9496 70.2247 11.9496 70.286 11.9496C70.378 11.8888 70.47 11.8583 70.47 11.7367C70.47 11.7063 70.47 11.6759 70.47 11.6759C70.4393 11.6151 70.4393 11.5543 70.5313 11.5239C70.562 11.5239 70.5927 11.4935 70.6233 11.5239C70.654 11.5847 70.6233 11.6455 70.5927 11.7063C70.5007 11.9496 70.378 12.1928 70.286 12.4665C70.2553 12.5273 70.2247 12.6185 70.3167 12.6793C70.4087 12.7401 70.47 12.7097 70.562 12.6489C70.654 12.5577 70.7767 12.5273 70.8993 12.5273C71.1446 12.4665 71.3593 12.3752 71.6046 12.3448C71.6353 12.3448 71.6966 12.3144 71.6966 12.284C71.7886 12.1928 71.8806 12.1624 72.0033 12.132C72.2179 12.0712 72.2486 12.0104 72.1873 11.7975C72.0339 11.4023 71.9113 11.1286 71.8806 10.7942Z" fill="black"/>
<path d="M76.8475 16.5715C76.9395 16.8148 77.0008 17.058 77.1235 17.2709C77.1848 17.3621 77.2155 17.4837 77.2155 17.6053C77.2155 17.9702 77.3995 18.3047 77.5221 18.6695C77.5221 18.7303 77.5835 18.7607 77.6141 18.7303C77.6755 18.6999 77.6448 18.6695 77.6448 18.6087C77.6141 18.3959 77.5528 18.2134 77.5221 18.0006C77.5835 17.9398 77.7061 18.0918 77.6755 17.9398C77.6141 17.6661 77.5835 17.3621 77.3995 17.1493C77.2768 16.9972 77.1848 16.8452 77.1235 16.6628C77.0928 16.5715 77.0621 16.5107 77.0008 16.4195C76.9702 16.3587 76.9395 16.2371 76.8475 16.2675C76.7555 16.2979 76.7862 16.4195 76.7862 16.5107C76.8475 16.5411 76.8475 16.5411 76.8475 16.5715Z" fill="black"/>
<path d="M22.7535 14.291C22.6615 14.291 22.6615 14.3822 22.6615 14.443C22.6309 14.7471 22.5082 15.0512 22.4162 15.3552C22.3855 15.5072 22.3242 15.6593 22.3242 15.8113C22.3242 15.9633 22.4162 16.0241 22.5695 15.9937C22.6922 15.9633 22.8149 15.9329 22.9375 15.9025C23.0602 15.8721 23.0909 15.8113 23.0909 15.6897C22.9989 15.264 22.9375 14.8687 22.8455 14.443C22.8455 14.3822 22.8455 14.291 22.7535 14.291Z" fill="black"/>
<path d="M38.1476 15.233C38.5769 15.1722 38.9449 14.929 39.4049 14.9898C39.6502 15.0202 39.8955 14.8986 40.1408 14.8378C40.2022 14.8378 40.2942 14.8378 40.2635 14.7466C40.2328 14.6553 40.1408 14.7161 40.0795 14.7161C39.8648 14.7466 39.6195 14.777 39.3435 14.777C39.2515 14.777 39.1902 14.777 39.0982 14.7466C38.9449 14.6553 39.0982 14.8986 38.9755 14.8682C38.9449 14.8682 38.9449 14.8682 38.9142 14.8682C38.8222 14.8682 38.7302 14.8986 38.6689 14.8986C38.4236 14.8682 38.2396 14.9594 38.0556 15.0202C37.9636 15.0506 37.7489 15.0506 37.7796 15.1722C37.8716 15.3243 38.0249 15.233 38.1476 15.233Z" fill="black"/>
<path d="M81.1411 8.72663C80.5277 8.54419 79.1171 8.42257 78.8105 8.45298C78.7185 8.45298 78.5958 8.48338 78.5038 8.48338C78.3198 8.48338 78.2892 8.42257 78.3811 8.27055C78.4731 8.14892 78.4118 8.11852 78.3198 8.11852C78.2892 8.11852 78.2278 8.11852 78.1972 8.11852C77.7985 8.24014 77.2159 8.17933 76.8172 7.96649C76.7252 7.93609 76.6639 7.87527 76.5719 7.84487C75.8972 7.48 74.9466 6.9023 74.9466 6.9023C74.8853 6.8719 74.7933 6.84149 74.7319 6.84149C73.6586 6.53744 72.5547 6.3246 71.42 6.17257C70.8681 6.08136 70.3161 6.14217 69.7641 6.29419C68.9361 6.50703 68.2921 6.96311 67.8628 7.72325C67.5255 8.30095 67.4028 8.96987 67.3415 9.60838C67.3108 9.94284 67.2802 10.2773 67.0962 10.5814C66.8202 10.9766 66.5749 11.4023 66.3295 11.828C66.2375 12.0408 66.0229 12.0104 65.9002 11.828C65.8389 11.7064 65.8082 11.5847 65.7776 11.4327C65.6856 10.9766 65.5936 10.4901 65.4402 10.0341C65.1029 9.18271 64.4896 8.63541 63.6003 8.45298C63.4163 8.42257 63.2323 8.36176 63.0483 8.39217C62.711 8.45298 62.343 8.42257 62.0057 8.48338C61.5457 8.5746 61.0857 8.63541 60.6257 8.66582C60.1657 8.69622 59.7364 8.84825 59.2764 8.90906C58.9085 8.96987 58.5098 9.03068 58.1418 9.06109C57.8658 9.06109 57.5592 9.09149 57.2832 9.1219C56.7619 9.1523 56.2099 9.24352 55.6886 9.30433C55.0446 9.39555 54.4313 9.54757 53.8179 9.6996C53.2353 9.82122 52.6833 10.0341 52.1313 10.2165C51.8553 10.3381 51.518 10.3685 51.2727 10.1557C51.0274 9.94284 50.874 9.63879 50.9047 9.33473C50.9047 9.06109 50.874 8.78744 50.8434 8.51379C50.8434 8.33136 50.8434 8.14892 50.782 7.9969C50.5367 7.41919 50.2607 6.9023 49.7394 6.50703C49.6474 6.44622 49.5554 6.41582 49.4634 6.50703C49.2488 6.71987 49.0034 6.9023 48.8808 7.17595C48.6355 7.66244 48.5741 8.17933 48.5128 8.72663C48.4515 9.21311 48.4821 9.6996 48.3288 10.1557C48.2368 10.4293 48.2061 10.7334 48.0528 10.9766C47.8381 11.3111 47.6235 11.2503 47.5008 11.007C47.2862 10.6422 47.1328 10.2773 46.9488 9.88203C46.7035 9.33473 46.3662 8.84825 45.8142 8.54419C45.1702 8.17933 44.4036 8.24014 43.8209 8.63541C43.269 9.00027 42.9623 9.54757 42.717 10.1253C42.5023 10.5814 42.349 11.0678 42.1037 11.4935C41.981 11.7064 41.8277 11.828 41.5824 11.828C41.3677 11.828 41.1837 11.7672 40.9997 11.7064C40.601 11.5543 40.2331 11.4327 39.8651 11.4327C39.2518 11.4023 38.6384 11.4935 38.0251 11.4327C37.7185 11.4023 37.5038 11.2503 37.4425 10.9462C37.3812 10.6118 37.3198 10.2773 37.3198 9.91244C37.3505 9.36514 37.3505 8.78744 37.3505 8.24014C37.3505 8.05771 37.3812 7.87528 37.4118 7.72325C37.5038 7.08473 37.7185 6.47663 37.9945 5.89892C38.1785 5.56446 38.2705 5.16919 38.2091 4.77392C38.1171 3.95298 37.6265 3.34487 36.9212 2.91919C36.3999 2.58473 35.8172 2.34149 35.2346 2.12865C34.3759 1.855 33.5786 1.55095 32.6586 1.58136C32.1987 1.58136 31.7387 1.58136 31.3094 1.67257C30.7574 1.79419 30.2054 1.94622 29.7147 2.25028C28.9174 2.73676 28.5494 3.46649 28.5188 4.34825C28.5188 4.80433 28.7028 5.23001 28.9481 5.62528C29.0401 5.7469 29.1014 5.86852 29.1628 5.99014C29.5614 6.78068 29.7761 7.63203 29.9294 8.48338C30.0214 8.96987 30.1134 9.45636 30.1441 9.91244C30.1747 10.4901 30.2054 11.0374 30.1747 11.5543C30.1747 11.7976 30.1441 12.0408 30.0827 12.2841C29.9907 12.6489 29.8067 12.9226 29.4387 13.0746C29.2241 13.1962 28.9788 13.1962 28.7334 13.1962C28.4574 13.1962 28.2735 13.0746 28.1201 12.8618C27.8748 12.5273 27.8135 12.132 27.7215 11.7672C27.5681 11.3111 27.5068 10.8246 27.3228 10.3685C26.9548 9.42595 26.1269 8.84825 25.1149 8.81784C24.5629 8.81784 24.0723 8.96987 23.5509 9.09149C22.8763 9.27392 22.2323 9.57798 21.5883 9.91244C21.0364 10.2165 20.5764 10.6118 20.239 11.1287C19.9017 11.6455 19.6871 12.2232 19.5031 12.8314C19.3497 13.3787 19.1964 13.9564 18.9511 14.5037C18.7364 15.0205 18.3991 15.4158 17.8165 15.5678C17.2031 15.7199 16.9272 15.5678 16.8045 14.9293C16.7125 14.5341 16.6205 14.1388 16.4365 13.7739C16.3138 13.5003 16.2525 13.2266 16.2218 12.9226C16.1912 12.5273 16.4058 12.1928 16.5592 11.8888C16.9578 11.1591 17.3871 10.4597 17.8471 9.76041C18.1844 9.27392 18.5831 8.81784 19.1351 8.48338C19.7177 8.14892 20.239 7.78406 20.7297 7.35838C21.343 6.81109 22.0177 6.29419 22.6616 5.7469C22.999 5.50365 23.3363 5.23001 23.5509 4.89555C23.9189 4.31784 24.0416 3.74014 23.8883 3.07122C23.6736 2.06784 23.1216 1.30771 22.2016 0.790815C21.619 0.486761 21.0057 0.36514 20.331 0.425951C19.8711 0.425951 19.4111 0.517167 18.9511 0.638788C18.0311 0.882032 17.1725 1.15568 16.4058 1.64217C15.9765 1.88541 15.6392 2.18946 15.3019 2.52392C15.0259 2.85838 14.7806 3.22325 14.5046 3.55771C14.0139 4.16582 13.5233 4.80433 13.0019 5.41244C12.6953 5.7469 12.3886 6.08136 12.0206 6.3246C11.5913 6.62865 11.2233 6.59825 10.886 6.23338C10.5487 5.83811 10.1807 5.47325 9.84338 5.10838C9.50606 4.74352 9.23007 4.37865 9.01541 3.92257C8.92341 3.67933 8.89275 3.40568 9.07674 3.19284C9.1994 3.04082 9.3834 2.91919 9.59806 2.82798C10.0274 2.61514 10.518 2.67595 10.9473 2.55433C11.07 2.52392 11.162 2.58473 11.254 2.64555C11.438 2.73676 11.53 2.88879 11.714 2.98C11.99 3.10163 12.358 3.07122 12.5113 2.91919C12.726 2.70636 12.7566 2.25028 12.6033 2.03744C12.3886 1.76379 12.082 1.73338 11.7753 1.76379C11.4993 1.79419 11.2847 1.76379 11.1007 1.55095C10.9473 1.36852 10.7327 1.2469 10.5487 1.09487C9.99671 0.669194 9.32207 0.486761 8.64742 0.36514C7.75812 0.243518 6.83815 0.243518 5.94884 0.0914911C5.48886 0.0306803 5.02887 -0.0301305 4.56889 0.000274922C4.13957 0.0610857 3.67958 -0.0301305 3.25027 0.0306803C2.66762 0.0914911 2.08497 0.213113 1.53299 0.456356C1.13433 0.638788 0.827677 0.912437 0.582352 1.2469C0.0303701 2.06784 -0.122958 2.98 0.0917014 3.95298C0.275695 4.71311 0.643683 5.38203 1.257 5.89892C1.99297 6.53744 2.69828 7.23676 3.28093 7.9969C3.74092 8.60501 4.17024 9.21311 4.63022 9.79082C5.33553 10.6422 5.94884 11.5239 6.62349 12.4057C7.11414 13.0138 7.54346 13.6827 7.97278 14.3516C8.2181 14.7165 8.4021 15.1118 8.46343 15.5678C8.52476 16.0847 8.49409 16.6016 8.43276 17.1489C8.34077 17.8787 8.24877 18.6084 8.15677 19.3685C8.03411 20.2199 7.85011 21.0712 7.69679 21.8922C7.60479 22.3482 7.51279 22.8043 7.48213 23.2908C7.45146 23.5949 7.48213 23.8989 7.45146 24.203C7.45146 24.5678 7.54346 24.9023 7.66612 25.2672C7.91145 25.9665 8.46343 26.4226 9.1994 26.605C9.90471 26.7874 10.61 26.6962 11.3153 26.5138C11.8367 26.3618 12.3273 26.2097 12.818 25.9969C13.3393 25.7841 13.7993 25.5104 14.1979 25.1455C14.5659 24.7807 14.8419 24.355 15.0872 23.8989C15.2099 23.6861 15.3019 23.4428 15.4859 23.2908C15.5779 23.1996 15.7005 23.1692 15.8232 23.23C16.0072 23.3212 16.1912 23.382 16.3752 23.4732C16.7738 23.6557 17.2031 23.8077 17.6325 23.7773C18.0924 23.7469 18.5524 23.7165 19.0431 23.5645C19.9017 23.2908 20.607 22.8347 21.159 22.1658C21.435 21.8618 21.6497 21.5273 21.987 21.2841C22.2016 21.132 22.355 21.132 22.5083 21.3449C22.8763 21.8314 23.0603 22.3787 23.3669 22.8955C23.7349 23.5341 24.1949 24.1422 24.8696 24.507C25.4829 24.8415 26.0962 25.0239 26.8015 25.0239C27.3535 25.0239 27.8748 24.9023 28.3654 24.6895C28.8868 24.4462 29.2547 24.051 29.5921 23.5949C29.8374 23.2604 30.1134 23.0172 30.5427 23.0172C30.88 23.0172 31.248 23.0476 31.5853 23.1084C31.8307 23.1388 32.0453 23.1388 32.2907 23.1388C32.6586 23.1388 32.996 23.0172 33.364 22.8955C34.0386 22.6827 34.5292 22.2266 34.8972 21.6489C35.0506 21.4057 35.2039 21.1928 35.3879 21.0104C35.5105 20.8888 35.6332 20.828 35.8172 20.8584C35.9705 20.8888 36.0932 20.9496 36.2465 21.0104C36.7985 21.3145 37.2892 21.7401 37.8718 22.0442C38.4545 22.3482 39.0678 22.5915 39.7117 22.7131C40.0491 22.7739 40.3557 22.8347 40.693 22.8651C40.9384 22.8651 41.1837 22.8955 41.3984 22.8955C41.889 22.8651 42.349 22.7739 42.7783 22.5915C42.9316 22.5307 43.1156 22.4699 43.2996 22.4395C43.6983 22.3787 44.0663 22.5307 44.4036 22.6523C45.0782 22.926 45.7835 23.1996 46.5195 23.2908C46.6729 23.3212 46.8568 23.2908 47.0102 23.3212C47.3475 23.3516 47.6542 23.3212 47.9608 23.23C48.5741 23.078 49.0648 22.8043 49.5554 22.4395C49.9541 22.1658 50.3834 22.1354 50.8127 22.2874C51.0274 22.3787 51.242 22.4699 51.4874 22.5611C52.2233 22.8955 52.9593 23.1996 53.7566 23.3516C53.7566 23.3516 55.6272 23.4124 57.6512 22.8347C59.6751 22.257 61.2697 21.5273 61.3004 21.5273C61.975 21.1928 62.6497 20.828 63.3856 20.5543C63.815 20.4023 64.1523 20.5239 64.3363 20.9496C64.4589 21.1928 64.5203 21.4665 64.6123 21.7097C64.7656 22.105 64.9189 22.5003 65.2256 22.8043C65.6549 23.23 66.1456 23.5645 66.8202 23.5037C67.2188 23.4732 67.5562 23.4124 67.8935 23.1692C68.3841 22.8043 68.6601 22.3482 68.8748 21.801C69.1814 21.0104 69.3961 20.1895 69.6414 19.3989C69.7948 18.8516 69.9481 18.2739 70.1628 17.757C70.3467 17.3314 70.6227 16.9969 71.0214 16.7537C71.3894 16.5408 71.7574 16.6016 71.972 16.9665C72.156 17.2401 72.2787 17.5138 72.3707 17.8178C72.5853 18.4564 72.8 19.0949 72.8307 19.7638C72.8307 19.8246 72.8 19.9766 72.892 19.9766C72.984 20.007 73.0147 19.855 73.076 19.7942C73.1067 19.7638 73.1067 19.7334 73.1373 19.7334C73.1987 19.6422 73.26 19.6726 73.26 19.7638C73.2906 20.0374 73.3213 20.2807 73.2293 20.5543C72.9533 21.1928 72.6467 21.801 72.432 22.4395C72.432 22.4699 72.3707 22.5307 72.432 22.5611C72.4933 22.5915 72.524 22.5307 72.524 22.5003C72.6773 22.2874 72.8307 22.105 72.9533 21.8922C72.984 21.8618 72.984 21.801 73.076 21.801C73.1067 21.8618 73.0453 21.8922 73.0453 21.9226C72.4013 23.1084 71.7267 24.2638 71.0827 25.4496C70.8374 25.9057 70.6534 26.3618 70.5001 26.8178C70.4694 26.8482 70.4694 26.9091 70.5001 26.9395C70.5614 26.9699 70.5921 26.9395 70.6227 26.9091C70.6534 26.8787 70.6534 26.8482 70.6841 26.8482C70.9907 26.3922 71.2974 25.9361 71.604 25.48C71.8494 25.1455 72.064 24.7807 72.3093 24.4462C72.1867 24.7807 72.0334 25.0847 71.8494 25.3888C71.788 25.48 71.7574 25.6016 71.7267 25.6928C71.696 25.7537 71.6654 25.8145 71.7267 25.8449C71.788 25.8753 71.788 25.8145 71.8494 25.7841C71.972 25.6624 72.064 25.48 72.156 25.328C72.4627 24.9631 72.7693 24.6287 73.0453 24.2638C73.26 24.0205 73.4746 23.7773 73.6893 23.5341C73.2293 24.355 72.5547 25.0239 72.1867 25.9057C72.524 25.5712 72.7693 25.176 73.1373 24.8111C72.9533 25.176 72.6773 25.4192 72.5853 25.8145C72.708 25.7841 72.7693 25.6928 72.8 25.632C73.0453 25.2976 73.2906 24.9935 73.5666 24.7199C73.7506 24.507 73.9653 24.355 74.2106 24.2334C74.3946 24.1118 74.5479 24.1422 74.7319 24.2638C74.8546 24.355 74.8546 24.3854 74.7626 24.4766C74.6093 24.6287 74.6093 24.6591 74.7933 24.7503C75.4679 25.0543 76.1732 25.2672 76.9399 25.328C77.1239 25.3584 77.3385 25.2976 77.5225 25.3584C77.6758 25.3888 77.7985 25.3888 77.9518 25.4192C78.0745 25.4192 78.1358 25.3888 78.1052 25.2368C78.0745 25.1455 78.0438 25.0239 78.2278 25.0239C78.3811 24.9935 78.5038 25.0239 78.5651 25.0847C78.9025 25.1455 79.4851 25.2672 79.9144 25.48C80.6504 25.7232 81.6317 24.3246 81.3251 23.5645C81.0184 22.8043 80.2211 21.6793 79.4851 19.5814C78.7491 17.4834 77.2465 13.8651 78.5038 13.6219C79.7611 13.3787 81.9384 12.9226 81.9997 11.9496C82.061 10.9766 81.785 8.93946 81.1411 8.72663ZM11.8673 2.28068C11.898 2.28068 11.9286 2.28068 11.99 2.28068C12.266 2.28068 12.3886 2.3719 12.358 2.55433C12.358 2.58473 12.358 2.64555 12.2966 2.64555C12.266 2.67595 12.2353 2.67595 12.2046 2.64555C12.1433 2.55433 12.0513 2.52392 11.9593 2.52392C11.898 2.52392 11.8673 2.49352 11.806 2.46311C11.7753 2.46311 11.714 2.4023 11.7447 2.34149C11.7447 2.28068 11.806 2.28068 11.8673 2.28068ZM68.5681 8.96987C68.5988 8.90906 68.5988 8.81784 68.6601 8.75703C68.8748 8.5746 68.9055 8.36176 68.8748 8.11852C68.8441 7.96649 68.9361 7.84487 69.0281 7.72325C69.0895 7.66244 69.1508 7.60163 69.1508 7.75365C69.1508 7.84487 69.2428 7.84487 69.3041 7.84487C69.3654 7.81446 69.3654 7.75365 69.3654 7.72325C69.3348 7.63203 69.3654 7.57122 69.4268 7.54082C69.4574 7.51041 69.5188 7.51041 69.5494 7.57122C69.6108 7.63203 69.5801 7.69284 69.5494 7.78406C69.4881 7.93609 69.3654 8.08811 69.3654 8.27055C69.3654 8.33136 69.3041 8.33136 69.2734 8.36176C69.1201 8.45298 68.9975 8.5746 68.9361 8.72663C68.8748 8.81784 68.9055 8.87865 69.0281 8.90906C69.3041 8.93946 69.3348 8.96987 69.2121 9.21311C69.2121 9.24352 69.1814 9.27392 69.1508 9.30433C69.0894 9.24352 69.1508 9.18271 69.1201 9.1523C69.1508 9.1219 69.0895 9.09149 69.0588 9.09149C68.9975 9.09149 68.9668 9.1219 68.9361 9.18271C68.8135 9.42595 68.6295 9.63879 68.4761 9.85163C68.4455 9.88203 68.4455 9.94284 68.3841 9.91244C68.3228 9.88203 68.3228 9.82122 68.3535 9.79082C68.5068 9.54757 68.4761 9.24352 68.5681 8.96987ZM64.4896 13.3482C64.2749 13.5611 64.4283 13.8043 64.4283 14.0476C64.4283 14.078 64.4283 14.078 64.4589 14.1084C64.4589 14.1388 64.4896 14.1996 64.4283 14.1996C64.3976 14.23 64.3669 14.1692 64.3669 14.1388C64.3056 13.926 64.3363 13.7435 64.2749 13.5307C64.2443 13.4091 64.2443 13.2874 64.2443 13.1962C64.2443 13.1354 64.2749 13.0746 64.3363 13.0746C64.4589 13.0442 64.5816 13.2874 64.4896 13.3482ZM61.5457 9.79082C61.607 10.0341 61.7297 10.0645 61.9444 9.91244C62.067 9.82122 62.1897 9.85163 62.3123 9.85163C62.3737 9.85163 62.4043 9.91244 62.435 9.97325C62.4657 10.0341 62.4043 10.0645 62.3737 10.0645C62.0057 10.1253 61.6377 10.1861 61.2697 10.1557C61.2697 10.1557 61.239 10.1557 61.239 10.1253C61.3617 10.0341 61.4537 9.91244 61.5457 9.79082ZM59.7978 10.2469C59.8284 10.2773 59.8898 10.2469 59.9204 10.2165C59.9818 10.1557 60.0431 10.1253 60.1351 10.1557C60.2271 10.1861 60.3191 10.1861 60.3191 10.0949C60.3497 10.0037 60.2271 10.0037 60.1657 9.97325C60.1351 9.97325 60.1044 9.97325 60.0431 9.91244C60.2884 9.88203 60.5031 9.88203 60.6871 9.82122C60.7177 9.82122 60.7484 9.85163 60.7484 9.85163C60.7791 9.88203 60.7177 9.91244 60.7177 9.91244C60.6871 9.94284 60.6257 9.97325 60.6564 10.0341C60.6871 10.0949 60.7484 10.0645 60.8097 10.0645C60.9017 10.0645 61.055 10.0037 61.055 10.0949C61.055 10.2165 60.9017 10.1557 60.8097 10.1557C60.7177 10.1557 60.6257 10.1557 60.5337 10.2165C60.4724 10.2469 60.4111 10.2773 60.3497 10.2469C60.1657 10.1861 59.9818 10.2165 59.8284 10.3381C59.7978 10.3685 59.7364 10.3685 59.6751 10.3381C59.6444 10.3077 59.6444 10.3077 59.6751 10.2773C59.7058 10.2469 59.7364 10.2165 59.7978 10.2469ZM14.5966 16.1455C14.3819 16.2672 14.1672 16.328 13.9832 16.48C13.9526 16.5104 13.9526 16.5408 13.9832 16.6016C14.0752 16.6928 14.0446 16.7841 13.9219 16.8449C13.7993 16.9057 13.7073 16.9361 13.7379 17.1185C13.7993 17.3618 13.6766 17.605 13.6766 17.8482C13.6766 18.1219 13.6153 18.3955 13.5846 18.6692C13.5539 18.8516 13.5233 19.0037 13.4006 19.1253C13.3393 19.1861 13.3393 19.2773 13.3393 19.3685C13.3086 19.8246 13.2779 20.2807 13.2473 20.7672C13.2166 21.0712 13.2779 21.4057 13.3393 21.7097C13.3699 21.8922 13.4926 21.9834 13.6766 22.0138C13.8606 22.0442 14.0446 22.0746 14.0139 22.3482C14.0139 22.4395 14.1059 22.5611 14.0752 22.6523C14.0752 22.6523 14.1059 22.7131 14.1366 22.7131C14.2899 22.8043 14.2286 22.8347 14.1366 22.9564C13.9219 23.1692 13.7073 23.2604 13.4926 23.3212C13.3699 23.3516 13.2473 23.6253 13.3086 23.7469C13.3699 23.8077 13.3086 23.8381 13.2779 23.8685C13.1859 23.8989 13.1246 23.9293 13.0326 23.9597C12.9713 23.9901 12.9406 24.0205 12.9713 24.1118C13.0019 24.1726 13.0633 24.1726 13.0939 24.1726C13.2166 24.1422 13.3086 24.1118 13.4313 24.1118C13.5233 24.0814 13.5539 24.1118 13.5846 24.203C13.6153 24.2334 13.5539 24.2638 13.4926 24.2942C13.4619 24.2942 13.4313 24.3246 13.4006 24.3246C13.0326 24.2942 12.6953 24.4462 12.358 24.5678C12.2966 24.5982 12.2353 24.5982 12.2046 24.6895C12.1433 24.8719 11.9593 24.9327 11.8367 24.8415C11.714 24.7503 11.5913 24.7503 11.4687 24.8415C11.2233 24.9631 10.978 25.0543 10.7327 25.176C10.5794 25.2368 10.426 25.2672 10.2727 25.2368C10.15 25.2064 10.0274 25.2368 9.93538 25.2976C9.62872 25.48 9.26074 25.4496 8.98475 25.2368C8.92341 25.2064 8.89275 25.1151 8.86208 24.9935C8.83142 24.8415 8.86208 24.6895 8.89275 24.5374C8.92341 24.4462 8.92341 24.3246 8.89275 24.2334C8.83142 23.8077 8.92341 23.382 8.98475 22.926C9.01541 22.8043 9.04608 22.7131 9.13807 22.6523C9.26074 22.5915 9.23007 22.5307 9.1994 22.4395C9.16874 22.3482 9.13807 22.1962 9.13807 22.0442C9.13807 21.8618 9.16874 21.7097 9.35273 21.6185C9.50606 21.5273 9.53673 21.4057 9.44473 21.2232C9.32207 20.98 9.35273 20.7368 9.44473 20.4935C9.4754 20.4023 9.53673 20.3719 9.62872 20.4023C9.75139 20.4023 9.81272 20.3415 9.81272 20.2199C9.81272 20.0982 9.84338 20.007 9.90471 19.9158C9.99671 19.7638 9.96605 19.6422 9.90471 19.4901C9.78205 19.551 9.81272 19.6726 9.75139 19.7334C9.69005 19.703 9.72072 19.6422 9.72072 19.6118C9.72072 19.5205 9.78205 19.3989 9.59806 19.3989C9.56739 19.3989 9.50606 19.3077 9.53673 19.2469C9.56739 19.0949 9.59806 18.9428 9.59806 18.7908C9.69005 18.7908 9.69005 18.8516 9.69005 18.9124C9.69005 18.9732 9.72072 19.0341 9.81272 19.0341C9.87405 19.0341 9.90471 18.9732 9.90471 18.9124C9.87405 18.6084 9.90471 18.2739 9.78205 18.0003C9.72072 17.8482 9.72072 17.7874 9.81272 17.7266C9.93538 17.6658 9.96605 17.5138 9.99671 17.3922C10.0887 17.1185 10.058 16.8449 10.0887 16.5712C10.15 15.9631 10.2114 15.3854 10.1807 14.7773C10.1807 14.6253 10.1194 14.5341 10.058 14.4124C9.72072 13.9868 9.2914 13.6523 8.92341 13.257C7.81945 12.0408 6.83815 10.7334 5.97951 9.36514C5.30487 8.27055 4.66089 7.17595 3.83291 6.17257C3.46493 5.7469 3.06627 5.32122 2.63695 4.92595C2.57562 4.86514 2.48362 4.80433 2.39163 4.74352C2.26896 4.6523 2.17697 4.74352 2.0543 4.80433C1.99297 4.89555 1.87031 4.95636 1.74765 4.86514C1.65565 4.77392 1.68632 4.6523 1.74765 4.56109C1.80898 4.50028 1.83964 4.43946 1.83964 4.37865C1.93164 4.25703 1.90098 4.13541 1.74765 4.0746C1.59432 3.98338 1.53299 3.86176 1.44099 3.70973C1.28766 3.40568 1.257 3.13203 1.41033 2.85838C1.47166 2.70636 1.50232 2.55433 1.53299 2.3719C1.56365 2.12865 1.71698 1.94622 1.80898 1.73338C1.83964 1.64217 1.90098 1.64217 1.96231 1.64217C2.29963 1.58136 2.63695 1.52055 2.97427 1.55095C3.15827 1.58136 3.34226 1.55095 3.52626 1.49014C3.58759 1.45973 3.67958 1.42933 3.77158 1.45973C4.2009 1.52055 4.63022 1.45973 5.02887 1.42933C5.30486 1.39892 5.51952 1.49014 5.76485 1.58136C6.01018 1.70298 6.28617 1.73338 6.56216 1.67257C6.77682 1.61176 6.99148 1.55095 7.20614 1.58136C7.72745 1.67257 8.2181 1.45973 8.73942 1.49014C8.95408 1.49014 9.1994 1.52055 9.44473 1.49014C9.4754 1.49014 9.53673 1.49014 9.59806 1.52055C9.96605 1.70298 10.3954 1.8246 10.7634 1.97663C10.794 1.97663 10.8247 2.00703 10.8554 2.03744C10.6714 2.06784 10.518 2.06784 10.3954 1.97663C9.96605 1.64217 9.4754 1.73338 9.01541 1.8246C8.46343 1.88541 7.97278 1.97663 7.4208 1.94622C7.20614 1.94622 7.02214 2.00703 6.80748 2.03744C6.71549 2.06784 6.65415 2.09825 6.62349 2.18946C6.47016 2.55433 6.47016 2.91919 6.74615 3.22325C6.86881 3.34487 6.99148 3.4969 6.93014 3.67933C6.89948 3.74014 6.96081 3.80095 6.96081 3.83136C7.4208 4.53068 7.88078 5.1996 8.34077 5.89892C8.46343 6.05095 8.58609 6.20298 8.77008 6.29419C9.1994 6.47663 9.62872 6.68946 9.99671 6.96311C10.2114 7.11514 10.4567 7.20636 10.7327 7.26717C10.6714 7.32798 10.61 7.29757 10.5794 7.29757C10.1194 7.14555 9.72072 6.99352 9.32207 6.78068C9.23007 6.71987 9.10741 6.62865 9.01541 6.71987C8.92341 6.78068 9.04608 6.8719 9.07674 6.96311C9.16874 7.17595 9.35273 7.29757 9.59806 7.35838C9.35273 7.35838 9.41406 7.48 9.4754 7.60163C9.72072 8.05771 9.99671 8.48338 10.3034 8.93946C10.3647 9.03068 10.426 9.06109 10.518 8.96987C10.5794 8.90906 10.6714 8.84825 10.7327 8.90906C10.794 8.93946 10.7634 9.03068 10.7634 9.1219C10.7634 9.21311 10.7327 9.30433 10.7327 9.39555C10.7327 9.42595 10.7327 9.45636 10.7634 9.48676C10.794 9.51717 10.8247 9.48676 10.8247 9.45636C10.9167 9.39555 11.0087 9.30433 11.07 9.48676C11.1007 9.51717 11.162 9.48676 11.2233 9.42595C11.2847 9.33473 11.3153 9.27392 11.3153 9.1523C11.3153 9.06109 11.3153 8.96987 11.346 8.87865C11.346 8.72663 11.438 8.605 11.622 8.605C11.714 8.605 11.806 8.5746 11.8673 8.48338C11.8673 8.39217 11.9593 8.36176 12.0513 8.39217C12.174 8.45298 12.2353 8.36176 12.3273 8.30095C12.6953 7.93609 13.0633 7.57122 13.4619 7.23676C13.4926 7.23676 13.5233 7.17595 13.5539 7.14555C14.0139 6.47663 14.5659 5.92933 15.0565 5.29082C15.1179 5.23001 15.1792 5.1996 15.2405 5.16919C15.3019 5.13879 15.3632 5.10838 15.3939 5.07798C15.5472 4.80433 15.8232 4.6219 15.9459 4.31784C15.9459 4.22663 16.0072 4.16582 15.9765 4.10501C15.9459 4.01379 15.9765 3.98338 16.0072 3.92257C16.1605 3.67933 16.4058 3.46649 16.6205 3.25365C16.7125 3.16244 16.8045 3.07122 16.8965 2.98C16.9885 2.82798 17.1418 2.76717 17.3258 2.73676C17.4791 2.73676 17.6325 2.64555 17.7551 2.55433C18.0618 2.3719 18.3991 2.21987 18.7671 2.25028C18.8898 2.25028 18.9818 2.21987 19.1044 2.18946C19.3804 2.06784 19.6564 1.94622 19.9324 1.855C20.0857 1.79419 20.2697 1.73338 20.423 1.91582C20.515 2.00703 20.607 2.00703 20.7297 1.88541C20.975 1.64217 21.0057 1.64217 21.3123 1.8246C21.4963 1.94622 21.6803 2.03744 21.8337 2.15906C21.987 2.28068 22.0177 2.52392 22.2323 2.64555C22.2936 2.67595 22.2323 2.76717 22.1403 2.82798C22.1403 2.82798 22.079 2.82798 22.1097 2.88879C22.1403 2.91919 22.171 2.91919 22.2016 2.91919C22.263 2.91919 22.2936 2.91919 22.355 2.91919C22.447 2.91919 22.6003 2.82798 22.5696 3.04082C22.5696 3.13203 22.6616 3.07122 22.6923 3.13203C22.6923 3.13203 22.6923 3.16244 22.6616 3.16244C22.6003 3.22325 22.447 3.19284 22.447 3.31446C22.447 3.40568 22.5696 3.40568 22.631 3.43609C22.7536 3.46649 22.815 3.5273 22.6923 3.58811C22.539 3.64892 22.5696 3.77055 22.631 3.86176C22.6616 3.95298 22.6616 4.01379 22.6923 4.0746C22.723 4.16582 22.6616 4.22663 22.5696 4.25703C22.539 4.25703 22.5083 4.28744 22.4776 4.28744C21.8337 4.37865 21.343 4.74352 20.883 5.16919C20.4537 5.56446 20.0244 5.92933 19.6257 6.3246C19.4111 6.50703 19.1964 6.68946 19.0737 6.93271C19.0737 6.96311 19.0431 6.99352 19.0124 6.99352C18.7671 7.17595 18.6444 7.4496 18.3991 7.63203C18.3378 7.66244 18.3071 7.72325 18.2458 7.66244C18.1844 7.60163 18.2458 7.57122 18.2764 7.54082C18.3378 7.4496 18.3991 7.41919 18.4604 7.35838C18.5831 7.23676 18.7058 7.08473 18.7364 6.9023C18.7364 6.84149 18.7978 6.78068 18.7058 6.71987C18.6444 6.71987 18.5831 6.75028 18.5524 6.78068C18.5218 6.81109 18.4911 6.84149 18.4298 6.8719C18.4298 6.59825 18.5831 6.44622 18.6751 6.23338C18.5218 6.26379 18.4298 6.355 18.3378 6.44622C18.2764 6.50703 18.1844 6.56784 18.1231 6.65906C17.6325 7.29757 17.1111 7.90568 16.7125 8.605C16.4978 9.03068 16.2218 9.42595 15.9459 9.79082C15.8845 9.88203 15.8539 9.94284 15.7925 10.0037C15.8539 10.0645 15.8845 9.97325 15.9459 10.0037V10.0341C15.6392 10.6726 15.2405 11.2503 14.7499 11.7368C14.4432 12.0712 14.1366 12.4057 13.8606 12.7097C13.7379 12.8314 13.7379 12.953 13.8299 13.0746C14.0752 13.3787 14.3512 13.6523 14.6886 13.8651C14.8419 13.9564 15.0872 14.0476 15.0872 14.3212C15.0872 14.382 15.1179 14.4124 15.1792 14.4428C15.3325 14.5341 15.4245 14.6557 15.4245 14.8381C15.4245 15.051 15.5472 15.2942 15.3019 15.507C15.2712 15.507 15.3325 15.5678 15.3632 15.5982C15.4552 15.7199 15.3939 15.8111 15.3019 15.8719C15.2099 15.9327 15.1485 15.9935 15.1179 16.0847C15.0872 16.2368 14.9952 16.2672 14.8419 16.2064C14.7806 16.2064 14.6886 16.1151 14.5966 16.1455ZM43.0236 21.0712C42.993 21.132 42.9316 21.132 42.8703 21.0712C42.7783 20.98 42.6556 20.9496 42.533 20.9192C42.4717 20.8888 42.3797 20.828 42.349 20.8888C42.3183 20.9496 42.2877 21.0408 42.349 21.132C42.3797 21.1928 42.5023 21.2537 42.441 21.3449C42.3797 21.4361 42.257 21.4665 42.1343 21.4969C42.073 21.4969 41.981 21.5273 41.9197 21.5881C41.8277 21.6793 41.705 21.5881 41.6437 21.5273C41.5823 21.4665 41.6743 21.4665 41.705 21.4361C41.7663 21.4057 41.797 21.3753 41.7663 21.3145C41.7357 21.2232 41.705 21.3145 41.6437 21.3145C41.521 21.3449 41.429 21.3449 41.3677 21.4665C41.337 21.5577 41.245 21.4969 41.1837 21.4665C41.061 21.4057 40.969 21.3449 40.8464 21.4665C40.8157 21.4969 40.785 21.4969 40.7544 21.4665C40.5397 21.2841 40.2637 21.4057 40.0491 21.2841C39.8037 21.1624 39.5584 21.132 39.2824 21.1928C39.1904 21.1928 39.1291 21.1624 39.0678 21.132C38.3625 20.7064 37.7185 20.1895 37.0745 19.703C36.8905 19.3077 36.4918 19.1557 36.1852 18.9124C35.7559 18.578 35.2959 18.3043 34.8359 18.0003C34.6826 17.9091 34.5906 17.9699 34.5292 18.0915C34.4679 18.2739 34.3453 18.426 34.3759 18.6388C34.4066 18.73 34.3759 18.8212 34.2533 18.882C34.0999 18.9428 34.0386 19.1253 34.0386 19.2773C34.0386 19.4901 33.9773 19.703 34.0693 19.9462C34.1306 20.1895 33.9773 20.4023 33.8546 20.5847C33.7319 20.676 33.6706 20.7672 33.7013 20.8888C33.7319 20.9496 33.7013 20.98 33.6706 21.0104C33.5479 21.132 33.5173 21.2537 33.7013 21.3449C33.6399 21.4057 33.6093 21.3753 33.5479 21.3753C33.4559 21.3449 33.4253 21.3753 33.364 21.4665C33.2413 21.6793 33.0266 21.7097 32.812 21.6793C32.72 21.6489 32.628 21.6793 32.536 21.7097C32.3826 21.7705 32.26 21.801 32.1067 21.7097C32.0147 21.6489 31.9533 21.6793 31.892 21.7401C31.7693 21.8314 31.6467 21.8314 31.4933 21.7705C31.432 21.7401 31.34 21.7097 31.248 21.7097C30.88 21.7097 30.5734 21.5577 30.3281 21.2841C30.2974 21.1928 30.2054 21.1016 30.1441 21.0408C29.9907 20.9192 29.9601 20.7976 30.0521 20.6151C30.1134 20.4935 30.0214 20.3111 29.8681 20.2199C29.8067 20.1895 29.7147 20.1591 29.6841 20.0982C29.6227 20.0374 29.5614 20.0374 29.5001 20.0982C29.4694 20.0982 29.4387 20.1287 29.4081 20.1287C29.3467 20.1591 29.2854 20.1287 29.2548 20.0678C29.2241 20.007 29.2854 19.9766 29.3467 19.9462C29.4081 19.9462 29.6227 19.9766 29.4387 19.8246C29.4081 19.7942 29.4387 19.7638 29.4694 19.7638C29.5307 19.7334 29.5614 19.703 29.6227 19.703C29.8067 19.6422 29.8987 19.5205 29.9294 19.3381C29.9294 19.1557 30.0214 18.9732 30.1441 18.8212C30.1747 18.7604 30.2361 18.73 30.2054 18.6692C30.1134 18.4868 30.2667 18.3955 30.3587 18.2739C30.5427 18.0611 30.6654 17.8482 30.7267 17.5746C30.788 17.301 30.9107 17.0577 31.0027 16.7841C31.0947 16.5104 31.064 16.4192 30.7574 16.3584C30.604 16.2976 30.4507 16.2672 30.2974 16.3888C30.2667 16.4192 30.2361 16.4192 30.2054 16.3888C30.1441 16.3888 30.1134 16.3584 30.0521 16.3584C29.6534 16.5408 29.2241 16.3888 28.7948 16.5408C28.7334 16.5408 28.6414 16.5712 28.5801 16.5408C28.0588 16.4496 27.5988 16.632 27.1388 16.7537C26.9242 16.7841 26.8628 16.8753 26.9242 17.0577C26.9548 17.2401 27.0162 17.3922 27.0775 17.5746C27.1388 17.757 27.1695 17.9395 27.0775 18.1523C27.0468 17.9699 27.0162 17.7874 26.9855 17.6354C26.9855 17.5746 26.9548 17.4834 26.8628 17.4834C26.7708 17.4834 26.6482 17.5138 26.5868 17.5746C26.5562 17.6354 26.5868 17.6962 26.6175 17.757C26.7402 17.9699 26.7402 18.1827 26.8322 18.426C26.8628 18.4868 26.8322 18.6084 26.9548 18.6084C27.0775 18.6084 27.0468 18.4868 27.0775 18.3955C27.0775 18.3651 27.0775 18.3651 27.0775 18.3651C27.4455 19.2469 27.6908 20.1895 28.2121 21.0408C28.3041 21.2232 28.4574 21.4057 28.5801 21.5881C28.6414 21.7097 28.7334 21.801 28.7334 21.953C28.7334 22.0138 28.7948 22.0746 28.8561 22.105C28.9174 22.1658 28.9481 22.257 28.9481 22.3482C28.9481 22.4699 28.8254 22.4091 28.7334 22.4699C28.6108 22.5307 28.4574 22.5915 28.3348 22.6523C28.2121 22.7131 28.2121 22.8651 28.0895 22.926C28.0588 22.9564 28.0895 23.0172 28.1201 23.0172C28.2735 23.1388 28.1815 23.2908 28.1815 23.4428C28.1815 23.5341 28.0895 23.5341 28.0281 23.5341C27.9055 23.5341 27.7828 23.5645 27.6601 23.6253C27.4761 23.7165 27.3228 23.6557 27.1695 23.6253C27.0468 23.5949 26.9242 23.5645 26.8015 23.6861C26.8015 23.6861 26.7708 23.7165 26.7402 23.7165C26.5255 23.5949 26.2802 23.6861 26.0349 23.6253C25.5135 23.4428 25.1762 23.0476 24.9002 22.6219C24.4402 21.8922 24.0723 21.1016 23.8883 20.2199C23.7656 19.7334 23.7043 19.2469 23.7656 18.7604C23.7963 18.6388 23.7043 18.578 23.6429 18.5172C23.4589 18.3955 23.3669 18.2435 23.3363 18.0307C23.3056 17.9091 23.3363 17.6962 23.1216 17.6658C23.091 17.6658 23.1523 17.5442 23.0603 17.5746C22.9683 17.5746 22.8763 17.605 22.815 17.6658C22.7536 17.757 22.631 17.8178 22.5696 17.7874C22.355 17.7266 22.2323 17.8787 22.079 17.9395C22.0483 17.9395 22.0177 18.0003 21.9563 18.0003C21.619 18.0003 21.4963 18.2435 21.3737 18.5476C21.2203 19.0037 21.0364 19.4597 20.791 19.8854C20.699 20.0374 20.7604 20.2199 20.7604 20.3719C20.7604 20.5239 20.7297 20.6151 20.5457 20.6455C20.2697 20.676 20.1164 20.828 20.0244 21.1016C19.9937 21.1928 19.9631 21.2841 19.9324 21.3753C19.8097 21.7097 19.5951 21.9226 19.1964 21.953C19.1351 21.953 19.0737 21.9834 19.0431 21.9834C18.5218 22.2874 17.9391 22.3787 17.3258 22.3482C17.2031 22.3482 17.1111 22.3787 17.0192 22.4091C16.8658 22.5307 16.7125 22.5003 16.5592 22.4395C16.4978 22.4091 16.4978 22.3787 16.5285 22.3482C16.5592 22.3178 16.6205 22.257 16.6818 22.257C16.7738 22.1962 16.7738 22.1658 16.6818 22.105C16.5285 22.0138 16.5285 21.953 16.6818 21.8618C16.7432 21.801 16.8045 21.7705 16.8658 21.7401C17.0191 21.6793 17.1418 21.5577 17.2031 21.4057C17.4485 20.9496 17.6631 20.4631 17.9085 20.007C17.9391 19.9462 18.0005 19.8854 17.9391 19.7942C17.8778 19.7334 17.7858 19.7334 17.7245 19.7638C17.5098 19.8854 17.2951 19.7942 17.1111 19.7942C16.7432 19.7942 16.5592 19.6118 16.3445 19.3685C15.8845 18.8516 15.3939 18.3955 15.0259 17.8178C14.9952 17.7874 14.9339 17.6962 14.9646 17.6354C15.0259 17.5746 15.0872 17.6354 15.1485 17.6354C15.2099 17.6658 15.2712 17.6962 15.3325 17.7266C15.5779 17.8787 15.8232 17.8482 16.0992 17.7874C16.9272 17.5442 17.7245 17.2705 18.5524 17.0577C18.7671 16.9969 18.9511 16.9057 19.1657 16.9361C19.2884 16.9665 19.4417 16.8145 19.5031 16.6928C19.5337 16.6016 19.5644 16.5104 19.6257 16.4192C19.6257 16.5408 19.5337 16.6624 19.6871 16.6928C19.8404 16.7232 19.9631 16.6624 19.9937 16.5104C20.1777 16.0543 20.423 15.5982 20.515 15.0814C20.5764 14.7773 20.699 14.4732 20.8217 14.1996C21.067 13.5611 21.3123 12.8922 21.4963 12.2232C21.527 12.1624 21.5577 12.1016 21.4963 12.0712C21.435 12.0712 21.4043 12.132 21.343 12.1624C21.3123 12.1928 21.2817 12.2537 21.2817 12.2841C21.1283 12.6793 20.883 13.0138 20.791 13.4091C20.7604 13.4699 20.7604 13.5307 20.699 13.5611C20.6377 13.5307 20.6684 13.5003 20.699 13.4699C20.8217 13.105 20.9137 12.7401 21.0364 12.3753C21.1283 12.1016 21.3123 11.9192 21.4657 11.7064C21.4963 11.6455 21.5577 11.6151 21.619 11.6151C21.7417 11.5847 21.8337 11.5239 21.895 11.4023C21.9563 11.3415 22.0177 11.2503 22.1097 11.2199C22.2936 11.1287 22.4776 11.0374 22.631 10.9158C22.6616 10.9158 22.6616 10.8854 22.6923 10.8854C22.9376 10.8854 23.1523 10.7638 23.3976 10.7334C23.4589 10.7334 23.5203 10.703 23.5816 10.6726C23.7349 10.6118 23.8883 10.551 24.0416 10.4597C24.1643 10.3989 24.3176 10.3381 24.4709 10.3381C24.5936 10.3381 24.7162 10.2773 24.8389 10.2165C24.9616 10.1557 25.0536 10.0645 25.2375 10.1557C25.2989 10.1861 25.3909 10.1253 25.4522 10.0645C25.5442 10.0037 25.5749 10.0037 25.6975 10.0645C26.0042 10.2773 26.0042 10.6422 26.0349 10.9462C26.0655 11.2503 26.1269 11.5847 26.1269 11.8888C26.1269 12.0408 26.2802 12.1928 26.1575 12.3753C26.4335 12.7097 26.3108 13.1658 26.4642 13.5307C26.6175 13.926 26.7402 14.3212 26.8322 14.7165C26.8322 14.7469 26.8628 14.7469 26.8628 14.7773C26.9548 15.051 26.9548 15.0814 27.2615 15.0205C27.6601 14.9597 28.0588 14.9293 28.4574 14.8685C28.6108 14.8381 28.7641 14.8381 28.9174 14.8685C29.0401 14.8989 29.1628 14.8685 29.2854 14.8381C29.6534 14.7469 30.0521 14.6861 30.42 14.5341C30.604 14.4732 30.788 14.5037 30.972 14.4428C31.156 14.382 31.3094 14.3212 31.4627 14.2604C31.524 14.23 31.5547 14.23 31.5547 14.1692C31.5547 14.1084 31.5853 14.078 31.6773 14.0476C31.8 14.0172 31.8613 13.8347 31.7693 13.7739C31.5547 13.6219 31.616 13.4091 31.6773 13.2266C31.7693 12.8922 31.7693 12.5881 31.7693 12.2537C31.7693 11.8584 31.8613 11.4327 31.8307 11.0374C31.8307 10.9158 31.8307 10.7942 31.8 10.6726C31.7693 10.4597 31.7387 10.2773 31.8 10.0645C31.8613 9.94284 31.8 9.79082 31.7693 9.63879C31.7693 9.57798 31.708 9.54757 31.6467 9.54757C31.4933 9.51717 31.4013 9.39555 31.432 9.24352C31.4627 9.1523 31.4627 9.06109 31.5853 9.18271C31.6773 9.27392 31.708 9.21311 31.7387 9.1219C31.7693 8.96987 31.8307 8.81784 31.7693 8.66582C31.7387 8.605 31.7387 8.54419 31.6773 8.54419C31.616 8.54419 31.616 8.605 31.5853 8.63541C31.5853 8.66582 31.5853 8.69622 31.524 8.69622C31.4933 8.5746 31.5547 8.45298 31.5547 8.33136C31.5853 8.17933 31.5853 8.0273 31.5853 7.84487C31.5853 7.75365 31.5547 7.69284 31.432 7.75365C31.3707 7.78406 31.3093 7.81446 31.248 7.75365C31.1867 7.69284 31.2174 7.63203 31.248 7.60163C31.3707 7.38879 31.3707 7.17595 31.1867 6.99352C31.1254 6.9023 31.1254 6.78068 31.0947 6.68946C30.972 6.26379 31.0027 5.80771 30.7574 5.41244C30.6654 5.26041 30.5734 5.07798 30.512 4.89555C30.4814 4.77392 30.42 4.71311 30.2974 4.71311C30.1747 4.71311 30.0521 4.68271 29.9294 4.68271C29.6841 4.71311 29.5307 4.53068 29.3774 4.37865C29.2854 4.31784 29.3774 4.25703 29.4387 4.25703C29.6227 4.22663 29.7761 4.19622 29.9601 4.19622C30.0214 4.19622 30.0827 4.19622 30.1134 4.13541C30.1441 4.01379 30.1134 3.95298 30.0521 3.92257C29.9294 3.83136 29.9601 3.74014 30.0214 3.64892C30.1134 3.43609 30.2667 3.34487 30.4814 3.31446C31.0027 3.25365 31.4627 3.07122 31.984 2.98C32.352 2.91919 32.7506 2.91919 33.1186 3.01041C33.6706 3.13203 34.1919 3.43609 34.7439 3.5273C35.5719 3.70973 36.2465 4.13541 36.9212 4.56109C37.0438 4.6219 37.1665 4.74352 37.2585 4.83473C37.3812 4.95636 37.3505 4.98676 37.1972 5.04757C37.0132 5.13879 36.7985 5.16919 36.6145 5.26041C36.3998 5.32122 36.2465 5.44284 36.2772 5.68609C36.2772 5.7773 36.2159 5.83811 36.1545 5.86852C36.0319 5.89892 35.9705 5.95973 35.9705 6.08136C35.8785 7.11514 35.6639 8.14892 35.7252 9.18271C35.7559 9.45636 35.8172 9.6996 35.7559 9.97325C35.7252 10.0949 35.7559 10.2165 35.9092 10.2773C36.0319 10.3381 35.9705 10.4597 35.9399 10.551C35.7865 10.7638 35.7865 11.0374 35.7559 11.2807C35.6945 11.676 35.7252 12.0712 35.5412 12.4665C35.4492 12.6489 35.3879 12.8314 35.3879 13.0442C35.3879 13.105 35.3572 13.1658 35.2959 13.1962C35.2039 13.257 35.2346 13.3482 35.2652 13.4395C35.2959 13.5307 35.3879 13.5003 35.4492 13.5003C36.0319 13.4091 36.6452 13.257 37.2278 13.2266C37.8411 13.1658 38.4238 13.0138 39.0064 12.9226C39.0984 12.8922 39.2211 12.8922 39.3131 12.8314C39.4664 12.7097 39.5891 12.7401 39.7117 12.8618C39.8344 12.953 39.9264 12.953 40.0491 12.8618C40.1104 12.801 40.1717 12.7705 40.2637 12.8314C40.8157 13.2266 41.3677 13.6219 41.7357 14.1996C41.797 14.2908 41.8583 14.3516 41.797 14.4732C41.797 14.5037 41.7663 14.5037 41.797 14.5341C41.889 14.8077 41.6743 14.8989 41.521 15.0205C41.2757 15.203 40.9997 15.2942 40.693 15.3246C40.1717 15.3854 39.6504 15.4158 39.1291 15.4462C39.0371 15.4462 38.9451 15.4462 38.8838 15.3854C38.7611 15.2942 38.5465 15.2942 38.3931 15.4158C38.3625 15.4462 38.3318 15.4766 38.2705 15.4766C37.3812 15.5374 36.4918 15.5982 35.6025 15.7503C35.3572 15.7807 35.3266 15.8719 35.5105 16.0239C35.8479 16.328 36.1545 16.6928 36.6145 16.8449C36.7372 16.8753 36.7985 16.9665 36.8905 17.0273C37.0745 17.1793 37.2585 17.3314 37.4732 17.4226C37.6265 17.4834 37.7491 17.605 37.8411 17.7266C37.9331 17.8482 38.1478 17.7874 38.2091 18.0003C38.2398 18.1219 38.4851 18.1219 38.6384 18.2131C38.6998 18.2435 38.7611 18.2739 38.7918 18.2739C38.9451 18.3347 39.0678 18.426 39.1904 18.4868C39.4664 18.6084 39.7117 18.7908 39.9571 18.9732C39.9877 19.0037 40.0491 19.0037 40.0797 19.0341C40.9997 19.4293 41.8277 20.0374 42.5637 20.7064C42.6863 20.828 42.809 20.9192 42.9623 21.0104C42.993 20.98 43.0543 21.0104 43.0236 21.0712ZM50.4141 14.382C50.4141 14.382 50.3834 14.4428 50.3527 14.4732C50.2301 14.8077 50.1074 15.1422 50.0461 15.507C50.0154 15.7503 50.0461 15.9935 49.9541 16.2368C49.9541 16.2672 49.9541 16.2976 49.9541 16.2976C50.1994 16.4496 50.0154 16.7537 50.1994 16.9665C50.2607 17.0577 50.2301 17.2401 50.1687 17.3618C50.0154 17.8482 49.8008 18.3043 49.6781 18.7908C49.5861 19.2469 49.4328 19.703 49.3408 20.1895C49.3101 20.3111 49.2794 20.4023 49.1874 20.4935C49.1568 20.5239 49.1261 20.5847 49.1261 20.6151C49.1261 20.828 48.9728 20.98 48.8501 21.132C48.6968 21.3753 48.4821 21.5577 48.2061 21.6489C48.0835 21.7097 47.9608 21.801 47.8688 21.8922C47.7768 21.9834 47.7155 22.0138 47.5928 21.9834C47.2862 21.8922 47.0102 21.8618 46.7035 21.8618C46.3355 21.8618 46.0289 21.7401 45.6915 21.5881C45.2622 21.3753 44.8636 21.1928 44.4649 20.9496C44.0356 20.7064 43.6983 20.3415 43.5143 19.9158C43.085 18.882 42.7783 17.7874 42.809 16.6624C42.809 15.8719 42.9623 15.1118 43.1463 14.3516C43.361 13.3482 43.6063 12.3145 43.6676 11.2807C43.6676 11.2503 43.6676 11.2199 43.6676 11.1895C43.6983 11.1287 43.6676 11.0678 43.7596 11.0678C43.8209 11.0678 43.8516 11.1287 43.8516 11.1895C43.8516 11.2503 43.8209 11.3111 43.9129 11.3111C43.9743 11.3111 43.9743 11.2199 44.0049 11.1895C44.0663 10.9462 44.0663 10.6726 44.0969 10.3989C44.1276 10.3077 44.0969 10.1861 44.2503 10.1557C44.3423 10.1253 44.3423 10.0341 44.3729 9.94284C44.4343 9.79082 44.4036 9.60838 44.4036 9.45636C44.4036 9.30433 44.4649 9.21311 44.6489 9.27392C44.7409 9.30433 44.8329 9.30433 44.9249 9.33473C45.1702 9.39555 45.3849 9.51717 45.3849 9.82122C45.3849 9.94284 45.4769 10.0949 45.5382 10.2165C45.7222 10.5814 45.6302 11.0374 45.7835 11.4327C45.6609 11.4327 45.6302 11.2807 45.5382 11.3719C45.4462 11.4631 45.5689 11.5239 45.5996 11.5847C45.7835 11.7976 45.9369 12.0104 46.1209 12.2232C46.1822 12.3145 46.2435 12.4057 46.2129 12.5273C46.1822 12.7097 46.2742 12.8922 46.3049 13.0442C46.3969 13.3482 46.3355 13.6523 46.4582 13.926C46.5809 14.1388 46.6728 14.3516 46.7342 14.5949C46.7648 14.6861 46.7955 14.7773 46.6115 14.7469C46.4889 14.7165 46.3662 14.8685 46.3969 14.9901C46.3969 15.1118 46.3969 15.2334 46.3355 15.355C46.3049 15.4158 46.2742 15.4462 46.2129 15.3854C46.1515 15.2942 46.0595 15.3246 46.0595 15.4158C45.9675 15.8719 45.7529 16.2976 45.7222 16.7841C45.7222 16.8145 45.7222 16.8753 45.7222 16.9057C45.6915 17.1489 45.5996 17.3922 45.7529 17.605C45.9982 17.9091 46.3049 18.1219 46.6729 18.2739C46.7955 18.3347 46.8875 18.2435 46.9795 18.1523C47.2862 17.7874 47.5315 17.3618 47.7768 16.9361C47.9608 16.632 48.1448 16.328 48.3288 15.9935C48.5741 15.5374 48.7581 15.051 48.8808 14.5341C49.0648 13.8955 49.2181 13.2266 49.2488 12.5273C49.2488 12.4665 49.2794 12.4057 49.3101 12.3753C49.4021 12.2537 49.4634 12.1624 49.3408 12.0104C49.3101 11.98 49.3101 11.9496 49.3408 11.9192C49.5554 11.5543 49.4634 11.1895 49.4328 10.8246C49.4021 10.3989 49.4021 9.97325 49.4021 9.54757C49.4021 8.84825 49.4634 8.14892 49.4328 7.41919C49.4328 7.26717 49.4941 7.08473 49.4941 6.93271C49.5248 6.93271 49.5248 6.93271 49.5554 6.93271C49.5861 7.02392 49.5861 7.14555 49.5554 7.26717C49.5554 7.4496 49.5861 7.63203 49.7087 7.81446C49.7701 7.90568 49.8007 8.0273 49.8007 8.14892C49.8007 8.24014 49.8314 8.39217 49.6474 8.27055C49.5554 8.24014 49.5554 8.30095 49.5554 8.36176C49.4941 8.72663 49.5554 9.1219 49.5554 9.48676C49.5554 9.63879 49.5554 9.76041 49.5554 9.88203C49.5248 10.1557 49.5554 10.3989 49.6474 10.6726C49.6781 10.7942 49.7394 10.9158 49.7087 11.0374C49.7087 11.0982 49.8927 11.2503 49.9847 11.2199C50.1074 11.1895 50.1074 11.2503 50.1074 11.3111C50.1381 11.4631 50.1994 11.6151 50.3834 11.676C50.5367 11.7368 50.6594 12.0104 50.5981 12.1928C50.4754 12.5273 50.4754 12.8618 50.4141 13.1962C50.3834 13.3787 50.4447 13.6219 50.5367 13.8043C50.5674 13.8955 50.6287 13.9868 50.7207 13.8651C50.7514 13.8043 50.8127 13.8347 50.8127 13.8955C50.782 14.0476 50.8434 14.1996 50.7514 14.3516C50.6594 14.3212 50.6901 14.1996 50.5674 14.1996C50.5367 14.2604 50.5674 14.4124 50.4141 14.382ZM80.7731 10.8854C80.8344 10.9462 80.9571 10.9462 80.9571 11.0374C80.9264 11.1591 80.8037 11.0982 80.7117 11.0982C80.4971 11.1591 80.2518 11.1895 80.0371 11.2199C79.9758 11.2199 79.9144 11.2503 79.9144 11.3415C79.9144 11.4023 80.0064 11.4023 80.0371 11.4023C80.3131 11.3415 80.5277 11.5239 80.7731 11.5847C80.8344 11.6151 80.8957 11.6455 80.8651 11.7064C80.8344 11.7976 80.8651 11.9496 80.7117 11.9496C80.5891 11.9496 80.4664 11.98 80.3438 11.9192C80.2211 11.8584 80.0984 11.8888 79.9758 11.98C79.8531 12.0408 79.7304 12.1016 79.5771 12.1928C79.5158 12.2537 79.4238 12.3145 79.3318 12.1928C79.3318 12.1928 79.3011 12.1624 79.2705 12.1624C79.1478 12.2841 79.0251 12.2232 78.8718 12.1928C78.8411 12.1624 78.8105 12.2232 78.7491 12.2537C78.5958 12.4665 78.4118 12.6185 78.1052 12.6489C77.7985 12.6793 77.4612 12.7705 77.1545 12.8618C77.0625 12.8922 77.0012 12.8922 76.9705 12.7705C76.9705 12.6793 76.8785 12.6793 76.8172 12.6793C76.6025 12.7401 76.3879 12.7705 76.1732 12.801C76.0812 12.801 76.0199 12.8314 75.9892 12.9226C75.9586 13.0138 75.9892 13.105 76.0506 13.1962C76.0812 13.2266 76.1426 13.257 76.1732 13.1962C76.2959 13.0442 76.3265 13.1658 76.3572 13.257C76.4492 13.5307 76.5412 13.8043 76.6332 14.078C77.3998 16.2064 78.0132 18.3651 78.6571 20.5239C78.9025 21.3145 79.1478 22.0746 79.3931 22.8651C79.4544 23.0172 79.5158 23.0476 79.6691 22.9868C79.8531 22.926 79.9451 22.8043 80.0371 22.6523C80.0678 22.6219 80.0678 22.5307 80.1291 22.5611C80.1904 22.5915 80.1904 22.6523 80.1904 22.7131C80.1291 22.8651 80.0371 22.9868 79.8838 23.078C79.7304 23.1388 79.6384 23.23 79.6998 23.4124C79.6998 23.4428 79.6998 23.4732 79.6998 23.5037C79.5464 23.6861 79.5158 23.8989 79.4544 24.1422C79.4238 24.2638 79.0865 24.2942 78.9331 24.1726C78.8411 24.1118 78.7798 24.051 78.7185 23.9597C78.5038 23.7165 78.2585 23.6253 77.9518 23.5341C77.9212 23.5341 77.8598 23.5037 77.8292 23.5341C77.7372 23.6557 77.5838 23.6557 77.4612 23.7469C77.1545 23.9901 76.7865 23.9293 76.4492 23.8381C75.7132 23.5949 75.0386 23.1388 74.3639 22.7435C74.3026 22.7131 74.2719 22.6827 74.2413 22.6523C73.904 22.5611 73.8733 22.2874 73.812 22.0138C73.7813 21.8618 73.8733 21.7401 74.088 21.7097C74.2106 21.7097 74.3026 21.6793 74.3026 21.5577C74.3026 21.5273 74.3333 21.5273 74.3333 21.4969C74.7013 21.2841 74.6706 20.9496 74.5786 20.6151C74.4559 20.1895 74.364 19.7334 74.18 19.3077C74.1493 19.2773 74.1186 19.2165 74.18 19.1861C74.2413 19.1557 74.2719 19.1861 74.3333 19.2165C74.3946 19.2469 74.4559 19.3685 74.5173 19.3077C74.6093 19.2469 74.6093 19.1253 74.5479 19.0341C74.4253 18.73 74.3026 18.4564 74.18 18.1523C74.18 18.1219 74.1493 18.0915 74.1186 18.0915C73.9346 18.1523 73.9346 18.0003 73.9346 17.8787C73.812 17.301 73.5666 16.7232 73.3826 16.176C73.26 15.8415 73.2293 15.4766 73.1373 15.1422C73.1067 14.9293 72.9533 14.7469 72.9227 14.5341C72.9227 14.5037 72.892 14.4732 72.8613 14.4732C72.4933 14.2908 71.788 14.4124 71.512 14.7165C71.42 14.8077 71.42 14.8077 71.2667 14.8077V14.7773C71.2974 14.7469 71.42 14.7165 71.3894 14.6557C71.328 14.5645 71.2667 14.6557 71.2054 14.6861C71.0521 14.7165 70.9601 14.8989 70.7761 14.7773H70.7454C70.8374 14.9901 70.5921 14.8989 70.5307 15.0205C70.4694 15.1422 70.4081 15.2638 70.2547 15.2942C70.2241 15.2942 70.2547 15.3854 70.2854 15.4158C70.3161 15.507 70.3161 15.5678 70.2241 15.6287C70.1321 15.6895 70.0094 15.7503 69.8868 15.7199C69.8254 15.6895 69.7948 15.6287 69.8561 15.5678C69.8868 15.5374 69.9174 15.5374 69.9481 15.507C70.0401 15.4766 70.1628 15.4158 70.1014 15.3246C70.0708 15.2638 69.9481 15.203 69.8561 15.203C69.5188 15.2334 69.1814 15.5374 69.1201 15.8719C69.0895 15.9935 69.0588 16.1151 68.9975 16.2368C68.8748 16.48 68.8135 16.7232 68.7521 16.9969C68.5068 17.9395 68.2001 18.8516 67.9548 19.7942C67.8322 20.3415 67.6175 20.8888 67.4948 21.4361C67.4335 21.8618 67.2188 22.2266 66.9429 22.5915C66.9122 22.6219 66.8815 22.6827 66.8202 22.6827C66.7589 22.6827 66.7895 22.5915 66.7895 22.5611C66.7895 22.3482 66.7589 22.3178 66.5442 22.3482C66.4829 22.3482 66.4215 22.3482 66.4215 22.3178C66.3602 22.1658 66.1455 22.0746 66.1762 21.8314C66.2069 21.7401 66.1149 21.6489 66.0842 21.5577C65.9922 21.2841 65.9309 21.0104 65.9002 20.7368C65.9002 20.676 65.8696 20.6151 65.8389 20.5543C65.6856 20.3719 65.7469 20.1591 65.8082 19.9766C65.9309 19.4597 66.1149 19.0037 66.2989 18.4868C66.3909 18.2131 66.5135 17.9699 66.5135 17.6962C66.5135 17.6354 66.5442 17.5746 66.4522 17.5138C66.3909 17.4834 66.3295 17.5138 66.2682 17.5746C66.0229 17.7874 65.7469 17.9091 65.4709 18.0307C65.1949 18.1523 64.9496 18.3347 64.6736 18.4868C62.8643 19.5205 61.0244 20.4023 59.0618 21.0408C58.9085 21.1016 58.7551 21.1624 58.6018 21.2232C58.3565 21.3449 58.0805 21.4057 57.8045 21.3753C57.7125 21.3753 57.6205 21.3753 57.5285 21.4057C57.0378 21.6185 56.4859 21.7097 55.9645 21.7705C55.5046 21.8314 55.0752 21.953 54.6153 22.0442C54.4926 22.0746 54.3699 22.105 54.2473 22.0442C53.9406 21.9226 53.5726 21.8618 53.2966 21.6793C53.1433 21.5577 52.9593 21.5273 52.7753 21.4665C52.4687 21.3753 52.162 21.2232 51.886 21.1016C51.5794 20.98 51.2727 20.828 51.0274 20.6151C50.9967 20.5847 50.9354 20.5543 50.874 20.5239C50.5061 20.4631 50.5367 20.007 50.7514 19.855C51.15 19.551 51.5487 19.2469 51.978 18.9732C52.0393 18.9428 52.1313 18.882 52.1927 18.882C52.438 18.8212 52.6527 18.7604 52.8366 18.578C53.082 18.3347 53.4193 18.1827 53.726 18.0003C54.0326 17.7874 54.3086 17.5746 54.6153 17.3922C55.1672 17.0273 55.7192 16.6624 56.2712 16.2672C56.7925 15.8719 57.3752 15.5982 57.9271 15.203C57.9578 15.1726 57.9885 15.1726 57.9885 15.1422C58.0191 15.1118 58.1111 15.0814 58.0805 15.0205C58.0498 14.9597 57.9885 14.9901 57.9271 14.9901C57.5898 14.9597 57.3445 15.203 57.0685 15.2638C56.7619 15.3246 56.5165 15.4462 56.2405 15.5678C55.7806 15.7807 55.2592 15.9023 54.7993 16.1455C54.5539 16.1151 54.2779 16.1151 54.0326 15.9935C53.7566 15.8415 53.4806 15.6591 53.2046 15.4766C53.1126 15.4158 53.082 15.3246 53.0513 15.203C52.9593 14.9293 52.9593 14.6557 52.898 14.3516C52.898 14.2908 52.9286 14.23 52.99 14.1996C53.0513 14.1692 53.1126 14.1388 53.082 14.078C53.0513 13.9868 53.0206 13.8955 52.9286 13.8651C52.8367 13.8347 52.714 13.8955 52.6527 13.7739C52.5607 13.5611 52.438 13.3787 52.4687 13.1658C52.4687 13.0138 52.4687 12.8618 52.438 12.7097C52.3767 12.3753 52.4073 12.0104 52.346 11.6455C52.3153 11.4631 52.4073 11.3719 52.6527 11.3415C53.4806 11.2503 54.2779 11.007 55.0752 10.8246C55.5352 10.703 55.9952 10.5814 56.4552 10.5205C56.5779 10.4901 56.6699 10.4901 56.7005 10.6422C56.7312 10.7334 56.8232 10.7334 56.8845 10.7334C56.9765 10.7334 56.9458 10.6422 56.9765 10.551C56.9765 10.4901 56.9152 10.3685 57.0378 10.3685C57.1605 10.3381 57.3138 10.3381 57.4058 10.3989C57.4365 10.4293 57.4365 10.4597 57.4058 10.4901C57.4058 10.5205 57.3752 10.551 57.3752 10.5814C57.5285 10.8246 57.2832 10.7942 57.1912 10.8246C56.9458 10.8854 56.6699 10.9766 56.4552 10.9158C56.2405 10.855 56.1485 11.007 55.9952 11.0678C55.7499 11.1287 55.4739 11.2199 55.2286 11.2807C55.1059 11.3111 54.9832 11.3415 54.8606 11.4327C54.9526 11.4935 55.0139 11.4631 55.0752 11.4631C55.7499 11.3111 56.3939 11.1287 57.0685 11.0374C58.3871 10.8854 59.7058 10.5205 61.0244 10.3989C61.699 10.3381 62.3737 10.2469 63.0176 10.2773C63.171 10.2773 63.3243 10.2165 63.4776 10.2773C63.4163 10.1557 63.355 10.0645 63.171 10.0645C62.987 10.0645 62.7723 10.0341 62.5577 10.0341C62.527 10.0341 62.4657 10.0341 62.4657 9.97325C62.4657 9.82122 62.6497 9.63879 62.803 9.63879C63.079 9.66919 63.355 9.66919 63.631 9.6996C63.8763 9.73001 64.0603 10.0341 63.9376 10.2469C63.8763 10.3381 63.8763 10.4293 63.9683 10.4901C64.1216 10.6422 64.1523 10.855 64.2443 11.0374C64.2749 11.1287 64.2749 11.1895 64.2443 11.2807C64.1216 11.7064 63.9989 12.132 63.7843 12.5577C63.631 12.8618 63.5083 13.2266 63.631 13.5915C63.6923 13.7435 63.631 13.8651 63.5083 13.926C63.171 14.1692 62.895 14.4124 62.5577 14.6557C62.4657 14.7165 62.3737 14.7773 62.2817 14.7773C62.0363 14.7773 61.8217 14.8685 61.607 14.9597C61.515 14.9901 61.423 15.0205 61.3924 15.1118C61.3617 15.1726 61.331 15.203 61.2697 15.203C61.0244 15.203 60.8711 15.3854 60.7484 15.5374C60.6257 15.6591 60.5031 15.7503 60.3191 15.7503C60.1964 15.7503 60.1044 15.7807 60.0737 15.9023C60.0737 15.9327 60.0431 15.9631 60.0124 15.9631C59.8284 15.9327 59.7364 16.0847 59.6444 16.2064C59.6138 16.2672 59.5524 16.2976 59.4911 16.328C59.3684 16.3888 59.2458 16.4192 59.1844 16.5408C59.0311 16.7537 58.8471 16.7841 58.6631 16.6624C58.6018 16.7232 58.7551 16.7537 58.6631 16.7841C58.6018 16.8145 58.6018 16.7537 58.5711 16.7232C58.4791 16.6624 58.4485 16.7537 58.4485 16.8145C58.4178 16.8753 58.4178 16.9057 58.4178 16.9665C58.4178 16.9969 58.3871 17.0273 58.3565 17.0273C58.3258 17.0273 58.2951 16.9969 58.2951 16.9665C58.2645 16.9057 58.2338 16.8753 58.1725 16.9057C58.0805 16.9361 57.9885 16.9969 57.9578 17.0881C57.9578 17.1185 57.9578 17.1185 57.9885 17.1489C58.0191 17.1793 58.0498 17.1489 58.0805 17.1185C58.1111 17.0881 58.1418 17.0273 58.1725 17.0881C58.2031 17.1489 58.1725 17.1793 58.1418 17.2097C58.0191 17.301 57.8965 17.3314 57.7432 17.3314C57.7738 17.2705 57.8965 17.2705 57.8658 17.2097C57.8352 17.1489 57.7432 17.2097 57.6818 17.2401C57.3445 17.4226 57.0378 17.6658 56.7005 17.8787C56.6699 17.9091 56.6085 17.9395 56.6392 17.9699C56.6699 18.0307 56.7312 18.0307 56.7925 18.0307C56.9459 17.9699 57.0685 17.9091 57.1605 17.7874C57.1912 17.757 57.2218 17.7266 57.2525 17.6962C57.2832 17.6658 57.3138 17.6962 57.3445 17.6962C57.3752 17.7266 57.3445 17.757 57.3138 17.757C57.2832 17.7874 57.1912 17.7874 57.2218 17.8787C57.2525 17.9395 57.3138 17.9091 57.3752 17.9091C58.2031 17.8178 59.0004 17.605 59.7364 17.2401C59.7978 17.2097 59.9204 17.1793 59.9204 17.0881C59.9204 16.9969 59.7978 17.0273 59.7364 16.9665C59.8898 16.8753 60.0431 16.8753 60.1964 16.8753C60.4417 16.8753 60.6871 16.8449 60.8711 16.6928C61.055 16.6016 61.239 16.5408 61.423 16.5408C61.5764 16.5408 61.7297 16.48 61.8524 16.4192C62.3737 16.2064 62.9257 15.9935 63.447 15.7807C63.6923 15.6591 63.9683 15.6591 64.2136 15.5374C64.2749 15.507 64.3669 15.4766 64.4283 15.4462C64.5816 15.3854 64.6736 15.3246 64.5509 15.1118C64.6736 15.1726 64.7349 15.2942 64.8576 15.2334C65.1029 15.1118 65.1336 14.9901 64.9496 14.7469C64.7349 14.5037 64.7349 14.4428 64.8269 14.078C64.9189 14.23 64.9802 14.382 65.0416 14.5341C65.1029 14.7773 65.2256 14.8381 65.4709 14.7773C65.5322 14.7773 65.5936 14.7469 65.6549 14.7165C66.1455 14.4732 66.6362 14.3212 67.1575 14.1692C67.2188 14.1388 67.2495 14.1084 67.3108 14.078C67.3415 14.0476 67.3722 13.9868 67.4028 14.0172C67.6482 14.078 67.8015 13.8651 68.0468 13.8347C68.1388 13.8347 68.2308 13.7131 68.1695 13.6219C68.1081 13.5003 68.0468 13.5307 67.9855 13.5915C67.9242 13.6523 67.8935 13.7131 67.8015 13.6827C67.7095 13.6523 67.5868 13.6219 67.7402 13.5003C67.8322 13.4395 67.7708 13.3787 67.7402 13.2874C67.7095 13.1962 67.5868 13.0746 67.6788 13.0138C67.7708 12.953 67.8628 13.105 67.9242 13.1962C67.9548 13.2266 67.9855 13.257 67.9855 13.3178C68.0162 13.4091 68.0775 13.4091 68.1695 13.3787C68.3228 13.2874 68.5375 12.8314 68.4761 12.6489C68.4455 12.5577 68.3841 12.5273 68.2921 12.5577C68.1082 12.6489 67.9242 12.5881 67.7708 12.6185C67.6788 12.6489 67.5562 12.6185 67.5255 12.4969C67.4948 12.3753 67.6175 12.3753 67.7095 12.3753C67.8015 12.3449 67.8628 12.3449 67.9548 12.3449C68.0162 12.3449 68.1081 12.3449 68.1388 12.2841C68.1388 12.1928 68.0468 12.1928 67.9855 12.1928C67.8628 12.132 67.7402 12.1016 67.6175 12.0408C67.5562 12.0104 67.4948 11.98 67.4335 11.9496C67.4642 11.828 67.3415 11.7672 67.3722 11.676C67.4028 11.5847 67.5255 11.5847 67.6175 11.5847C67.6788 11.5847 67.7402 11.6151 67.8015 11.6455C68.0162 11.7672 68.2921 11.828 68.5375 11.8888C68.8135 11.9496 69.0895 11.6455 69.0281 11.3111C68.9975 11.1895 69.0281 11.1287 69.0895 11.0374C69.1814 10.9462 69.2121 10.855 69.2428 10.7334C69.2734 10.5814 69.3041 10.4293 69.3348 10.2773C69.3348 10.2469 69.3654 10.1861 69.3654 10.1861C69.2735 10.0037 69.3654 9.82122 69.4574 9.66919C69.7334 9.03068 69.9481 8.33136 69.9788 7.63203C69.9788 7.51041 70.0401 7.4496 70.1321 7.41919C70.1934 7.38879 70.2547 7.35838 70.3161 7.38879C70.3774 7.41919 70.3467 7.51041 70.3161 7.54082C70.2854 7.63203 70.2854 7.72325 70.3774 7.75365C70.4694 7.78406 70.5921 7.72325 70.5921 7.63203C70.6227 7.38879 70.8681 7.41919 70.9601 7.29757C70.9907 7.26717 71.0521 7.32798 71.0521 7.38879C71.0827 7.48001 71.1134 7.54082 71.1747 7.57122C71.328 7.66244 71.328 7.66244 71.1747 7.78406C71.2667 7.84487 71.3587 7.78406 71.4507 7.78406C71.5427 7.78406 71.6347 7.75365 71.7267 7.75365C71.788 7.75365 71.8494 7.75365 71.8494 7.81446C71.88 7.96649 72.0027 7.96649 72.0947 7.96649C72.892 7.87527 73.6586 8.08811 74.4559 8.24014C74.8239 8.30095 75.1306 8.48338 75.4066 8.75703C75.4679 8.81784 75.5292 8.87865 75.5292 8.96987C75.5906 9.27392 75.6826 9.57798 75.6826 9.91244C75.6826 10.0949 75.8052 10.1861 75.9892 10.1253C76.6332 9.88203 77.2772 9.76041 77.9518 9.63879C78.1665 9.60838 78.3505 9.60838 78.5345 9.63879C78.7491 9.66919 78.8411 9.63879 78.9025 9.42595C78.9331 9.33473 78.9331 9.27392 79.0558 9.27392C79.1478 9.27392 79.1785 9.33473 79.2091 9.42595C79.2398 9.54757 79.3624 9.63879 79.4851 9.6996C79.6384 9.82122 79.7611 9.94284 79.7611 10.1557C79.7611 10.2165 79.7918 10.3077 79.8838 10.3077C79.9758 10.3381 79.9758 10.2469 80.0064 10.1861C80.1291 10.0341 80.5584 10.0037 80.7424 10.1253C80.9571 10.2469 80.8957 10.4901 80.9571 10.6422C80.9877 10.7334 80.8651 10.7334 80.8037 10.7334C80.7731 10.7638 80.7117 10.7334 80.7117 10.7942C80.7117 10.855 80.7424 10.855 80.7731 10.8854Z" fill="black"/>
</g>
<defs>
<clipPath id="clip0">
<rect width="82" height="27" fill="white"/>
</clipPath>
</defs>
</svg>
